comic-neue_bold-oblique.sfdir
StartChar: exclam
Encoding: 33 33 94
Width: 222
Flags: MW
HStem: 0 121<25.5 88.5> 655 20G<178.5 206>
LayerCount: 2
Back
Fore
SplineSet
46 217 m 2
 132 625 l 2
 138 651 165 675 192 675 c 0
 220 675 236 651 230 625 c 2
 144 217 l 2
 138 190 112 168 84 168 c 0
 57 168 40 190 46 217 c 2
113 65 m 0
 105 28 70 0 41 0 c 0
 10 0 -6 25 0 56 c 0
 8 90 43 121 73 121 c 0
 104 121 119 94 113 65 c 0
EndSplineSet
EndChar
StartChar: quotedbl
Encoding: 34 34 114
Width: 339
Flags: MW
HStem: 454 218<120.5 193 166.5 295>
LayerCount: 2
Back
Fore
SplineSet
134 454 m 0
 107 454 90 475 96 502 c 2
 122 624 l 2
 128 650 153 672 180 672 c 0
 206 672 224 650 218 624 c 2
 192 502 l 2
 186 475 160 454 134 454 c 0
282 454 m 0
 255 454 238 475 244 502 c 2
 270 624 l 2
 276 650 301 672 328 672 c 0
 354 672 373 650 367 624 c 2
 341 502 l 2
 335 475 308 454 282 454 c 0
EndSplineSet
EndChar
StartChar: numbersign
Encoding: 35 35 86
Width: 772
Flags: MW
HStem: 0 21G<125.5 149.5 317.5 341.5> 191 96<82.5 220 117 171 321 363 117 272 513 570> 390 96<165.5 321 200 271 200 371 421 463 612 653> 651 20G<440 464.5 631 655.5>
LayerCount: 2
Back
Fore
SplineSet
303 72 m 2
 363 191 l 1
 272 191 l 1
 194 34 l 2
 182 11 159 0 140 0 c 0
 111 0 96 23 101 46 c 0
 103 55 106 61 112 71 c 2
 171 191 l 1
 96 191 l 2
 69 191 53 212 58 239 c 0
 64 264 90 287 117 287 c 2
 220 287 l 1
 239 327 250 345 271 390 c 1
 179 390 l 2
 152 390 136 411 142 438 c 0
 147 463 173 486 200 486 c 2
 321 486 l 1
 396 637 l 2
 406 658 430 671 450 671 c 0
 479 671 493 649 488 624 c 0
 486 615 483 610 479 602 c 2
 421 486 l 1
 512 486 l 1
 588 637 l 2
 598 658 621 671 641 671 c 0
 670 671 684 647 679 623 c 0
 678 619 675 610 672 603 c 2
 612 486 l 1
 674 486 l 2
 699 486 717 463 712 438 c 0
 706 411 678 390 653 390 c 2
 563 390 l 1
 513 287 l 1
 591 287 l 2
 617 287 634 264 628 239 c 0
 623 212 596 191 570 191 c 2
 464 191 l 1
 385 34 l 2
 373 10 351 0 332 0 c 0
 303 0 288 23 294 48 c 0
 295 53 298 62 303 72 c 2
412 287 m 1
 463 390 l 1
 371 390 l 1
 321 287 l 1
 412 287 l 1
EndSplineSet
EndChar
StartChar: dollar
Encoding: 36 36 101
Width: 630
Flags: MW
HStem: -67 21G<225 251> 708 20G<394 420>
LayerCount: 2
Back
Fore
SplineSet
497 511 m 0
 501 551 454 565 423 570 c 1
 384 386 l 1
 499 346 546 283 527 196 c 0
 505 92 417 24 302 4 c 1
 297 -19 l 2
 292 -45 264 -67 238 -67 c 0
 212 -67 196 -45 201 -19 c 2
 206 3 l 1
 117 16 54 68 41 144 c 0
 41 148 39 152 42 166 c 0
 46 184 72 213 103 213 c 0
 126 213 141 198 143 177 c 0
 149 134 183 108 226 98 c 1
 272 312 l 1
 194 341 123 394 143 486 c 0
 167 599 257 648 346 659 c 1
 350 680 l 2
 355 705 381 728 407 728 c 0
 433 728 451 705 446 680 c 2
 442 662 l 1
 526 657 615 618 593 515 c 0
 588 490 561 470 537 470 c 0
 510 470 495 487 497 511 c 0
245 483 m 0
 240 460 257 438 295 419 c 1
 325 564 l 1
 269 549 252 513 245 483 c 0
361 282 m 1
 323 101 l 1
 373 114 414 145 426 202 c 0
 430 219 430 251 361 282 c 1
EndSplineSet
EndChar
StartChar: percent
Encoding: 37 37 8
Width: 1388
GlyphClass: 2
Flags: W
LayerCount: 2
Back
Fore
SplineSet
90 968.5 m 128,-1,1
 78 1024 78 1024 90 1087 c 1,2,3
 104 1150 104 1150 140 1206 c 128,-1,4
 176 1262 176 1262 226 1302.5 c 128,-1,5
 276 1343 276 1343 336.5 1368 c 128,-1,6
 397 1393 397 1393 461 1393 c 0,7,8
 524 1393 524 1393 574.5 1368 c 128,-1,9
 625 1343 625 1343 657.5 1302.5 c 128,-1,10
 690 1262 690 1262 702.5 1206.5 c 128,-1,11
 715 1151 715 1151 700 1087 c 1,12,13
 688 1024 688 1024 652 968.5 c 128,-1,14
 616 913 616 913 566 871 c 128,-1,15
 516 829 516 829 455.5 805.5 c 128,-1,16
 395 782 395 782 332 782 c 256,17,18
 269 782 269 782 218.5 805.5 c 128,-1,19
 168 829 168 829 135 871 c 128,-1,0
 102 913 102 913 90 968.5 c 128,-1,1
143 78 m 1,20,21
 137 115 137 115 168 156 c 2,22,-1
 1071 1335 l 2,23,24
 1089 1360 1089 1360 1118 1374.5 c 128,-1,25
 1147 1389 1147 1389 1176 1389 c 0,26,27
 1199 1389 1199 1389 1221 1374 c 1,28,29
 1254 1356 1254 1356 1257 1313 c 0,30,31
 1259 1276 1259 1276 1233 1235 c 1,32,-1
 328 55 l 2,33,34
 310 30 310 30 283 16 c 128,-1,35
 256 2 256 2 227 2 c 256,36,37
 198 2 198 2 178 16 c 1,38,39
 147 32 147 32 143 78 c 1,20,21
303 1087 m 0,40,41
 295 1048 295 1048 317.5 1021.5 c 128,-1,42
 340 995 340 995 377 995 c 0,43,44
 416 995 416 995 447.5 1022 c 128,-1,45
 479 1049 479 1049 487 1087 c 0,46,47
 495 1124 495 1124 475 1151 c 128,-1,48
 455 1178 455 1178 416 1178 c 0,49,50
 379 1178 379 1178 345 1151 c 128,-1,51
 311 1124 311 1124 303 1087 c 0,40,41
688 186.5 m 128,-1,53
 676 242 676 242 688 305 c 1,54,55
 702 368 702 368 738 423.5 c 128,-1,56
 774 479 774 479 824 520 c 128,-1,57
 874 561 874 561 934.5 585.5 c 128,-1,58
 995 610 995 610 1059 610 c 0,59,60
 1122 610 1122 610 1173.5 585.5 c 128,-1,61
 1225 561 1225 561 1256.5 520 c 128,-1,62
 1288 479 1288 479 1300.5 424 c 128,-1,63
 1313 369 1313 369 1298 305 c 1,64,65
 1286 242 1286 242 1250 186.5 c 128,-1,66
 1214 131 1214 131 1164 89 c 128,-1,67
 1114 47 1114 47 1053.5 23.5 c 128,-1,68
 993 0 993 0 930 0 c 256,69,70
 867 0 867 0 816.5 23.5 c 128,-1,71
 766 47 766 47 733 89 c 128,-1,52
 700 131 700 131 688 186.5 c 128,-1,53
903 305 m 256,72,73
 895 266 895 266 916.5 239.5 c 128,-1,74
 938 213 938 213 975 213 c 0,75,76
 1014 213 1014 213 1045.5 239.5 c 128,-1,77
 1077 266 1077 266 1085 305 c 256,78,79
 1093 344 1093 344 1073 370.5 c 128,-1,80
 1053 397 1053 397 1014 397 c 0,81,82
 977 397 977 397 944 370.5 c 128,-1,83
 911 344 911 344 903 305 c 256,72,73
EndSplineSet
EndChar
StartChar: ampersand
Encoding: 38 38 9
Width: 1130
GlyphClass: 2
Flags: W
LayerCount: 2
Back
Fore
SplineSet
10 397 m 0,0,1
 43 561 43 561 178 678 c 0,2,3
 221 715 221 715 269 744.5 c 128,-1,4
 317 774 317 774 365 799 c 1,5,6
 355 822 355 822 345.5 841 c 128,-1,7
 336 860 336 860 330 883 c 1,8,9
 295 981 295 981 313 1075 c 1,10,11
 342 1208 342 1208 467 1303 c 0,12,13
 524 1346 524 1346 586.5 1369.5 c 128,-1,14
 649 1393 649 1393 709 1393 c 0,15,16
 770 1393 770 1393 823.5 1368 c 128,-1,17
 877 1343 877 1343 915 1298 c 0,18,19
 995 1202 995 1202 971 1079 c 1,20,21
 961 1038 961 1038 942.5 989 c 128,-1,22
 924 940 924 940 879 891 c 1,23,24
 846 852 846 852 798 816 c 128,-1,25
 750 780 750 780 682 741 c 1,26,-1
 805 545 l 1,27,28
 809 555 809 555 814 562 c 128,-1,29
 819 569 819 569 823 580 c 1,30,-1
 834 602 l 1,31,32
 850 637 850 637 884 658.5 c 128,-1,33
 918 680 918 680 952 680 c 0,34,35
 995 680 995 680 1019.5 649 c 128,-1,36
 1044 618 1044 618 1034 573 c 0,37,38
 1032 567 1032 567 1030 560 c 128,-1,39
 1028 553 1028 553 1024 545 c 2,40,-1
 1014 522 l 1,41,42
 991 479 991 479 967.5 439 c 128,-1,43
 944 399 944 399 920 362 c 1,44,-1
 1034 178 l 1,45,46
 1054 149 1054 149 1044 111 c 1,47,48
 1034 68 1034 68 997.5 37 c 128,-1,49
 961 6 961 6 918 6 c 0,50,51
 867 6 867 6 844 45 c 1,52,-1
 760 178 l 1,53,54
 692 117 692 117 626.5 81 c 128,-1,55
 561 45 561 45 508 26.5 c 128,-1,56
 455 8 455 8 413.5 3 c 128,-1,57
 372 -2 372 -2 354 -2 c 0,58,59
 276 -2 276 -2 205.5 25.5 c 128,-1,60
 135 53 135 53 86 102 c 1,61,62
 31 159 31 159 11.5 235 c 128,-1,63
 -8 311 -8 311 10 397 c 0,0,1
219 397 m 0,64,65
 201 311 201 311 262 258 c 1,66,67
 293 229 293 229 332 219 c 128,-1,68
 371 209 371 209 399 209 c 0,69,70
 409 209 409 209 436 212 c 128,-1,71
 463 215 463 215 504 231 c 0,72,73
 584 264 584 264 657 342 c 1,74,-1
 475 637 l 1,75,76
 428 614 428 614 386 591.5 c 128,-1,77
 344 569 344 569 311 543 c 1,78,79
 274 512 274 512 251.5 477 c 128,-1,80
 229 442 229 442 219 397 c 0,64,65
524 1075 m 1,81,82
 516 1036 516 1036 533.5 989 c 128,-1,83
 551 942 551 942 575 901 c 1,84,85
 634 934 634 934 688.5 972 c 128,-1,86
 743 1010 743 1010 758 1073 c 1,87,88
 768 1120 768 1120 736.5 1150 c 128,-1,89
 705 1180 705 1180 664 1180 c 0,90,91
 621 1180 621 1180 578 1149 c 128,-1,92
 535 1118 535 1118 524 1075 c 1,81,82
EndSplineSet
EndChar
StartChar: quotesingle
Encoding: 39 39 113
Width: 230
Flags: MW
HStem: 454 218<135.5 207.5>
LayerCount: 2
Back
Fore
SplineSet
149 454 m 0
 122 454 105 475 111 502 c 2
 137 624 l 2
 143 650 168 672 195 672 c 0
 220 672 239 650 233 624 c 2
 207 502 l 2
 201 475 174 454 149 454 c 0
EndSplineSet
EndChar
StartChar: parenleft
Encoding: 40 40 11
Width: 833
GlyphClass: 2
Flags: W
LayerCount: 2
Back
Fore
SplineSet
6 362 m 0,0,1
 -10 540 -10 540 31 723 c 1,2,3
 68 897 68 897 162 1077 c 1,4,5
 201 1145 201 1145 247 1211.5 c 128,-1,6
 293 1278 293 1278 348 1341 c 1,7,8
 395 1398 395 1398 439 1441.5 c 128,-1,9
 483 1485 483 1485 517 1514.5 c 128,-1,10
 551 1544 551 1544 572 1560 c 1,11,-1
 592 1577 l 1,12,13
 627 1600 627 1600 666 1599 c 1,14,15
 717 1599 717 1599 739 1561 c 1,16,17
 757 1526 757 1526 745 1483 c 256,18,19
 733 1440 733 1440 694 1411 c 0,20,21
 690 1407 690 1407 632.5 1359 c 128,-1,22
 575 1311 575 1311 500 1223 c 1,23,24
 457 1170 457 1170 420 1115.5 c 128,-1,25
 383 1061 383 1061 352 1006 c 0,26,27
 272 865 272 865 246 723 c 1,28,29
 213 578 213 578 225 430 c 1,30,31
 233 315 233 315 272 201 c 0,32,33
 305 107 305 107 338 54.5 c 128,-1,34
 371 2 371 2 373 -2 c 0,35,36
 398 -33 398 -33 388.5 -77 c 128,-1,37
 379 -121 379 -121 342 -152 c 0,38,39
 303 -184 303 -184 256 -184 c 0,40,41
 211 -184 211 -184 190 -154 c 1,42,43
 170 -129 170 -129 147 -92 c 1,44,45
 129 -61 129 -61 107.5 -16 c 128,-1,46
 86 29 86 29 66 88 c 0,47,48
 19 223 19 223 6 362 c 0,0,1
EndSplineSet
EndChar
StartChar: parenright
Encoding: 41 41 12
Width: 833
GlyphClass: 2
Flags: W
LayerCount: 2
Back
Fore
SplineSet
6 -68 m 0,0,1
 18 -25 18 -25 57 4 c 0,2,3
 61 8 61 8 118.5 56 c 128,-1,4
 176 104 176 104 252 193 c 1,5,6
 295 246 295 246 332 300 c 128,-1,7
 369 354 369 354 399 410 c 1,8,9
 479 551 479 551 506 692 c 1,10,11
 539 837 539 837 526 985 c 1,12,13
 518 1100 518 1100 479 1214 c 0,14,15
 446 1308 446 1308 413.5 1360.5 c 128,-1,16
 381 1413 381 1413 379 1417 c 0,17,18
 354 1448 354 1448 363.5 1492 c 128,-1,19
 373 1536 373 1536 410 1567 c 0,20,21
 449 1599 449 1599 496 1599 c 0,22,23
 539 1599 539 1599 561 1569 c 0,24,25
 581 1542 581 1542 604 1505 c 1,26,27
 622 1474 622 1474 644 1430 c 128,-1,28
 666 1386 666 1386 686 1327 c 0,29,30
 733 1192 733 1192 745 1053 c 0,31,32
 761 875 761 875 721 692 c 1,33,34
 684 518 684 518 590 338 c 1,35,36
 551 270 551 270 505 203.5 c 128,-1,37
 459 137 459 137 403 74 c 1,38,39
 356 17 356 17 312 -26.5 c 128,-1,40
 268 -70 268 -70 234.5 -99.5 c 128,-1,41
 201 -129 201 -129 180 -146 c 2,42,-1
 160 -162 l 1,43,44
 125 -185 125 -185 86 -184 c 1,45,46
 35 -184 35 -184 12 -145 c 1,47,48
 -6 -110 -6 -110 6 -68 c 0,0,1
EndSplineSet
EndChar
StartChar: asterisk
Encoding: 42 42 13
Width: 710
GlyphClass: 2
Flags: W
LayerCount: 2
Back
Fore
SplineSet
4 946 m 0,0,1
 14 993 14 993 49 1022 c 0,2,3
 51 1024 51 1024 60.5 1033 c 128,-1,4
 70 1042 70 1042 82 1052.5 c 128,-1,5
 94 1063 94 1063 104.5 1073 c 128,-1,6
 115 1083 115 1083 121 1087 c 1,7,8
 119 1087 119 1087 119 1088.5 c 128,-1,9
 119 1090 119 1090 117 1090 c 2,10,-1
 59 1122 l 1,11,-1
 57 1122 l 1,12,13
 22 1145 22 1145 20 1189 c 128,-1,14
 18 1233 18 1233 49 1272 c 1,15,16
 96 1325 96 1325 156 1325 c 0,17,18
 185 1325 185 1325 207 1313 c 0,19,20
 211 1311 211 1311 217 1307 c 128,-1,21
 223 1303 223 1303 231 1298 c 1,22,23
 233 1302 233 1302 233 1308.5 c 128,-1,24
 233 1315 233 1315 236 1319 c 1,25,26
 236 1325 236 1325 238 1327 c 1,27,28
 248 1372 248 1372 287 1404 c 128,-1,29
 326 1436 326 1436 371 1436 c 0,30,31
 418 1436 418 1436 441.5 1404 c 128,-1,32
 465 1372 465 1372 455 1327 c 1,33,34
 453 1323 453 1323 453 1317 c 1,35,36
 451 1313 451 1313 451 1306.5 c 128,-1,37
 451 1300 451 1300 449 1296 c 1,38,39
 461 1300 461 1300 470 1304.5 c 128,-1,40
 479 1309 479 1309 483 1311 c 0,41,42
 510 1325 510 1325 539 1325 c 0,43,44
 600 1325 600 1325 621 1270 c 1,45,46
 637 1231 637 1231 614 1188 c 1,47,48
 591 1141 591 1141 549 1120 c 1,49,-1
 547 1120 l 1,50,51
 531 1112 531 1112 508 1102 c 128,-1,52
 485 1092 485 1092 475 1087 c 1,53,54
 485 1075 485 1075 499.5 1052.5 c 128,-1,55
 514 1030 514 1030 518 1026 c 0,56,57
 543 995 543 995 532 948 c 1,58,59
 524 905 524 905 483 872 c 1,60,61
 444 839 444 839 401 840 c 1,62,63
 356 840 356 840 330 872 c 1,64,-1
 328 872 l 1,65,-1
 328 874 l 1,66,67
 326 876 326 876 318.5 886.5 c 128,-1,68
 311 897 311 897 303 909.5 c 128,-1,69
 295 922 295 922 287 934 c 128,-1,70
 279 946 279 946 274 950 c 0,71,72
 272 952 272 952 272 954 c 128,-1,73
 272 956 272 956 270 958 c 1,74,75
 268 954 268 954 266 953 c 128,-1,76
 264 952 264 952 260 948 c 256,77,78
 256 944 256 944 242.5 932 c 128,-1,79
 229 920 229 920 216 907.5 c 128,-1,80
 203 895 203 895 190.5 884.5 c 128,-1,81
 178 874 178 874 176 872 c 2,82,-1
 174 870 l 1,83,84
 135 838 135 838 88 838 c 0,85,86
 47 838 47 838 20 870 c 1,87,88
 -7 899 -7 899 4 946 c 0,0,1
EndSplineSet
EndChar
StartChar: plus
Encoding: 43 43 14
Width: 798
GlyphClass: 2
Flags: W
LayerCount: 2
Back
Fore
SplineSet
4 512 m 1,0,1
 12 553 12 553 48 583.5 c 128,-1,2
 84 614 84 614 127 614 c 2,3,-1
 276 614 l 1,4,-1
 301 723 l 1,5,-1
 305 743 l 1,6,7
 315 786 315 786 351 816 c 128,-1,8
 387 846 387 846 428 846 c 0,9,10
 471 846 471 846 495.5 816 c 128,-1,11
 520 786 520 786 510 743 c 1,12,-1
 506 723 l 1,13,-1
 481 614 l 1,14,-1
 633 614 l 2,15,16
 676 614 676 614 699.5 583.5 c 128,-1,17
 723 553 723 553 715 512 c 1,18,19
 705 469 705 469 669 439.5 c 128,-1,20
 633 410 633 410 590 410 c 2,21,-1
 438 410 l 1,22,-1
 408 264 l 1,23,-1
 406 260 l 1,24,25
 398 217 398 217 362 187.5 c 128,-1,26
 326 158 326 158 283 158 c 0,27,28
 242 158 242 158 217.5 187.5 c 128,-1,29
 193 217 193 217 201 260 c 1,30,-1
 233 410 l 1,31,-1
 84 410 l 2,32,33
 41 410 41 410 17.5 439.5 c 128,-1,34
 -6 469 -6 469 4 512 c 1,0,1
EndSplineSet
EndChar
StartChar: comma
Encoding: 44 44 15
Width: 356
GlyphClass: 2
Flags: W
LayerCount: 2
Back
Fore
SplineSet
-120 -160 m 128,-1,1
 -129 -125 -129 -125 -106 -88 c 2,2,-1
 -51 0 l 1,3,4
 -57 16 -57 16 -56 35.5 c 128,-1,5
 -55 55 -55 55 -51 76 c 1,6,7
 -35 125 -35 125 6 160 c 1,8,9
 55 199 55 199 100 199 c 0,10,11
 153 199 153 199 176 160 c 1,12,13
 205 123 205 123 184 63 c 0,14,15
 180 53 180 53 175 41 c 128,-1,16
 170 29 170 29 166 25 c 1,17,-1
 113 -66 l 2,18,19
 103 -82 103 -82 93.5 -98.5 c 128,-1,20
 84 -115 84 -115 76 -127 c 0,21,22
 68 -141 68 -141 57 -156 c 1,23,24
 39 -189 39 -189 -1 -207 c 128,-1,25
 -41 -225 -41 -225 -76 -209 c 1,26,0
 -111 -195 -111 -195 -120 -160 c 128,-1,1
EndSplineSet
EndChar
StartChar: hyphen
Encoding: 45 45 112
Width: 467
Flags: MW
HStem: 203 94<88 345 120 325>
LayerCount: 2
Back
Fore
SplineSet
325 203 m 2
 100 203 l 2
 76 203 57 225 63 250 c 0
 68 276 96 297 120 297 c 2
 345 297 l 2
 371 297 387 276 382 250 c 0
 376 225 351 203 325 203 c 2
EndSplineSet
EndChar
StartChar: period
Encoding: 46 46 107
Width: 240
Flags: MW
HStem: 0 121<40.5 102.5>
LayerCount: 2
Back
Fore
SplineSet
56 0 m 0
 25 0 9 25 16 57 c 0
 23 90 57 121 88 121 c 0
 117 121 135 96 128 65 c 0
 121 29 86 0 56 0 c 0
EndSplineSet
EndChar
StartChar: slash
Encoding: 47 47 18
Width: 1140
GlyphClass: 2
Flags: W
LayerCount: 2
Back
Fore
SplineSet
1 79 m 128,-1,1
 -2 121 -2 121 27 162 c 1,2,-1
 944 1356 l 2,3,4
 987 1411 987 1411 1051 1411 c 0,5,6
 1080 1411 1080 1411 1102 1399 c 1,7,8
 1137 1374 1137 1374 1139 1333 c 1,9,10
 1143 1290 1143 1290 1110 1251 c 1,11,-1
 195 55 l 2,12,13
 177 30 177 30 148 15 c 128,-1,14
 119 0 119 0 90 0 c 0,15,16
 59 0 59 0 39 14 c 0,17,0
 4 37 4 37 1 79 c 128,-1,1
EndSplineSet
EndChar
StartChar: zero
Encoding: 48 48 54
Width: 640
Flags: MW
HStem: -3 96<220.5 301.5 220.5 308.5> 573 96<341 421.5>
LayerCount: 2
Back
Fore
SplineSet
240 -3 m 0
 106 -3 43 147 79 317 c 0
 118 502 264 669 404 669 c 0
 537 669 600 520 563 348 c 0
 524 160 377 -3 240 -3 c 0
383 573 m 0
 299 573 204 458 174 319 c 0
 149 201 181 93 260 93 c 0
 343 93 440 208 469 346 c 0
 495 466 460 573 383 573 c 0
EndSplineSet
EndChar
StartChar: one
Encoding: 49 49 20
Width: 847
GlyphClass: 2
Flags: W
LayerCount: 2
Back
Fore
SplineSet
4 113 m 256,0,1
 14 160 14 160 54 192.5 c 128,-1,2
 94 225 94 225 141 225 c 2,3,-1
 256 225 l 1,4,-1
 430 985 l 1,5,-1
 367 932 l 1,6,7
 349 914 349 914 324 904.5 c 128,-1,8
 299 895 299 895 276 895 c 0,9,10
 229 895 229 895 209 926 c 1,11,12
 180 957 180 957 187.5 1003 c 128,-1,13
 195 1049 195 1049 236 1083 c 1,14,-1
 543 1354 l 2,15,16
 584 1391 584 1391 633 1391 c 0,17,18
 643 1391 643 1391 652.5 1388.5 c 128,-1,19
 662 1386 662 1386 672 1382 c 0,20,21
 701 1368 701 1368 715 1339.5 c 128,-1,22
 729 1311 729 1311 721 1276 c 2,23,-1
 479 225 l 1,24,-1
 563 225 l 2,25,26
 610 225 610 225 636 192.5 c 128,-1,27
 662 160 662 160 651 113 c 0,28,29
 641 66 641 66 602 33 c 128,-1,30
 563 0 563 0 516 0 c 2,31,-1
 94 0 l 2,32,33
 47 0 47 0 20.5 33 c 128,-1,34
 -6 66 -6 66 4 113 c 256,0,1
EndSplineSet
EndChar
StartChar: two
Encoding: 50 50 56
Width: 554
Flags: MW
HStem: 0 95<128 369> 481 179<140.5 412> 564 96<314 361.5>
LayerCount: 2
Back
Fore
SplineSet
201 503 m 0xa0
 189 492 178 481 155 481 c 0xc0
 126 481 112 506 117 530 c 0
 121 546 130 558 160 582 c 0
 202 616 273 660 355 660 c 0
 469 660 532 581 511 484 c 0
 488 372 390 315 303 266 c 0
 233 226 160 182 128 95 c 1
 389 95 l 2
 414 95 432 74 426 47 c 0
 421 21 394 0 369 0 c 2
 9 0 l 1
 18 47 l 2
 55 220 163 288 259 342 c 0
 342 390 402 423 415 484 c 0
 425 531 389 564 334 564 c 0
 269 564 210 511 201 503 c 0xa0
EndSplineSet
EndChar
StartChar: three
Encoding: 51 51 22
Width: 1093
GlyphClass: 2
Flags: W
LayerCount: 2
Back
Fore
SplineSet
4 246 m 1,0,1
 -2 273 -2 273 8 305 c 1,2,3
 24 346 24 346 60 371.5 c 128,-1,4
 96 397 96 397 135 397 c 0,5,6
 147 397 147 397 152 395 c 1,7,8
 205 389 205 389 221 338 c 1,9,-1
 221 332 l 1,10,11
 223 330 223 330 230.5 312.5 c 128,-1,12
 238 295 238 295 258 274 c 0,13,14
 317 215 317 215 416 215 c 0,15,16
 445 215 445 215 487.5 226.5 c 128,-1,17
 530 238 530 238 573 266 c 0,18,19
 663 323 663 323 688 438 c 1,20,21
 704 520 704 520 678 567 c 0,22,23
 655 610 655 610 608 633 c 0,24,25
 563 656 563 656 522 661 c 128,-1,26
 481 666 481 666 477 666 c 0,27,28
 432 668 432 668 407.5 699.5 c 128,-1,29
 383 731 383 731 393 774 c 0,30,31
 403 819 403 819 441 851 c 128,-1,32
 479 883 479 883 524 883 c 0,33,34
 559 883 559 883 604 897 c 128,-1,35
 649 911 649 911 690 936 c 0,36,37
 776 989 776 989 791 1055 c 0,38,39
 801 1098 801 1098 762 1133 c 1,40,41
 746 1149 746 1149 712 1162.5 c 128,-1,42
 678 1176 678 1176 618 1176 c 0,43,44
 571 1176 571 1176 535.5 1167.5 c 128,-1,45
 500 1159 500 1159 475.5 1149 c 128,-1,46
 451 1139 451 1139 437.5 1129.5 c 128,-1,47
 424 1120 424 1120 422 1118 c 2,48,-1
 418 1116 l 1,49,-1
 412 1112 l 1,50,51
 375 1085 375 1085 336 1085 c 0,52,53
 291 1085 291 1085 266.5 1117 c 128,-1,54
 242 1149 242 1149 252 1194 c 0,55,56
 262 1237 262 1237 299 1268 c 0,57,58
 303 1272 303 1272 330.5 1292.5 c 128,-1,59
 358 1313 358 1313 406 1335 c 0,60,61
 531 1392 531 1392 664 1393 c 1,62,63
 836 1393 836 1393 938 1296 c 1,64,65
 985 1249 985 1249 1002.5 1185.5 c 128,-1,66
 1020 1122 1020 1122 1006 1055 c 0,67,68
 990 977 990 977 939.5 906.5 c 128,-1,69
 889 836 889 836 811 782 c 1,70,71
 854 743 854 743 881 694 c 1,72,73
 934 585 934 585 903 438 c 1,74,75
 874 315 874 315 803 221 c 0,76,77
 746 145 746 145 668 94 c 0,78,79
 600 49 600 49 522.5 24.5 c 128,-1,80
 445 0 445 0 371 0 c 0,81,82
 256 0 256 0 186.5 37 c 128,-1,83
 117 74 117 74 80 115 c 256,84,85
 43 156 43 156 27.5 189.5 c 128,-1,86
 12 223 12 223 8 233 c 1,87,-1
 6 244 l 1,88,-1
 4 246 l 1,0,1
EndSplineSet
EndChar
StartChar: four
Encoding: 52 52 58
Width: 534
Flags: MW
HStem: -1 249 152 96 647 20G<430 453>
LayerCount: 2
Back
Fore
SplineSet
297 -1 m 0
 270 -1 254 22 259 47 c 2
 282 151 l 1
 77 154 l 2
 45 154 34 175 39 201 c 0
 41 211 46 219 53 228 c 2
 394 644 l 2
 407 659 421 667 439 667 c 0
 467 667 484 646 478 619 c 2
 399 245 l 1
 409 245 l 2
 436 245 450 223 444 197 c 0
 439 170 410 149 384 149 c 2
 378 149 l 1
 356 47 l 2
 351 22 323 -1 297 -1 c 0
345 447 m 1
 183 250 l 1
 302 247 l 1
 345 447 l 1
EndSplineSet
EndChar
StartChar: five
Encoding: 53 53 59
Width: 585
Flags: MW
HStem: -3 97<206.5 267.5 206.5 272> -3 183<82.5 272> 388 96<316.5 354> 560 97<268 489 268 268>
LayerCount: 2
Back
Fore
SplineSet
37 109 m 0xb0
 35 116 35 124 37 132 c 0
 42 157 70 180 95 180 c 0x70
 118 180 124 170 131 156 c 0
 150 116 181 94 232 94 c 0
 303 94 382 166 400 253 c 0
 415 320 394 388 314 388 c 0
 249 388 199 344 188 335 c 0
 174 324 163 320 149 320 c 0
 115 320 103 345 112 375 c 2
 187 614 l 2
 194 638 220 657 244 657 c 2
 509 657 l 2
 534 657 552 634 547 609 c 0
 541 581 514 560 489 560 c 2
 268 560 l 1
 238 466 l 1
 266 477 299 484 334 484 c 0
 454 484 526 392 496 253 c 0
 466 112 332 -3 212 -3 c 0
 98 -3 45 77 37 109 c 0xb0
EndSplineSet
EndChar
StartChar: six
Encoding: 54 54 60
Width: 572
Flags: MW
HStem: -3 94<213.5 250.5> 355 94<311 320> 644 20G<421 439>
LayerCount: 2
Back
Fore
SplineSet
162 302 m 1
 156 283 152 265 148 247 c 0
 121 118 184 91 243 91 c 0
 275 91 361 118 387 243 c 0
 409 347 332 355 308 355 c 0
 239 355 186 320 162 302 c 1
426 575 m 0
 351 543 285 495 236 434 c 1
 263 443 294 449 328 449 c 0
 436 449 509 378 480 243 c 0
 437 40 278 -3 223 -3 c 0
 116 -3 15 57 55 247 c 0
 114 526 349 635 397 657 c 0
 407 661 416 664 426 664 c 0
 452 664 467 644 462 618 c 0
 458 598 443 582 426 575 c 0
EndSplineSet
EndChar
StartChar: seven
Encoding: 55 55 26
Width: 985
GlyphClass: 2
Flags: W
LayerCount: 2
Back
Fore
SplineSet
2 78 m 1,0,1
 -2 98 -2 98 5 119.5 c 128,-1,2
 12 141 12 141 27 162 c 2,3,-1
 750 1171 l 1,4,-1
 242 1171 l 2,5,6
 195 1171 195 1171 170 1203 c 128,-1,7
 145 1235 145 1235 156 1282 c 0,8,9
 166 1329 166 1329 204 1361 c 128,-1,10
 242 1393 242 1393 289 1393 c 2,11,-1
 977 1393 l 2,12,13
 1038 1393 1038 1393 1061 1339 c 0,14,15
 1071 1316 1071 1316 1066 1286.5 c 128,-1,16
 1061 1257 1061 1257 1040 1233 c 1,17,-1
 203 61 l 2,18,19
 183 32 183 32 153 16 c 128,-1,20
 123 0 123 0 92 0 c 0,21,22
 63 0 63 0 43 12 c 0,23,24
 8 35 8 35 2 78 c 1,0,1
EndSplineSet
EndChar
StartChar: eight
Encoding: 56 56 27
Width: 1028
GlyphClass: 2
Flags: W
LayerCount: 2
Back
Fore
SplineSet
5 254 m 128,-1,1
 -6 322 -6 322 14 395 c 1,2,3
 30 473 30 473 69.5 539.5 c 128,-1,4
 109 606 109 606 166 659 c 0,5,6
 217 706 217 706 279 745 c 1,7,8
 246 776 246 776 225 807 c 1,9,10
 174 895 174 895 205 1022 c 1,11,12
 225 1116 225 1116 283 1192 c 1,13,14
 312 1233 312 1233 346.5 1264.5 c 128,-1,15
 381 1296 381 1296 424 1321 c 1,16,17
 479 1356 479 1356 545.5 1374.5 c 128,-1,18
 612 1393 612 1393 674 1393 c 0,19,20
 760 1393 760 1393 829.5 1361 c 128,-1,21
 899 1329 899 1329 940 1274 c 0,22,23
 1010 1180 1010 1180 975 1034 c 0,24,25
 950 932 950 932 893 865.5 c 128,-1,26
 836 799 836 799 772 758 c 1,27,28
 825 709 825 709 856 639 c 1,29,30
 903 528 903 528 872 397 c 1,31,32
 849 313 849 313 801.5 238.5 c 128,-1,33
 754 164 754 164 682 111 c 1,34,35
 612 58 612 58 527 28 c 128,-1,36
 442 -2 442 -2 356 -2 c 0,37,38
 258 -2 258 -2 180 34 c 128,-1,39
 102 70 102 70 55 133 c 0,40,0
 16 186 16 186 5 254 c 128,-1,1
225 389 m 1,41,42
 211 332 211 332 242 287 c 1,43,44
 291 219 291 219 403 219 c 0,45,46
 444 219 444 219 485 231.5 c 128,-1,47
 526 244 526 244 561 266 c 0,48,49
 637 315 637 315 657 403 c 0,50,51
 669 456 669 456 657 496.5 c 128,-1,52
 645 537 645 537 620.5 564.5 c 128,-1,53
 596 592 596 592 565.5 609.5 c 128,-1,54
 535 627 535 627 512 635 c 1,55,56
 465 615 465 615 418 593 c 128,-1,57
 371 571 371 571 330 541 c 0,58,59
 246 482 246 482 225 389 c 1,41,42
418 1016 m 1,60,61
 404 969 404 969 430 934 c 1,62,63
 465 895 465 895 549 868 c 1,64,65
 604 891 604 891 641 910.5 c 128,-1,66
 678 930 678 930 702.5 948.5 c 128,-1,67
 727 967 727 967 741.5 989.5 c 128,-1,68
 756 1012 756 1012 762 1040 c 0,69,70
 774 1091 774 1091 752 1120 c 1,71,72
 736 1145 736 1145 702 1158 c 128,-1,73
 668 1171 668 1171 627 1171 c 0,74,75
 613 1171 613 1171 596 1169 c 0,76,77
 582 1167 582 1167 564.5 1162 c 128,-1,78
 547 1157 547 1157 528 1149 c 0,79,80
 442 1114 442 1114 418 1016 c 1,60,61
EndSplineSet
EndChar
StartChar: nine
Encoding: 57 57 28
Width: 1011
GlyphClass: 2
Flags: W
LayerCount: 2
Back
Fore
SplineSet
2 70 m 1,0,1
 -6 111 -6 111 21.5 150.5 c 128,-1,2
 49 190 49 190 94 207 c 2,3,-1
 127 219 l 2,4,5
 129 219 129 219 150.5 227.5 c 128,-1,6
 172 236 172 236 206 253 c 128,-1,7
 240 270 240 270 284 297 c 128,-1,8
 328 324 328 324 375 360 c 0,9,10
 445 415 445 415 498 477 c 1,11,12
 461 467 461 467 422 462 c 128,-1,13
 383 457 383 457 344 457 c 0,14,15
 334 457 334 457 312.5 458 c 128,-1,16
 291 459 291 459 263.5 465 c 128,-1,17
 236 471 236 471 204 483.5 c 128,-1,18
 172 496 172 496 141 516 c 1,19,20
 65 561 65 561 37 647 c 1,21,22
 17 696 17 696 15.5 755.5 c 128,-1,23
 14 815 14 815 29 885 c 0,24,25
 64 1045 64 1045 134.5 1141 c 128,-1,26
 205 1237 205 1237 270 1284 c 1,27,28
 348 1343 348 1343 428 1368 c 128,-1,29
 508 1393 508 1393 561 1393 c 0,30,31
 618 1393 618 1393 690 1376.5 c 128,-1,32
 762 1360 762 1360 821 1309 c 0,33,34
 897 1243 897 1243 922 1128 c 1,35,36
 940 1019 940 1019 909 877 c 0,37,38
 882 750 882 750 834 645.5 c 128,-1,39
 786 541 786 541 728 458 c 128,-1,40
 670 375 670 375 605.5 311.5 c 128,-1,41
 541 248 541 248 483 203 c 0,42,43
 420 154 420 154 361.5 118 c 128,-1,44
 303 82 303 82 258 60.5 c 128,-1,45
 213 39 213 39 185.5 27.5 c 128,-1,46
 158 16 158 16 156 16 c 2,47,-1
 123 6 l 1,48,49
 78 -10 78 -10 43 9.5 c 128,-1,50
 8 29 8 29 2 70 c 1,0,1
240 885 m 1,51,52
 213 756 213 756 279 702 c 0,53,54
 308 679 308 679 340.5 675.5 c 128,-1,55
 373 672 373 672 389 672 c 0,56,57
 489 672 489 672 582 717 c 0,58,59
 611 731 611 731 633.5 745.5 c 128,-1,60
 656 760 656 760 672 772 c 1,61,62
 680 797 680 797 687 822.5 c 128,-1,63
 694 848 694 848 698 877 c 1,64,65
 739 1053 739 1053 670 1124 c 1,66,67
 623 1179 623 1179 516 1180 c 0,68,69
 498 1180 498 1180 460 1168.5 c 128,-1,70
 422 1157 422 1157 379 1126 c 1,71,72
 277 1048 277 1048 240 885 c 1,51,52
EndSplineSet
EndChar
StartChar: colon
Encoding: 58 58 29
Width: 534
GlyphClass: 2
Flags: W
LayerCount: 2
Back
Fore
SplineSet
4 123 m 1,0,-1
 29 199 l 1,1,2
 43 248 43 248 87 280.5 c 128,-1,3
 131 313 131 313 180 309 c 0,4,5
 227 305 227 305 251.5 269 c 128,-1,6
 276 233 276 233 266 184 c 1,7,-1
 240 109 l 1,8,9
 226 62 226 62 182.5 28 c 128,-1,10
 139 -6 139 -6 90 -2 c 0,11,12
 43 2 43 2 17.5 38 c 128,-1,13
 -8 74 -8 74 4 123 c 1,0,-1
186 723 m 1,14,-1
 211 799 l 1,15,16
 225 848 225 848 269 880.5 c 128,-1,17
 313 913 313 913 362 909 c 0,18,19
 409 905 409 905 433.5 869 c 128,-1,20
 458 833 458 833 448 784 c 1,21,-1
 422 709 l 1,22,23
 408 662 408 662 364.5 628 c 128,-1,24
 321 594 321 594 272 598 c 0,25,26
 225 602 225 602 199.5 638 c 128,-1,27
 174 674 174 674 186 723 c 1,14,-1
EndSplineSet
EndChar
StartChar: semicolon
Encoding: 59 59 30
Width: 722
GlyphClass: 2
Flags: W
LayerCount: 2
Back
Fore
SplineSet
3 -156 m 128,-1,1
 -6 -121 -6 -121 17 -84 c 2,2,-1
 72 4 l 1,3,4
 66 20 66 20 67 39.5 c 128,-1,5
 68 59 68 59 72 80 c 1,6,7
 88 129 88 129 129 164 c 1,8,9
 178 203 178 203 223 203 c 0,10,11
 276 203 276 203 299 164 c 1,12,13
 328 127 328 127 307 67 c 0,14,15
 303 57 303 57 298 45 c 128,-1,16
 293 33 293 33 289 29 c 1,17,-1
 236 -62 l 2,18,19
 226 -78 226 -78 216.5 -94.5 c 128,-1,20
 207 -111 207 -111 199 -123 c 0,21,22
 191 -137 191 -137 180 -152 c 1,23,24
 162 -185 162 -185 122 -203 c 128,-1,25
 82 -221 82 -221 47 -205 c 1,26,0
 12 -191 12 -191 3 -156 c 128,-1,1
375 725 m 1,27,-1
 400 801 l 1,28,29
 414 850 414 850 458 882.5 c 128,-1,30
 502 915 502 915 551 911 c 0,31,32
 598 907 598 907 622.5 871 c 128,-1,33
 647 835 647 835 637 786 c 1,34,-1
 611 711 l 1,35,36
 597 664 597 664 553.5 630 c 128,-1,37
 510 596 510 596 461 600 c 0,38,39
 414 604 414 604 388.5 640 c 128,-1,40
 363 676 363 676 375 725 c 1,27,-1
EndSplineSet
EndChar
StartChar: less
Encoding: 60 60 31
Width: 1032
GlyphClass: 2
Flags: W
LayerCount: 2
Back
Fore
SplineSet
4 508 m 0,0,1
 10 537 10 537 29.5 560.5 c 128,-1,2
 49 584 49 584 76 600 c 2,3,-1
 797 1006 l 2,4,5
 828 1024 828 1024 860 1024 c 0,6,7
 889 1024 889 1024 909.5 1010.5 c 128,-1,8
 930 997 930 997 940 973 c 1,9,10
 958 938 958 938 938 891 c 1,11,12
 920 846 920 846 877 823 c 1,13,-1
 313 506 l 1,14,-1
 709 201 l 2,15,16
 742 176 742 176 741 131 c 0,17,18
 741 88 741 88 709 49 c 1,19,20
 665 2 665 2 608 2 c 0,21,22
 575 2 575 2 549 18 c 1,23,-1
 35 418 l 2,24,25
 -8 451 -8 451 4 508 c 0,0,1
EndSplineSet
EndChar
StartChar: equal
Encoding: 61 61 90
Width: 519
Flags: MW
HStem: 112 95<73.5 367 107 347> 292 95<112.5 406 146 386>
LayerCount: 2
Back
Fore
SplineSet
386 292 m 2
 126 292 l 2
 99 292 83 313 89 339 c 0
 94 364 119 387 146 387 c 2
 406 387 l 2
 431 387 449 364 444 339 c 0
 438 313 411 292 386 292 c 2
347 112 m 2
 87 112 l 2
 60 112 45 133 50 159 c 0
 56 184 80 207 107 207 c 2
 367 207 l 2
 392 207 411 184 405 159 c 0
 400 133 372 112 347 112 c 2
EndSplineSet
EndChar
StartChar: greater
Encoding: 62 62 65
Width: 566
Flags: MW
HStem: 7 21G<71.5 88> 472 20G<157 174.5>
LayerCount: 2
Back
Fore
SplineSet
443 207 m 2
 113 15 l 2
 104 10 92 7 84 7 c 0
 59 7 41 30 46 55 c 0
 50 71 61 85 77 95 c 2
 337 247 l 1
 125 403 l 2
 114 411 108 428 112 443 c 0
 118 471 144 492 170 492 c 0
 179 492 187 489 194 484 c 2
 460 288 l 2
 474 277 476 263 473 248 c 0
 470 231 461 217 443 207 c 2
EndSplineSet
EndChar
StartChar: question
Encoding: 63 63 34
Width: 1034
GlyphClass: 2
Flags: W
LayerCount: 2
Back
Fore
SplineSet
2 78.5 m 128,-1,1
 -2 104 -2 104 8 131 c 1,2,3
 24 182 24 182 66 217 c 1,4,5
 111 256 111 256 160 256 c 0,6,7
 213 256 213 256 236 219 c 0,8,9
 263 176 263 176 244 121 c 1,10,-1
 244 119 l 1,11,12
 228 72 228 72 188 39 c 1,13,14
 143 0 143 0 92 0 c 0,15,16
 47 0 47 0 18 35 c 1,17,0
 6 53 6 53 2 78.5 c 128,-1,1
137 1149 m 0,18,19
 133 1176 133 1176 143.5 1202.5 c 128,-1,20
 154 1229 154 1229 176 1249 c 1,21,-1
 178 1251 l 1,22,23
 252 1321 252 1321 338 1368 c 0,24,25
 459 1434 459 1434 578 1434 c 0,26,27
 779 1434 779 1434 879 1315 c 1,28,29
 930 1258 930 1258 944 1180 c 256,30,31
 958 1102 958 1102 940 1008 c 1,32,33
 909 861 909 861 791 739 c 1,34,35
 742 686 742 686 690.5 648 c 128,-1,36
 639 610 639 610 596 580 c 1,37,-1
 588 573 l 1,38,39
 559 555 559 555 497.5 509 c 128,-1,40
 436 463 436 463 344 391 c 1,41,-1
 342 391 l 1,42,-1
 340 387 l 1,43,44
 301 358 301 358 262 358 c 0,45,46
 219 358 219 358 195.5 389 c 128,-1,47
 172 420 172 420 180 461 c 1,48,49
 186 484 186 484 199.5 504 c 128,-1,50
 213 524 213 524 236 541 c 1,51,-1
 238 541 l 1,52,-1
 240 543 l 1,53,-1
 242 545 l 1,54,55
 271 565 271 565 304.5 590.5 c 128,-1,56
 338 616 338 616 370.5 641 c 128,-1,57
 403 666 403 666 434 689.5 c 128,-1,58
 465 713 465 713 489 731 c 0,59,60
 499 739 499 739 507.5 745.5 c 128,-1,61
 516 752 516 752 526 760 c 0,62,63
 561 785 561 785 595 811.5 c 128,-1,64
 629 838 629 838 657.5 868.5 c 128,-1,65
 686 899 686 899 706.5 933 c 128,-1,66
 727 967 727 967 735 1008 c 0,67,68
 755 1102 755 1102 715 1157 c 0,69,70
 664 1227 664 1227 535 1227 c 0,71,72
 496 1227 496 1227 461 1214.5 c 128,-1,73
 426 1202 426 1202 395.5 1184.5 c 128,-1,74
 365 1167 365 1167 341 1147.5 c 128,-1,75
 317 1128 317 1128 301 1112 c 2,76,-1
 297 1108 l 1,77,-1
 291 1104 l 2,78,79
 281 1098 281 1098 272.5 1094 c 128,-1,80
 264 1090 264 1090 252 1085 c 0,81,82
 236 1079 236 1079 221 1079 c 0,83,84
 186 1079 186 1079 163.5 1098.5 c 128,-1,85
 141 1118 141 1118 137 1149 c 0,18,19
EndSplineSet
EndChar
StartChar: at
Encoding: 64 64 35
Width: 1495
GlyphClass: 2
Flags: W
LayerCount: 2
Back
Fore
SplineSet
16 324 m 1,0,1
 36 426 36 426 75.5 509 c 128,-1,2
 115 592 115 592 162 656.5 c 128,-1,3
 209 721 209 721 260 770 c 128,-1,4
 311 819 311 819 356 854 c 1,5,6
 473 940 473 940 607 988 c 128,-1,7
 741 1036 741 1036 877 1036 c 0,8,9
 1008 1036 1008 1036 1116.5 991 c 128,-1,10
 1225 946 1225 946 1298 860 c 1,11,12
 1374 768 1374 768 1399.5 646 c 128,-1,13
 1425 524 1425 524 1395 383 c 0,14,15
 1352 180 1352 180 1214 74 c 0,16,17
 1175 43 1175 43 1137.5 25.5 c 128,-1,18
 1100 8 1100 8 1066 -1 c 128,-1,19
 1032 -10 1032 -10 1007.5 -12 c 128,-1,20
 983 -14 983 -14 971 -14 c 2,21,-1
 965 -14 l 2,22,23
 959 -14 959 -14 930 -11 c 128,-1,24
 901 -8 901 -8 866 3 c 128,-1,25
 831 14 831 14 794.5 36.5 c 128,-1,26
 758 59 758 59 733 100 c 1,27,28
 700 73 700 73 670 57 c 1,29,30
 588 10 588 10 512 10 c 0,31,32
 369 10 369 10 319 125 c 0,33,34
 296 176 296 176 300.5 225 c 128,-1,35
 305 274 305 274 309 297 c 0,36,37
 321 352 321 352 348 406.5 c 128,-1,38
 375 461 375 461 412 510 c 1,39,40
 453 559 453 559 500 598 c 128,-1,41
 547 637 547 637 600 659 c 1,42,43
 676 696 676 696 756 696 c 0,44,45
 858 696 858 696 936 637 c 1,46,-1
 952 627 l 1,47,-1
 952 625 l 1,48,49
 991 594 991 594 979 539 c 1,50,51
 969 488 969 488 922 457 c 1,52,53
 938 443 938 443 946 421 c 128,-1,54
 954 399 954 399 948 371 c 0,55,56
 946 365 946 365 945 357.5 c 128,-1,57
 944 350 944 350 940 344 c 1,58,-1
 938 342 l 1,59,60
 924 315 924 315 915.5 284.5 c 128,-1,61
 907 254 907 254 918 233 c 0,62,63
 930 208 930 208 963.5 199 c 128,-1,64
 997 190 997 190 1014 190 c 0,65,66
 1018 190 1018 190 1046.5 195.5 c 128,-1,67
 1075 201 1075 201 1108 223 c 1,68,69
 1165 272 1165 272 1188 383 c 0,70,71
 1206 469 1206 469 1194 550 c 128,-1,72
 1182 631 1182 631 1141 690 c 1,73,74
 1047 831 1047 831 834 831 c 0,75,76
 787 831 787 831 738.5 823 c 128,-1,77
 690 815 690 815 641 799 c 256,78,79
 592 783 592 783 547 758 c 128,-1,80
 502 733 502 733 459 702 c 1,81,82
 367 632 367 632 306.5 536 c 128,-1,83
 246 440 246 440 221 324 c 0,84,85
 207 258 207 258 211 204 c 128,-1,86
 215 150 215 150 230.5 105.5 c 128,-1,87
 246 61 246 61 268.5 28.5 c 128,-1,88
 291 -4 291 -4 315 -29 c 1,89,90
 370 -90 370 -90 455 -121 c 1,91,92
 529 -152 529 -152 610 -152 c 0,93,94
 710 -152 710 -152 792 -122 c 128,-1,95
 874 -92 874 -92 928 -61 c 1,96,-1
 938 -55 l 1,97,98
 969 -35 969 -35 1001 -35 c 0,99,100
 1044 -35 1044 -35 1068 -65.5 c 128,-1,101
 1092 -96 1092 -96 1081 -137 c 1,102,103
 1071 -188 1071 -188 1026 -217 c 1,104,-1
 1026 -219 l 1,105,-1
 1010 -229 l 1,106,-1
 1008 -229 l 1,107,108
 934 -272 934 -272 821 -314 c 128,-1,109
 708 -356 708 -356 567 -356 c 0,110,111
 446 -356 446 -356 334.5 -310 c 128,-1,112
 223 -264 223 -264 145 -182 c 0,113,114
 51 -84 51 -84 17.5 45 c 128,-1,115
 -16 174 -16 174 16 324 c 1,0,1
511 273.5 m 128,-1,117
 510 256 510 256 514 240 c 0,118,119
 520 215 520 215 555 215 c 0,120,121
 573 215 573 215 601 233.5 c 128,-1,122
 629 252 629 252 662 285 c 0,123,124
 697 320 697 320 722.5 354.5 c 128,-1,125
 748 389 748 389 760 408 c 1,126,-1
 760 410 l 1,127,128
 780 441 780 441 801 453 c 1,129,-1
 801 455 l 1,130,-1
 791 461 l 1,131,132
 754 492 754 492 713 492 c 0,133,134
 688 492 688 492 653 477 c 1,135,136
 604 454 604 454 567 406 c 1,137,138
 526 357 526 357 514 297 c 0,139,116
 512 291 512 291 511 273.5 c 128,-1,117
EndSplineSet
EndChar
StartChar: A
Encoding: 65 65 1
Width: 650
Flags: MW
HStem: -1 21G<463 490> 0 21G<27 54> 668 20G<410 430>
LayerCount: 2
Back
Fore
SplineSet
459 655 m 2x60
 537 67 l 2
 537 61 537 53 536 48 c 0
 530 22 505 -1 475 -1 c 0xa0
 451 -1 439 8 436 33 c 2
 408 241 l 1
 194 196 l 1
 94 32 l 2
 84 15 66 0 42 0 c 0
 12 0 -3 25 2 49 c 0
 3 56 6 62 9 67 c 2
 76 177 l 1
 57 184 46 201 51 225 c 0
 56 249 76 268 100 273 c 2
 138 281 l 1
 366 657 l 2
 378 677 400 688 420 688 c 0
 440 688 456 679 459 655 c 2x60
260 306 m 1
 394 334 l 1
 375 495 l 1
 260 306 l 1
EndSplineSet
EndChar
StartChar: B
Encoding: 66 66 28
Width: 629
Flags: MW
HStem: -2 99<126 126 126 213.5> 307 100<171 351 192 339> 581 100<229 229 229 348>
LayerCount: 2
Back
Fore
SplineSet
64 -2 m 0
 29 -2 7 7 17 53 c 2
 140 632 l 2
 145 658 173 681 199 681 c 2
 369 681 l 2
 573 681 565 533 558 501 c 0
 546 443 517 402 485 374 c 1
 546 342 568 290 552 213 c 0
 523 77 363 -2 64 -2 c 0
171 307 m 1
 126 97 l 1
 291 100 436 135 453 213 c 0
 467 280 400 307 339 307 c 2
 171 307 l 1
229 581 m 1
 192 407 l 1
 351 407 l 2
 402 407 449 453 458 498 c 0
 461 511 468 581 348 581 c 2
 229 581 l 1
EndSplineSet
EndChar
StartChar: C
Encoding: 67 67 29
Width: 658
Flags: MW
HStem: -2 100<266.5 331.5> -2 199<203 537> 501 159<542.5 604> 584 100<368.5 446>
LayerCount: 2
Back
Fore
SplineSet
548 117 m 0x60
 474 41 380 -2 283 -2 c 0
 123 -2 19 128 55 299 c 0
 98 501 296 684 436 684 c 0x90
 494 684 536 669 562 653 c 1
 573 659 580 660 590 660 c 0
 618 660 635 639 629 611 c 2
 617 551 l 2
 611 524 584 501 556 501 c 0xa0
 529 501 512 521 516 547 c 1
 501 564 477 584 415 584 c 0
 322 584 185 441 155 299 c 0
 125 156 229 98 304 98 c 0x90
 364 98 425 119 481 177 c 0
 497 193 509 197 524 197 c 0
 550 197 571 179 564 147 c 0
 562 137 557 127 548 117 c 0x60
EndSplineSet
EndChar
StartChar: D
Encoding: 68 68 30
Width: 646
Flags: MW
HStem: -19 100<171 255.5> 579 102<229 229>
LayerCount: 2
Back
Fore
SplineSet
159 -19 m 0
 104 -19 51 -5 43 -2 c 0
 23 4 11 25 15 47 c 2
 140 632 l 2
 146 660 172 681 200 681 c 0
 360 681 647 626 578 303 c 0
 530 79 352 -19 159 -19 c 0
229 579 m 1
 124 87 l 1
 140 84 161 81 181 81 c 0
 333 81 446 154 478 303 c 0
 519 494 393 566 229 579 c 1
EndSplineSet
EndChar
StartChar: E
Encoding: 69 69 40
Width: 1282
GlyphClass: 2
Flags: W
LayerCount: 2
Back
Fore
SplineSet
4 111 m 2,0,-1
 254 1284 l 2,1,2
 264 1329 264 1329 301 1361 c 128,-1,3
 338 1393 338 1393 381 1393 c 2,4,-1
 1155 1393 l 2,5,6
 1198 1393 1198 1393 1222 1361 c 0,7,8
 1239 1338 1239 1338 1240 1309 c 0,9,10
 1240 1297 1240 1297 1237 1284 c 0,11,12
 1227 1237 1227 1237 1189 1205.5 c 128,-1,13
 1151 1174 1151 1174 1108 1174 c 2,14,-1
 440 1174 l 1,15,-1
 367 827 l 1,16,-1
 946 827 l 1,17,18
 990 828 990 828 1014 796 c 0,19,20
 1031 774 1031 774 1031 743 c 0,21,22
 1031 731 1031 731 1028 717 c 0,23,24
 1018 672 1018 672 981 640 c 128,-1,25
 944 608 944 608 901 608 c 2,26,-1
 322 608 l 1,27,-1
 238 219 l 1,28,-1
 901 219 l 1,29,30
 944 220 944 220 970 188 c 0,31,32
 988 165 988 165 988 135 c 0,33,34
 988 123 988 123 985 111 c 0,35,36
 975 64 975 64 937 32 c 128,-1,37
 899 0 899 0 856 0 c 2,38,-1
 86 0 l 2,39,40
 42 0 42 0 18 32 c 0,41,42
 1 54 1 54 1 85 c 0,43,44
 1 97 1 97 4 111 c 2,0,-1
EndSplineSet
EndChar
StartChar: F
Encoding: 70 70 41
Width: 1161
GlyphClass: 2
Flags: W
LayerCount: 2
Back
Fore
SplineSet
4 104 m 2,0,-1
 256 1286 l 2,1,2
 266 1331 266 1331 303 1362 c 128,-1,3
 340 1393 340 1393 385 1393 c 2,4,-1
 1073 1393 l 2,5,6
 1118 1393 1118 1393 1142 1362 c 0,7,8
 1159 1340 1159 1340 1160 1311 c 0,9,10
 1160 1299 1160 1299 1157 1286 c 0,11,12
 1147 1243 1147 1243 1110 1212.5 c 128,-1,13
 1073 1182 1073 1182 1028 1182 c 2,14,-1
 444 1182 l 1,15,-1
 375 850 l 1,16,-1
 881 850 l 2,17,18
 924 850 924 850 948 819 c 0,19,20
 965 797 965 797 966 769 c 0,21,22
 966 758 966 758 963 745 c 0,23,24
 953 700 953 700 916 669.5 c 128,-1,25
 879 639 879 639 836 639 c 2,26,-1
 330 639 l 1,27,-1
 215 104 l 2,28,29
 205 61 205 61 169 30.5 c 128,-1,30
 133 0 133 0 90 0 c 0,31,32
 46 0 46 0 20 30 c 0,33,34
 2 52 2 52 1 81 c 0,35,36
 1 92 1 92 4 104 c 2,0,-1
EndSplineSet
EndChar
StartChar: G
Encoding: 71 71 42
Width: 1413
GlyphClass: 2
Flags: W
LayerCount: 2
Back
Fore
SplineSet
2 471 m 0,0,1
 0 498 0 498 0 524 c 128,-1,2
 0 550 0 550 2 576 c 0,3,4
 6 629 6 629 16 678 c 256,5,6
 26 727 26 727 47 782.5 c 128,-1,7
 68 838 68 838 94 891 c 1,8,9
 129 954 129 954 168 1012.5 c 128,-1,10
 207 1071 207 1071 252 1120 c 1,11,12
 358 1239 358 1239 477 1305 c 1,13,14
 639 1397 639 1397 819 1397 c 0,15,16
 1061 1397 1061 1397 1188 1253 c 0,17,18
 1239 1196 1239 1196 1260.5 1135.5 c 128,-1,19
 1282 1075 1282 1075 1288 1030 c 0,20,21
 1289 1022 1289 1022 1289 1014 c 0,22,23
 1289 979 1289 979 1268 946 c 0,24,25
 1241 905 1241 905 1194 889 c 1,26,27
 1171 883 1171 883 1155 883 c 0,28,29
 1120 883 1120 883 1096.5 902.5 c 128,-1,30
 1073 922 1073 922 1069 954 c 0,31,32
 1065 983 1065 983 1049.5 1021 c 128,-1,33
 1034 1059 1034 1059 1004 1094 c 1,34,35
 930 1176 930 1176 774 1176 c 0,36,37
 665 1176 665 1176 567 1126 c 1,38,39
 481 1079 481 1079 408 997 c 1,40,41
 330 911 330 911 289 824 c 128,-1,42
 248 737 248 737 236 678 c 0,43,44
 226 629 226 629 226 565 c 0,45,46
 226 551 226 551 226 537 c 0,47,48
 229 455 229 455 266 379 c 1,49,50
 299 305 299 305 362 264 c 0,51,52
 434 217 434 217 539 217 c 0,53,54
 715 217 715 217 846 332 c 0,55,56
 879 361 879 361 903.5 391.5 c 128,-1,57
 928 422 928 422 944 449 c 1,58,59
 903 447 903 447 867 441.5 c 128,-1,60
 831 436 831 436 805 432 c 0,61,62
 772 426 772 426 748 420 c 1,63,64
 738 416 738 416 717 416 c 0,65,66
 680 416 680 416 655.5 437.5 c 128,-1,67
 631 459 631 459 627 494 c 0,68,69
 627 499 627 499 627 504 c 0,70,71
 627 542 627 542 652 576 c 0,72,73
 682 616 682 616 729 631 c 0,74,75
 731 631 731 631 751.5 636 c 128,-1,76
 772 641 772 641 807 647 c 128,-1,77
 842 653 842 653 887 659.5 c 128,-1,78
 932 666 932 666 983 668 c 0,79,80
 991 668 991 668 999.5 669 c 128,-1,81
 1008 670 1008 670 1016 670 c 0,82,83
 1110 670 1110 670 1168.5 653.5 c 128,-1,84
 1227 637 1227 637 1231 633 c 1,85,86
 1272 617 1272 617 1281 576 c 0,87,88
 1284 564 1284 564 1284 552 c 0,89,90
 1284 523 1284 523 1268 492 c 1,91,92
 1250 463 1250 463 1221 444.5 c 128,-1,93
 1192 426 1192 426 1161 422 c 1,94,95
 1134 373 1134 373 1090.5 309.5 c 128,-1,96
 1047 246 1047 246 977 184 c 0,97,98
 879 98 879 98 766 51 c 1,99,100
 631 -2 631 -2 492 -2 c 0,101,102
 318 -2 318 -2 199 82 c 1,103,104
 107 145 107 145 57 254 c 1,105,106
 12 348 12 348 2 471 c 0,0,1
EndSplineSet
EndChar
StartChar: H
Encoding: 72 72 33
Width: 711
Flags: MW
HStem: 0 21G<42 70 507 534> 661 20G<186 214 651 678>
LayerCount: 2
Back
Fore
SplineSet
665 681 m 0
 691 681 711 660 705 632 c 2
 581 49 l 2
 575 23 547 0 521 0 c 0
 493 0 475 23 481 49 c 2
 539 322 l 1
 164 271 l 1
 117 49 l 2
 111 23 84 0 56 0 c 0
 28 0 11 23 17 49 c 2
 141 632 l 2
 147 660 172 681 200 681 c 0
 228 681 247 660 241 632 c 2
 186 372 l 1
 560 423 l 1
 605 632 l 2
 611 660 637 681 665 681 c 0
EndSplineSet
EndChar
StartChar: I
Encoding: 73 73 44
Width: 993
GlyphClass: 2
Flags: W
LayerCount: 2
Back
Fore
SplineSet
4 104 m 0,0,1
 14 149 14 149 51 180 c 128,-1,2
 88 211 88 211 131 211 c 2,3,-1
 258 211 l 1,4,-1
 467 1186 l 1,5,-1
 340 1186 l 2,6,7
 298 1186 298 1186 272 1216 c 0,8,9
 254 1238 254 1238 253 1267 c 0,10,11
 253 1278 253 1278 256 1290 c 0,12,13
 266 1335 266 1335 303 1366 c 128,-1,14
 340 1397 340 1397 383 1397 c 2,15,-1
 846 1397 l 2,16,17
 890 1397 890 1397 914 1366 c 0,18,19
 931 1344 931 1344 931 1315 c 0,20,21
 931 1303 931 1303 928 1290 c 0,22,23
 918 1247 918 1247 882 1216.5 c 128,-1,24
 846 1186 846 1186 803 1186 c 2,25,-1
 678 1186 l 1,26,-1
 469 211 l 1,27,-1
 594 211 l 1,28,29
 638 210 638 210 662 180 c 0,30,31
 679 158 679 158 679 129 c 0,32,33
 679 117 679 117 676 104 c 0,34,35
 666 61 666 61 630 30.5 c 128,-1,36
 594 0 594 0 551 0 c 2,37,-1
 88 0 l 2,38,39
 46 0 46 0 20 30 c 0,40,41
 2 52 2 52 1 81 c 0,42,43
 1 92 1 92 4 104 c 0,0,1
EndSplineSet
EndChar
StartChar: J
Encoding: 74 74 45
Width: 1083
GlyphClass: 2
Flags: W
LayerCount: 2
Back
Fore
SplineSet
1 252 m 0,0,1
 0 270 0 270 0 285.5 c 128,-1,2
 0 301 0 301 1 314 c 0,3,4
 4 342 4 342 8 356 c 1,5,6
 10 358 10 358 10 360 c 0,7,8
 20 405 20 405 57 436 c 128,-1,9
 94 467 94 467 139 467 c 0,10,11
 182 467 182 467 206 436 c 1,12,13
 224 415 224 415 224 385 c 0,14,15
 224 373 224 373 221 360 c 0,16,17
 221 358 221 358 219 356 c 2,18,-1
 221 358 l 1,19,20
 221 358 221 358 219 347 c 256,21,22
 217 336 217 336 217 319.5 c 128,-1,23
 217 303 217 303 221 283.5 c 128,-1,24
 225 264 225 264 236 250 c 0,25,26
 267 211 267 211 350 211 c 0,27,28
 444 211 444 211 492 258 c 1,29,30
 512 281 512 281 520 302.5 c 128,-1,31
 528 324 528 324 532 338 c 1,32,-1
 711 1184 l 1,33,-1
 543 1184 l 2,34,35
 498 1184 498 1184 474 1214 c 0,36,37
 456 1236 456 1236 456 1264 c 0,38,39
 456 1276 456 1276 459 1288 c 0,40,41
 469 1333 469 1333 506 1364 c 128,-1,42
 543 1395 543 1395 588 1395 c 2,43,-1
 956 1395 l 2,44,45
 999 1395 999 1395 1024 1364 c 0,46,47
 1041 1342 1041 1342 1041 1314 c 0,48,49
 1041 1302 1041 1302 1038 1288 c 0,50,51
 1030 1247 1030 1247 996.5 1217.5 c 128,-1,52
 963 1188 963 1188 922 1184 c 1,53,-1
 743 338 l 2,54,55
 729 272 729 272 695.5 214 c 128,-1,56
 662 156 662 156 612 111 c 1,57,58
 571 72 571 72 496.5 36 c 128,-1,59
 422 0 422 0 307 0 c 0,60,61
 131 0 131 0 51 104 c 1,62,63
 26 139 26 139 15 178 c 128,-1,64
 4 217 4 217 1 252 c 0,0,1
EndSplineSet
EndChar
StartChar: K
Encoding: 75 75 36
Width: 596
Flags: MW
HStem: -1 21G<419 438.5> 0 21G<40.5 67> 661 20G<184.5 211> 662 20G<545.5 564.5>
LayerCount: 2
Back
Fore
SplineSet
397 9 m 2x90
 153 238 l 1
 113 49 l 2
 107 23 80 0 54 0 c 0
 27 0 9 23 15 49 c 2
 139 632 l 2
 145 660 171 681 198 681 c 0x60
 224 681 243 660 237 632 c 2
 195 436 l 1
 518 670 l 2
 527 677 539 682 552 682 c 0
 577 682 595 657 590 632 c 0
 587 618 580 606 565 595 c 2
 208 336 l 1
 474 87 l 2
 487 75 487 61 485 48 c 0
 479 20 452 -1 425 -1 c 0
 413 -1 404 3 397 9 c 2x90
EndSplineSet
EndChar
StartChar: L
Encoding: 76 76 47
Width: 1009
GlyphClass: 2
Flags: W
LayerCount: 2
Back
Fore
SplineSet
4 104 m 2,0,-1
 256 1288 l 2,1,2
 266 1333 266 1333 303 1364 c 128,-1,3
 340 1395 340 1395 383 1395 c 256,4,5
 426 1395 426 1395 450 1364 c 0,6,7
 467 1342 467 1342 468 1313 c 0,8,9
 468 1301 468 1301 465 1288 c 2,10,-1
 238 215 l 1,11,-1
 756 252 l 1,12,-1
 764 252 l 2,13,14
 804 252 804 252 828 224 c 0,15,16
 846 203 846 203 846 174 c 0,17,18
 846 164 846 164 844 154 c 0,19,20
 838 111 838 111 803 79 c 128,-1,21
 768 47 768 47 725 43 c 1,22,-1
 94 0 l 1,23,-1
 88 0 l 2,24,25
 47 0 47 0 20 27 c 1,26,27
 1 50 1 50 1 79 c 0,28,29
 1 91 1 91 4 104 c 2,0,-1
EndSplineSet
EndChar
StartChar: M
Encoding: 77 77 38
Width: 883
Flags: MW
HStem: 0 21G<28 57.5 347 368 685 712.5> 661 20G<306 330 702.5 727>
VStem: 656 98
LayerCount: 2
Back
Fore
SplineSet
751 642 m 2
 758 76 l 2
 758 62 758 53 756 46 c 0
 751 22 727 0 698 0 c 0
 672 0 658 16 658 38 c 2
 654 456 l 1
 410 32 l 2
 399 12 379 0 357 0 c 0
 337 0 321 10 318 34 c 2
 274 441 l 1
 101 39 l 2
 91 15 71 0 44 0 c 0
 12 0 1 23 5 42 c 0
 6 47 9 58 16 75 c 2
 261 642 l 2
 271 667 294 681 318 681 c 0
 342 681 354 668 357 647 c 2
 404 204 l 1
 658 649 l 2
 671 671 690 681 715 681 c 0
 739 681 751 665 751 642 c 2
EndSplineSet
EndChar
StartChar: N
Encoding: 78 78 39
Width: 645
Flags: MW
HStem: 0 21G<42 69 451.5 472.5> 661 20G<184.5 206.5> 662 20G<589 616>
LayerCount: 2
Back
Fore
SplineSet
422 22 m 2xa0
 206 473 l 1
 115 49 l 2
 109 21 83 0 55 0 c 0
 29 0 10 23 16 49 c 2
 141 632 l 2
 146 658 170 681 199 681 c 0xc0
 214 681 230 673 236 660 c 2
 452 207 l 1
 543 632 l 2
 549 659 575 682 603 682 c 0
 629 682 648 659 642 632 c 2
 518 49 l 2
 512 20 486 0 459 0 c 0
 444 0 429 8 422 22 c 2xa0
EndSplineSet
EndChar
StartChar: O
Encoding: 79 79 40
Width: 686
Flags: MW
HStem: -2 95<230 327.5 230 335> 587 95<362.5 462.5>
LayerCount: 2
Back
Fore
SplineSet
256 -2 m 0
 107 -2 32 144 68 315 c 0
 111 514 283 682 440 682 c 0
 587 682 665 538 628 365 c 0
 586 166 414 -2 256 -2 c 0
414 587 m 0
 311 587 197 466 164 315 c 0
 139 194 184 93 276 93 c 0
 379 93 501 216 532 361 c 0
 556 475 511 587 414 587 c 0
EndSplineSet
EndChar
StartChar: P
Encoding: 80 80 51
Width: 1198
GlyphClass: 2
Flags: W
LayerCount: 2
Back
Fore
SplineSet
4 109 m 2,0,-1
 252 1278 l 2,1,2
 262 1321 262 1321 295 1351.5 c 128,-1,3
 328 1382 328 1382 369 1386 c 1,4,5
 375 1388 375 1388 410.5 1390.5 c 128,-1,6
 446 1393 446 1393 504 1393 c 0,7,8
 539 1393 539 1393 570.5 1392 c 128,-1,9
 602 1391 602 1391 635 1389 c 0,10,11
 930 1364 930 1364 1049 1227 c 1,12,13
 1072 1198 1072 1198 1087 1167.5 c 128,-1,14
 1102 1137 1102 1137 1108 1102 c 1,15,16
 1116 1069 1116 1069 1116 1033 c 0,17,18
 1116 993 1116 993 1106 950 c 1,19,20
 1077 811 1077 811 969 702 c 1,21,22
 838 567 838 567 596 502 c 1,23,24
 504 475 504 475 421 465 c 128,-1,25
 338 455 338 455 285 451 c 1,26,-1
 213 109 l 2,27,28
 203 62 203 62 165 30 c 128,-1,29
 127 -2 127 -2 84 -2 c 0,30,31
 42 -2 42 -2 18 30 c 0,32,33
 2 52 2 52 1 82 c 0,34,35
 1 95 1 95 4 109 c 2,0,-1
332 670 m 1,36,37
 377 674 377 674 444.5 682 c 128,-1,38
 512 690 512 690 584 711 c 1,39,40
 719 748 719 748 797 807 c 1,41,42
 877 866 877 866 895 950 c 0,43,44
 899 970 899 970 899 987 c 0,45,46
 899 1033 899 1033 872 1065 c 0,47,48
 837 1106 837 1106 759.5 1133.5 c 128,-1,49
 682 1161 682 1161 571 1169 c 1,50,51
 516 1175 516 1175 461 1176 c 1,52,-1
 440 1176 l 1,53,-1
 332 670 l 1,36,37
EndSplineSet
EndChar
StartChar: Q
Encoding: 81 81 42
Width: 740
Flags: MW
HStem: -22 21G<552 569> -2 97<247 308> -2 227<196 386.5> 583 97<382 495>
LayerCount: 2
Back
Fore
SplineSet
542 114 m 1x50
 604 68 l 2
 618 58 619 42 616 26 c 0
 609 -5 581 -22 557 -22 c 0x90
 547 -22 538 -20 531 -15 c 2
 452 48 l 1
 396 16 337 -2 279 -2 c 0
 113 -2 24 143 60 313 c 0
 103 513 292 680 468 680 c 0
 633 680 723 536 687 364 c 0
 666 266 615 180 542 114 c 1x50
370 108 m 1
 336 135 l 2
 320 148 320 160 323 176 c 0
 329 204 356 225 381 225 c 0x30
 392 225 403 222 411 215 c 2
 470 170 l 1
 523 219 568 288 583 361 c 0
 607 474 550 583 440 583 c 0
 324 583 195 464 164 317 c 0
 138 193 194 95 300 95 c 0x50
 324 95 348 100 370 108 c 1
EndSplineSet
EndChar
StartChar: R
Encoding: 82 82 53
Width: 1204
GlyphClass: 2
Flags: W
LayerCount: 2
Back
Fore
SplineSet
4 109 m 2,0,-1
 252 1278 l 1,1,2
 262 1319 262 1319 294 1350.5 c 128,-1,3
 326 1382 326 1382 367 1386 c 0,4,5
 371 1386 371 1386 413 1389.5 c 128,-1,6
 455 1393 455 1393 518 1393 c 0,7,8
 547 1393 547 1393 576.5 1392 c 128,-1,9
 606 1391 606 1391 635 1389 c 0,10,11
 936 1366 936 1366 1051 1231 c 1,12,13
 1098 1178 1098 1178 1114 1104 c 0,14,15
 1122 1068 1122 1068 1122 1031 c 0,16,17
 1122 989 1122 989 1112 946 c 0,18,19
 1075 782 1075 782 930 662 c 0,20,21
 891 631 891 631 846 604.5 c 128,-1,22
 801 578 801 578 750 555 c 1,23,24
 807 498 807 498 872.5 400.5 c 128,-1,25
 938 303 938 303 979 158 c 0,26,27
 982 145 982 145 982 132 c 0,28,29
 982 103 982 103 967 74 c 0,30,31
 944 31 944 31 901 12 c 0,32,33
 876 0 876 0 852 0 c 0,34,35
 789 0 789 0 772 59 c 0,36,37
 747 145 747 145 713.5 209.5 c 128,-1,38
 680 274 680 274 643 320.5 c 128,-1,39
 606 367 606 367 573.5 396.5 c 128,-1,40
 541 426 541 426 520 440 c 1,41,42
 483 467 483 467 412 467 c 0,43,44
 402 467 402 467 390.5 466 c 128,-1,45
 379 465 379 465 367 463 c 0,46,47
 344 461 344 461 323.5 459 c 128,-1,48
 303 457 303 457 287 455 c 1,49,-1
 213 109 l 2,50,51
 203 62 203 62 166 31 c 128,-1,52
 129 0 129 0 86 0 c 0,53,54
 42 0 42 0 18 30 c 0,55,56
 1 52 1 52 1 83 c 0,57,58
 1 95 1 95 4 109 c 2,0,-1
332 668 m 1,59,60
 398 672 398 672 477.5 686 c 128,-1,61
 557 700 557 700 633 725 c 0,62,63
 752 764 752 764 821 819 c 1,64,65
 889 876 889 876 903 946 c 0,66,67
 907 966 907 966 907 983 c 0,68,69
 907 1034 907 1034 877 1069 c 0,70,71
 842 1110 842 1110 763 1136.5 c 128,-1,72
 684 1163 684 1163 573 1174 c 0,73,74
 550 1176 550 1176 525 1177 c 128,-1,75
 500 1178 500 1178 473 1178 c 0,76,77
 465 1178 465 1178 457 1178 c 128,-1,78
 449 1178 449 1178 440 1176 c 1,79,-1
 332 668 l 1,59,60
EndSplineSet
EndChar
StartChar: S
Encoding: 83 83 44
Width: 624
Flags: MW
HStem: 0 96<241.5 300 241.5 304.5> 0 220<83.5 304.5> 483 199<358 556> 589 93<360.5 422.5>
LayerCount: 2
Back
Fore
SplineSet
311 309 m 0xa0
 218 335 115 387 139 500 c 0
 169 640 299 682 417 682 c 0
 494 682 628 655 602 535 c 0
 596 505 570 483 542 483 c 0xa0
 517 483 502 502 503 525 c 0
 505 567 450 589 395 589 c 0
 326 589 260 566 247 504 c 0
 237 460 275 431 357 407 c 0
 496 366 555 299 534 201 c 0
 505 63 358 0 251 0 c 0
 139 0 55 62 36 145 c 0
 35 152 35 162 37 170 c 0
 42 197 69 220 98 220 c 0x50
 123 220 137 205 140 183 c 0
 149 123 213 96 270 96 c 0
 330 96 412 127 427 196 c 0
 434 229 435 274 311 309 c 0xa0
EndSplineSet
EndChar
StartChar: T
Encoding: 84 84 55
Width: 933
GlyphClass: 2
Flags: W
LayerCount: 2
Back
Fore
SplineSet
4 1286 m 0,0,1
 14 1331 14 1331 51 1363 c 128,-1,2
 88 1395 88 1395 131 1395 c 2,3,-1
 971 1395 l 2,4,5
 1014 1395 1014 1395 1038 1363 c 0,6,7
 1055 1340 1055 1340 1056 1311 c 0,8,9
 1056 1299 1056 1299 1053 1286 c 0,10,11
 1043 1239 1043 1239 1006 1207.5 c 128,-1,12
 969 1176 969 1176 926 1176 c 2,13,-1
 598 1176 l 1,14,-1
 371 109 l 2,15,16
 361 64 361 64 324 32 c 128,-1,17
 287 0 287 0 244 0 c 0,18,19
 200 0 200 0 176 32 c 0,20,21
 159 54 159 54 159 84 c 0,22,23
 159 96 159 96 162 109 c 2,24,-1
 389 1176 l 1,25,-1
 86 1176 l 2,26,27
 42 1176 42 1176 18 1208 c 0,28,29
 1 1230 1 1230 1 1260 c 0,30,31
 1 1272 1 1272 4 1286 c 0,0,1
EndSplineSet
EndChar
StartChar: U
Encoding: 85 85 56
Width: 1288
GlyphClass: 2
Flags: W
LayerCount: 2
Back
Fore
SplineSet
6 557 m 0,0,1
 14 631 14 631 30.5 728 c 128,-1,2
 47 825 47 825 67.5 925.5 c 128,-1,3
 88 1026 88 1026 109.5 1120 c 128,-1,4
 131 1214 131 1214 147 1284 c 0,5,6
 157 1331 157 1331 194 1363 c 128,-1,7
 231 1395 231 1395 274 1395 c 256,8,9
 317 1395 317 1395 341 1363 c 0,10,11
 358 1340 358 1340 358 1310 c 0,12,13
 358 1299 358 1299 356 1286 c 1,14,-1
 356 1282 l 1,15,16
 340 1214 340 1214 319.5 1122 c 128,-1,17
 299 1030 299 1030 279.5 933 c 128,-1,18
 260 836 260 836 243.5 743.5 c 128,-1,19
 227 651 227 651 221 582 c 0,20,21
 217 541 217 541 216 505 c 1,22,23
 216 381 216 381 264 301 c 1,24,25
 325 205 325 205 449 205 c 2,26,-1
 485 205 l 2,27,28
 606 205 606 205 709 301 c 1,29,30
 818 405 818 405 872 582 c 1,31,32
 895 652 895 652 917.5 744 c 128,-1,33
 940 836 940 836 961.5 932 c 128,-1,34
 983 1028 983 1028 1001.5 1119 c 128,-1,35
 1020 1210 1020 1210 1034 1278 c 0,36,37
 1034 1280 1034 1280 1035 1281 c 128,-1,38
 1036 1282 1036 1282 1036 1284 c 0,39,40
 1046 1329 1046 1329 1083 1361 c 128,-1,41
 1120 1393 1120 1393 1163 1393 c 256,42,43
 1206 1393 1206 1393 1229 1362 c 1,44,45
 1247 1341 1247 1341 1247 1310 c 0,46,47
 1247 1300 1247 1300 1245 1290 c 1,48,-1
 1245 1286 l 1,49,50
 1233 1216 1233 1216 1213.5 1121 c 128,-1,51
 1194 1026 1194 1026 1171.5 925.5 c 128,-1,52
 1149 825 1149 825 1124.5 728 c 128,-1,53
 1100 631 1100 631 1075 557 c 1,54,55
 993 303 993 303 825 154 c 1,56,57
 739 76 739 76 642 37 c 128,-1,58
 545 -2 545 -2 440 -2 c 2,59,-1
 403 -2 l 2,60,61
 192 -2 192 -2 84 154 c 0,62,63
 1 275 1 275 1 464 c 0,64,65
 1 509 1 509 6 557 c 0,0,1
EndSplineSet
EndChar
StartChar: V
Encoding: 86 86 57
Width: 997
GlyphClass: 2
Flags: W
LayerCount: 2
Back
Fore
SplineSet
2 1247 m 2,0,1
 1 1252 1 1252 1 1258 c 0,2,3
 0 1294 0 1294 24 1329 c 1,4,5
 50 1370 50 1370 96 1384 c 0,6,7
 114 1390 114 1390 131 1391 c 1,8,9
 166 1391 166 1391 187.5 1370.5 c 128,-1,10
 209 1350 209 1350 213 1317 c 2,11,-1
 313 426 l 1,12,-1
 844 1323 l 2,13,14
 862 1354 862 1354 892 1372.5 c 128,-1,15
 922 1391 922 1391 956 1391 c 0,16,17
 976 1391 976 1391 991 1382 c 1,18,19
 1028 1366 1028 1366 1036 1325 c 0,20,21
 1038 1315 1038 1315 1038 1304 c 0,22,23
 1038 1273 1038 1273 1020 1241 c 2,24,-1
 328 68 l 1,25,26
 308 37 308 37 279 18.5 c 128,-1,27
 250 0 250 0 217 0 c 2,28,-1
 213 0 l 2,29,30
 180 0 180 0 157.5 20.5 c 128,-1,31
 135 41 135 41 131 74 c 2,32,-1
 2 1247 l 2,0,1
EndSplineSet
EndChar
StartChar: W
Encoding: 87 87 48
Width: 893
Flags: MW
HStem: 0 21G<172.5 196.5 522 545.5> 672 20G<883 908.5>
VStem: 480 91
LayerCount: 2
Back
Fore
SplineSet
585 214 m 1
 839 657 l 2
 852 679 871 692 895 692 c 0
 922 692 939 673 933 648 c 0
 932 640 930 631 921 616 c 2
 586 32 l 2
 575 12 556 0 535 0 c 0
 509 0 495 13 494 36 c 2
 467 458 l 1
 240 34 l 2
 225 7 208 0 185 0 c 0
 160 0 148 12 146 34 c 2
 93 605 l 2
 92 623 93 629 95 637 c 0
 100 662 125 681 152 681 c 0
 176 681 190 668 193 646 c 2
 232 215 l 1
 464 647 l 2
 477 671 496 681 519 681 c 0
 541 681 556 670 558 646 c 2
 585 214 l 1
EndSplineSet
EndChar
StartChar: X
Encoding: 88 88 49
Width: 707
Flags: MW
HStem: 0 21G<28 50 519.5 540.5> 661 20G<194 214 668 688>
LayerCount: 2
Back
Fore
SplineSet
428 345 m 1
 582 79 l 2
 588 69 587 60 585 49 c 0
 579 23 554 0 527 0 c 0
 512 0 499 6 491 18 c 2
 345 266 l 1
 83 18 l 2
 68 4 57 0 43 0 c 0
 13 0 -2 24 3 49 c 0
 5 61 13 74 21 81 c 2
 300 346 l 1
 151 601 l 2
 147 609 143 619 146 632 c 0
 152 660 181 681 207 681 c 0
 221 681 234 675 241 663 c 2
 382 424 l 1
 633 663 l 2
 646 675 661 681 675 681 c 0
 701 681 720 658 715 632 c 0
 712 620 704 608 696 600 c 2
 428 345 l 1
EndSplineSet
EndChar
StartChar: Y
Encoding: 89 89 60
Width: 1034
GlyphClass: 2
Flags: W
LayerCount: 2
Back
Fore
SplineSet
6 1233 m 2,0,1
 0 1248 0 1248 0 1265 c 0,2,3
 0 1289 0 1289 14 1316 c 1,4,5
 35 1360 35 1360 78 1382 c 1,6,7
 92 1388 92 1388 105.5 1392.5 c 128,-1,8
 119 1397 119 1397 135 1397 c 0,9,10
 196 1397 196 1397 219 1341 c 1,11,-1
 463 674 l 1,12,-1
 1004 1341 l 1,13,14
 1022 1366 1022 1366 1049.5 1380.5 c 128,-1,15
 1077 1395 1077 1395 1106 1395 c 0,16,17
 1139 1395 1139 1395 1161 1380 c 0,18,19
 1196 1355 1196 1355 1196 1313 c 0,20,21
 1196 1308 1196 1308 1196 1304 c 0,22,23
 1196 1264 1196 1264 1165 1231 c 1,24,-1
 217 53 l 2,25,26
 174 -2 174 -2 111 -2 c 0,27,28
 82 -2 82 -2 59 14 c 0,29,30
 24 37 24 37 25 82 c 0,31,32
 25 87 25 87 25 92 c 0,33,34
 25 129 25 129 53 164 c 2,35,-1
 291 459 l 1,36,-1
 6 1233 l 2,0,1
EndSplineSet
EndChar
StartChar: Z
Encoding: 90 90 61
Width: 1402
GlyphClass: 2
Flags: W
LayerCount: 2
Back
Fore
SplineSet
4 104 m 0,0,1
 8 120 8 120 17.5 136 c 128,-1,2
 27 152 27 152 37 164 c 1,3,-1
 1022 1161 l 1,4,-1
 385 1161 l 2,5,6
 340 1161 340 1161 316 1195 c 0,7,8
 300 1219 300 1219 300 1249 c 0,9,10
 300 1262 300 1262 303 1276 c 0,11,12
 313 1323 313 1323 349 1358 c 128,-1,13
 385 1393 385 1393 416 1393 c 2,14,-1
 1303 1393 l 2,15,16
 1344 1393 1344 1393 1366 1362 c 0,17,18
 1381 1341 1381 1341 1382 1315 c 0,19,20
 1382 1302 1382 1302 1378 1288 c 0,21,22
 1370 1251 1370 1251 1339 1221 c 2,23,-1
 362 231 l 1,24,-1
 999 231 l 1,25,26
 1044 232 1044 232 1068 198 c 0,27,28
 1084 175 1084 175 1084 145 c 0,29,30
 1084 132 1084 132 1081 117 c 0,31,32
 1071 70 1071 70 1033 35 c 128,-1,33
 995 0 995 0 950 0 c 2,34,-1
 82 0 l 1,35,-1
 80 0 l 2,36,37
 38 0 38 0 16 30 c 0,38,39
 0 51 0 51 1 79 c 0,40,41
 1 91 1 91 4 104 c 0,0,1
EndSplineSet
EndChar
StartChar: bracketleft
Encoding: 91 91 62
Width: 882
GlyphClass: 2
Flags: W
LayerCount: 2
Back
Fore
SplineSet
4 -90 m 2,0,-1
 340 1487 l 2,1,2
 350 1530 350 1530 387 1560.5 c 128,-1,3
 424 1591 424 1591 467 1591 c 2,4,-1
 715 1591 l 2,5,6
 758 1591 758 1591 782.5 1560.5 c 128,-1,7
 807 1530 807 1530 797 1487 c 0,8,9
 787 1442 787 1442 750 1411 c 128,-1,10
 713 1380 713 1380 670 1380 c 2,11,-1
 526 1380 l 1,12,-1
 236 14 l 1,13,-1
 350 14 l 2,14,15
 393 14 393 14 417.5 -15.5 c 128,-1,16
 442 -45 442 -45 432 -90 c 0,17,18
 422 -133 422 -133 385 -164 c 128,-1,19
 348 -195 348 -195 305 -195 c 2,20,-1
 86 -195 l 2,21,22
 43 -195 43 -195 18.5 -164 c 128,-1,23
 -6 -133 -6 -133 4 -90 c 2,0,-1
EndSplineSet
EndChar
StartChar: backslash
Encoding: 92 92 81
Width: 571
Flags: MW
HStem: -1 21G<368.5 391.5> 654 20G<187 209>
LayerCount: 2
Back
Fore
SplineSet
238 650 m 2
 435 70 l 2
 438 63 438 55 436 47 c 0
 431 22 406 -1 377 -1 c 0
 360 -1 347 8 342 24 c 2
 146 594 l 2
 143 602 140 615 143 628 c 0
 148 650 173 674 201 674 c 0
 217 674 231 668 238 650 c 2
EndSplineSet
EndChar
StartChar: bracketright
Encoding: 93 93 64
Width: 882
GlyphClass: 2
Flags: W
LayerCount: 2
Back
Fore
SplineSet
4 -90 m 0,0,1
 14 -45 14 -45 51 -14 c 128,-1,2
 88 17 88 17 131 17 c 2,3,-1
 275 17 l 1,4,-1
 565 1383 l 1,5,-1
 451 1383 l 2,6,7
 408 1383 408 1383 383.5 1412.5 c 128,-1,8
 359 1442 359 1442 369 1487 c 0,9,10
 379 1530 379 1530 416 1561 c 128,-1,11
 453 1592 453 1592 496 1592 c 2,12,-1
 715 1592 l 2,13,14
 758 1592 758 1592 782.5 1561 c 128,-1,15
 807 1530 807 1530 797 1487 c 2,16,-1
 461 -90 l 2,17,18
 451 -133 451 -133 414 -163.5 c 128,-1,19
 377 -194 377 -194 334 -194 c 2,20,-1
 86 -194 l 2,21,22
 43 -194 43 -194 18.5 -163.5 c 128,-1,23
 -6 -133 -6 -133 4 -90 c 0,0,1
EndSplineSet
EndChar
StartChar: asciicircum
Encoding: 94 94 124
Width: 526
Flags: MW
HStem: 359 21G<147.5 170 374.5 396.5> 628 20G<332 353.5>
LayerCount: 2
Back
Fore
SplineSet
136 431 m 2
 288 619 l 2
 302 636 321 648 343 648 c 0
 364 648 378 640 385 615 c 2
 439 431 l 2
 442 421 442 412 441 406 c 0
 435 380 410 359 383 359 c 0
 366 359 351 364 347 384 c 2
 318 541 l 1
 208 384 l 2
 195 366 179 359 161 359 c 0
 134 359 118 380 124 406 c 0
 125 414 129 422 136 431 c 2
EndSplineSet
EndChar
StartChar: underscore
Encoding: 95 95 95
Width: 516
Flags: MW
HStem: -51 96<-55 423 -22 403>
LayerCount: 2
Back
Fore
SplineSet
403 -51 m 2
 -42 -51 l 2
 -68 -51 -85 -30 -79 -3 c 0
 -74 23 -49 45 -22 45 c 2
 423 45 l 2
 449 45 466 23 461 -3 c 0
 455 -30 429 -51 403 -51 c 2
EndSplineSet
EndChar
StartChar: grave
Encoding: 96 96 138
Width: 526
Flags: MW
HStem: 521 218<291 373>
LayerCount: 2
Back
Fore
SplineSet
330 536 m 2
 247 647 l 2
 239 657 236 669 239 685 c 0
 245 713 277 739 305 739 c 0
 323 739 336 729 344 717 c 2
 414 598 l 2
 420 586 421 578 419 568 c 0
 413 541 385 521 361 521 c 0
 346 521 337 527 330 536 c 2
EndSplineSet
EndChar
StartChar: a
Encoding: 97 97 66
Width: 1046
GlyphClass: 2
Flags: W
LayerCount: 2
Back
Fore
SplineSet
4 385 m 0,0,1
 12 451 12 451 35.5 524.5 c 128,-1,2
 59 598 59 598 98 668 c 1,3,4
 145 756 145 756 210.5 826.5 c 128,-1,5
 276 897 276 897 354 946 c 1,6,7
 475 1028 475 1028 625 1028 c 0,8,9
 680 1028 680 1028 726 1018 c 128,-1,10
 772 1008 772 1008 807 995.5 c 128,-1,11
 842 983 842 983 863.5 970.5 c 128,-1,12
 885 958 885 958 891 956 c 1,13,14
 900 948 900 948 914 930 c 1,15,16
 922 918 922 918 923 899 c 0,17,18
 923 888 923 888 920 874 c 0,19,20
 918 864 918 864 909.5 826 c 128,-1,21
 901 788 901 788 890 732 c 128,-1,22
 879 676 879 676 864.5 607.5 c 128,-1,23
 850 539 850 539 836 469 c 0,24,25
 801 305 801 305 758 104 c 1,26,-1
 754 82 l 1,27,28
 744 37 744 37 706 5 c 128,-1,29
 668 -27 668 -27 623 -27 c 0,30,31
 586 -27 586 -27 562.5 -5.5 c 128,-1,32
 539 16 539 16 537 51 c 1,33,-1
 532 49 l 2,34,35
 485 31 485 31 428 16.5 c 128,-1,36
 371 2 371 2 317 2 c 2,37,-1
 309 2 l 1,38,39
 153 6 153 6 70 111 c 1,40,41
 1 200 1 200 1 332 c 0,42,43
 1 358 1 358 4 385 c 0,0,1
225 362 m 128,-1,45
 225 330 225 330 237.5 297 c 128,-1,46
 250 264 250 264 277.5 240.5 c 128,-1,47
 305 217 305 217 358 215 c 1,48,-1
 362 215 l 2,49,50
 419 215 419 215 500 252 c 0,51,52
 523 262 523 262 543 272.5 c 128,-1,53
 563 283 563 283 580 293 c 1,54,55
 586 318 586 318 595 362 c 128,-1,56
 604 406 604 406 616.5 461 c 128,-1,57
 629 516 629 516 643 580.5 c 128,-1,58
 657 645 657 645 674 711 c 1,59,60
 678 734 678 734 683 755 c 128,-1,61
 688 776 688 776 692 793 c 1,62,63
 680 797 680 797 667.5 800 c 128,-1,64
 655 803 655 803 641 807 c 1,65,66
 612 813 612 813 584 813 c 2,67,-1
 580 813 l 2,68,69
 510 813 510 813 449 776 c 1,70,71
 390 737 390 737 350.5 688 c 128,-1,72
 311 639 311 639 291 598 c 1,73,74
 264 551 264 551 247.5 501 c 128,-1,75
 231 451 231 451 227 410 c 0,76,44
 225 394 225 394 225 362 c 128,-1,45
EndSplineSet
EndChar
StartChar: b
Encoding: 98 98 67
Width: 1118
GlyphClass: 2
Flags: W
LayerCount: 2
Back
Fore
SplineSet
4 109 m 2,0,-1
 258 1303 l 2,1,2
 268 1350 268 1350 306 1381.5 c 128,-1,3
 344 1413 344 1413 389 1413 c 0,4,5
 434 1414 434 1414 460 1382 c 0,6,7
 478 1359 478 1359 478 1328 c 0,8,9
 478 1316 478 1316 475 1303 c 2,10,-1
 399 948 l 1,11,12
 411 954 411 954 424.5 961.5 c 128,-1,13
 438 969 438 969 451 973 c 1,14,15
 508 998 508 998 567.5 1010 c 128,-1,16
 627 1022 627 1022 684 1022 c 2,17,-1
 719 1022 l 1,18,19
 807 1018 807 1018 862 973 c 1,20,21
 891 953 891 953 911.5 924 c 128,-1,22
 932 895 932 895 948 860 c 1,23,24
 974 789 974 789 974 703 c 0,25,26
 974 635 974 635 958 557 c 0,27,28
 950 522 950 522 934 457.5 c 128,-1,29
 918 393 918 393 879 322 c 1,30,31
 832 232 832 232 764 167 c 128,-1,32
 696 102 696 102 606 57 c 1,33,34
 545 28 545 28 488.5 19 c 128,-1,35
 432 10 432 10 391 10 c 0,36,37
 342 10 342 10 295 18.5 c 128,-1,38
 248 27 248 27 207 39 c 2,39,-1
 188 45 l 1,40,41
 145 -2 145 -2 88 -2 c 0,42,43
 42 -2 42 -2 18 30 c 0,44,45
 1 52 1 52 1 83 c 0,46,47
 1 95 1 95 4 109 c 2,0,-1
252 258 m 1,48,49
 281 248 281 248 325 237.5 c 128,-1,50
 369 227 369 227 422 227 c 0,51,52
 498 227 498 227 553 254 c 0,53,54
 639 295 639 295 686 377 c 1,55,56
 713 420 713 420 726 468 c 128,-1,57
 739 516 739 516 748 557 c 0,58,59
 756 590 756 590 758 635 c 0,60,61
 758 643 758 643 758 650 c 0,62,63
 758 687 758 687 750 721 c 0,64,65
 742 752 742 752 729.5 768 c 128,-1,66
 717 784 717 784 703.5 791.5 c 128,-1,67
 690 799 690 799 679 801 c 128,-1,68
 668 803 668 803 662 803 c 2,69,-1
 643 803 l 2,70,71
 584 803 584 803 528.5 786.5 c 128,-1,72
 473 770 473 770 428 739 c 0,73,74
 342 682 342 682 326 600 c 1,75,-1
 252 258 l 1,48,49
EndSplineSet
EndChar
StartChar: c
Encoding: 99 99 5
Width: 535
Flags: MW
HStem: 0 93<210 255.5 210 257> 0 172<160 411> 349 151<273.5 421> 407 93<280 324>
LayerCount: 2
Back
Fore
SplineSet
350 147 m 0x90
 359 156 375 172 398 172 c 0
 424 172 441 151 435 124 c 0
 432 112 425 102 417 94 c 0
 372 47 294 0 220 0 c 0
 100 0 11 91 38 219 c 0
 48 266 71 310 87 335 c 0
 126 401 224 500 323 500 c 0
 398 500 430 476 460 430 c 0
 467 419 468 408 466 396 c 0
 460 370 434 349 408 349 c 0x60
 391 349 384 354 379 361 c 0
 361 389 343 407 305 407 c 0
 255 407 194 346 166 302 c 0
 148 272 137 243 132 221 c 0
 111 122 193 93 227 93 c 0
 284 93 321 117 350 147 c 0x90
EndSplineSet
EndChar
StartChar: d
Encoding: 100 100 6
Width: 556
Flags: MW
HStem: 0 21G<337.5 365.5> 4 90<158.5 199.5> 403 95<245 315.5> 659 20G<497.5 523.5>
LayerCount: 2
Back
Fore
SplineSet
548 628 m 2x70
 410 46 l 2
 404 20 379 0 352 0 c 0xb0
 323 0 310 22 313 45 c 1
 275 23 227 4 172 4 c 0
 50 4 17 117 41 228 c 0
 71 369 158 498 316 498 c 0
 354 498 389 490 415 481 c 1
 451 630 l 2
 458 657 484 679 511 679 c 0
 536 679 555 655 548 628 c 2x70
138 231 m 0
 125 174 126 94 191 94 c 0x70
 272 94 339 148 344 170 c 2
 392 377 l 1
 372 387 334 403 297 403 c 0
 193 403 152 301 138 231 c 0
EndSplineSet
EndChar
StartChar: e
Encoding: 101 101 7
Width: 547
Flags: MW
HStem: 0 93<232.5 273> 0 151<166 419.5> 405 94<267.5 329>
LayerCount: 2
Back
Fore
SplineSet
369 135 m 0xa0
 380 144 393 151 406 151 c 0x60
 433 151 448 131 443 104 c 0
 440 92 433 81 424 74 c 0
 380 33 304 0 242 0 c 0
 90 0 18 114 44 239 c 0
 73 376 189 499 326 499 c 0
 458 499 497 402 487 355 c 0
 483 338 470 321 446 309 c 2
 145 155 l 1
 166 114 204 93 261 93 c 0
 294 93 342 112 369 135 c 0xa0
137 247 m 1
 390 372 l 1
 378 394 352 405 306 405 c 0
 229 405 160 335 137 247 c 1
EndSplineSet
EndChar
StartChar: f
Encoding: 102 102 71
Width: 724
GlyphClass: 2
Flags: W
LayerCount: 2
Back
Fore
SplineSet
4 109 m 2,0,-1
 156 821 l 1,1,-1
 102 821 l 2,2,3
 59 821 59 821 34 852 c 0,4,5
 17 874 17 874 17 902 c 0,6,7
 17 914 17 914 20 926 c 0,8,9
 30 969 30 969 66 999.5 c 128,-1,10
 102 1030 102 1030 145 1030 c 2,11,-1
 201 1030 l 1,12,13
 240 1173 240 1173 328 1257 c 0,14,15
 451 1374 451 1374 664 1374 c 2,16,-1
 688 1374 l 1,17,-1
 700 1374 l 2,18,19
 743 1374 743 1374 768 1344 c 1,20,21
 785 1322 785 1322 785 1295 c 0,22,23
 785 1283 785 1283 782 1270 c 0,24,25
 772 1227 772 1227 735 1196 c 128,-1,26
 698 1165 698 1165 655 1165 c 2,27,-1
 647 1165 l 2,28,29
 629 1165 629 1165 604.5 1164 c 128,-1,30
 580 1163 580 1163 556 1158 c 128,-1,31
 532 1153 532 1153 510.5 1145 c 128,-1,32
 489 1137 489 1137 475 1124 c 0,33,34
 446 1095 446 1095 426 1030 c 1,35,-1
 573 1030 l 2,36,37
 616 1030 616 1030 642 1000 c 0,38,39
 660 978 660 978 660 950 c 0,40,41
 660 939 660 939 657 926 c 0,42,43
 647 883 647 883 610 852 c 128,-1,44
 573 821 573 821 530 821 c 2,45,-1
 373 821 l 1,46,-1
 221 109 l 2,47,48
 211 64 211 64 173 32 c 128,-1,49
 135 0 135 0 90 0 c 256,50,51
 45 0 45 0 20 32 c 1,52,53
 1 54 1 54 1 84 c 0,54,55
 1 96 1 96 4 109 c 2,0,-1
EndSplineSet
EndChar
StartChar: g
Encoding: 103 103 9
Width: 547
Flags: MW
HStem: -168 96<157.5 210.5 157.5 211.5> -168 109<55.5 211.5> 9 94<172 216.5> 404 96<278.5 332> 490 20G<455 481>
LayerCount: 2
Back
Fore
SplineSet
37 -154 m 0xa8
 17 -149 5 -130 10 -107 c 0
 15 -80 43 -59 68 -59 c 0x70
 78 -59 90 -61 101 -64 c 0
 125 -70 144 -72 171 -72 c 0
 250 -72 290 -27 308 45 c 1
 274 24 236 9 197 9 c 0
 80 9 15 105 44 242 c 0
 72 374 202 500 337 500 c 0xb0
 368 500 395 491 416 482 c 1
 425 500 442 510 468 510 c 0
 494 510 513 498 504 461 c 2
 405 39 l 2
 371 -104 271 -168 152 -168 c 0
 107 -168 65 -161 37 -154 c 0xa8
362 265 m 2
 388 386 l 1
 372 396 344 404 320 404 c 0
 237 404 154 333 134 238 c 0
 122 182 134 103 210 103 c 0
 262 103 334 133 362 265 c 2
EndSplineSet
EndChar
StartChar: h
Encoding: 104 104 3
Width: 529
Flags: MW
HStem: -1 21G<40.5 66> 0 21G<339.5 367> 406 95<337.5 352.5> 652 20G<182.5 210.5>
LayerCount: 2
Back
Fore
SplineSet
410 45 m 0xb0
 404 20 380 0 354 0 c 0x70
 325 0 311 21 316 47 c 0
 322 73 330 100 343 163 c 0
 389 380 364 406 341 406 c 0
 276 406 191 297 171 269 c 0
 157 249 149 225 144 198 c 2
 112 49 l 2
 105 17 79 -1 53 -1 c 0
 28 -1 10 22 15 47 c 2
 138 623 l 2
 143 649 169 672 196 672 c 0
 225 672 239 649 234 623 c 2
 188 408 l 1
 241 461 308 501 367 501 c 0
 475 501 487 391 440 170 c 0
 427 109 419 73 410 45 c 0xb0
EndSplineSet
EndChar
StartChar: i
Encoding: 105 105 10
Width: 245
Flags: MW
HStem: 0 21G<44.5 71.5> 541 133<164 221>
LayerCount: 2
Back
Fore
SplineSet
207 447 m 2
 117 49 l 2
 111 22 85 0 58 0 c 0
 31 0 13 22 19 49 c 2
 109 447 l 2
 114 474 141 496 168 496 c 0
 196 496 212 474 207 447 c 2
177 541 m 0
 151 541 134 564 141 590 c 2
 150 627 l 2
 156 653 183 674 208 674 c 0
 234 674 251 650 245 626 c 2
 235 588 l 2
 229 561 204 541 177 541 c 0
EndSplineSet
EndChar
StartChar: j
Encoding: 106 106 11
Width: 359
Flags: MW
HStem: -164 91<64 96 64 117> -164 209<-24.5 117> 481 20G<264.5 291.5> 549 133<278 341.5>
LayerCount: 2
Back
Fore
SplineSet
29 11 m 0x70
 33 -24 49 -73 79 -73 c 0xb0
 113 -73 128 -10 134 16 c 0
 136 28 154 122 174 220 c 0
 196 328 217 437 221 452 c 0
 227 480 250 501 279 501 c 0
 304 501 322 479 317 453 c 0
 315 445 299 362 281 272 c 0
 260 164 233 35 230 21 c 0
 216 -45 172 -164 62 -164 c 0
 -42 -164 -66 -43 -69 -20 c 0
 -69 -16 -69 -9 -68 -3 c 0
 -63 22 -39 45 -10 45 c 0
 15 45 27 31 29 11 c 0x70
363 631 m 2
 349 588 l 2
 342 562 313 549 292 549 c 0
 264 549 250 574 257 599 c 2
 270 642 l 2
 278 667 303 682 326 682 c 0
 357 682 370 655 363 631 c 2
EndSplineSet
EndChar
StartChar: k
Encoding: 107 107 76
Width: 1056
GlyphClass: 2
Flags: W
LayerCount: 2
Back
Fore
SplineSet
4 111 m 2,0,-1
 254 1303 l 2,1,2
 264 1350 264 1350 301 1381.5 c 128,-1,3
 338 1413 338 1413 385 1413 c 1,4,5
 430 1414 430 1414 456 1382 c 0,6,7
 474 1359 474 1359 474 1328 c 0,8,9
 474 1316 474 1316 471 1303 c 2,10,-1
 336 659 l 1,11,12
 373 688 373 688 416 721 c 128,-1,13
 459 754 459 754 506 793 c 0,14,15
 543 824 543 824 593 867.5 c 128,-1,16
 643 911 643 911 688 952 c 0,17,18
 741 999 741 999 797 1051 c 1,19,20
 832 1086 832 1086 876 1092 c 0,21,22
 884 1093 884 1093 891 1093 c 0,23,24
 925 1093 925 1093 948 1069 c 0,25,26
 973 1044 973 1044 973 1006 c 0,27,28
 973 1001 973 1001 973 996 c 0,29,30
 969 952 969 952 934 918 c 1,31,32
 862 852 862 852 797 793 c 0,33,34
 742 742 742 742 684.5 691.5 c 128,-1,35
 627 641 627 641 592 612 c 1,36,37
 602 596 602 596 614.5 572.5 c 128,-1,38
 627 549 627 549 643 522 c 0,39,40
 666 481 666 481 698.5 424 c 128,-1,41
 731 367 731 367 762 313 c 1,42,43
 799 252 799 252 836 188 c 0,44,45
 850 165 850 165 850 140 c 0,46,47
 850 122 850 122 843 103 c 0,48,49
 827 57 827 57 782 27 c 1,50,51
 747 2 747 2 710 2 c 0,52,53
 704 2 704 2 697 3 c 0,54,55
 653 8 653 8 631 47 c 1,56,57
 590 127 590 127 553 199 c 1,58,59
 520 260 520 260 486.5 323.5 c 128,-1,60
 453 387 453 387 430 424 c 1,61,62
 420 438 420 438 413 452.5 c 128,-1,63
 406 467 406 467 397 477 c 1,64,65
 364 457 364 457 334.5 438.5 c 128,-1,66
 305 420 305 420 283 408 c 1,67,-1
 221 111 l 2,68,69
 211 64 211 64 173 32 c 128,-1,70
 135 0 135 0 90 0 c 0,71,72
 42 0 42 0 18 32 c 0,73,74
 1 54 1 54 1 85 c 0,75,76
 1 97 1 97 4 111 c 2,0,-1
EndSplineSet
EndChar
StartChar: l
Encoding: 108 108 77
Width: 520
GlyphClass: 2
Flags: W
LayerCount: 2
Back
Fore
SplineSet
4 109 m 2,0,-1
 258 1303 l 2,1,2
 268 1348 268 1348 306 1379.5 c 128,-1,3
 344 1411 344 1411 389 1411 c 0,4,5
 436 1412 436 1412 460 1380 c 0,6,7
 477 1358 477 1358 478 1328 c 0,8,9
 478 1316 478 1316 475 1303 c 2,10,-1
 221 109 l 2,11,12
 211 62 211 62 174 31 c 128,-1,13
 137 0 137 0 90 0 c 0,14,15
 46 0 46 0 20 30 c 0,16,17
 2 52 2 52 1 83 c 0,18,19
 1 95 1 95 4 109 c 2,0,-1
EndSplineSet
EndChar
StartChar: m
Encoding: 109 109 78
Width: 1634
GlyphClass: 2
Flags: W
LayerCount: 2
Back
Fore
SplineSet
4 109 m 2,0,-1
 176 920 l 2,1,2
 186 965 186 965 224 996.5 c 128,-1,3
 262 1028 262 1028 307 1028 c 256,4,5
 352 1028 352 1028 378 996 c 0,6,7
 396 973 396 973 396 944 c 0,8,9
 396 932 396 932 393 920 c 2,10,-1
 387 887 l 1,11,12
 407 905 407 905 426.5 920.5 c 128,-1,13
 446 936 446 936 467 952 c 0,14,15
 602 1050 602 1050 709 1051 c 0,16,17
 811 1051 811 1051 866 1001 c 1,18,19
 911 964 911 964 930 905 c 1,20,21
 987 952 987 952 1049 987 c 0,22,23
 1164 1050 1164 1050 1253 1051 c 1,24,25
 1382 1051 1382 1051 1442 969 c 1,26,27
 1491 906 1491 906 1491 797 c 0,28,29
 1491 735 1491 735 1475 659 c 2,30,-1
 1358 109 l 2,31,32
 1348 64 1348 64 1310 32 c 128,-1,33
 1272 0 1272 0 1227 0 c 256,34,35
 1182 0 1182 0 1156 32 c 0,36,37
 1138 54 1138 54 1138 83 c 0,38,39
 1138 95 1138 95 1141 109 c 2,40,-1
 1260 672 l 1,41,42
 1268 705 1268 705 1272 754 c 0,43,44
 1273 764 1273 764 1273 773 c 0,45,46
 1273 809 1273 809 1260 829 c 1,47,48
 1244 847 1244 847 1208 848 c 0,49,50
 1183 848 1183 848 1138.5 829.5 c 128,-1,51
 1094 811 1094 811 1047 776 c 0,52,53
 1008 747 1008 747 968 699 c 128,-1,54
 928 651 928 651 913 580 c 2,55,-1
 813 109 l 2,56,57
 803 64 803 64 765 32 c 128,-1,58
 727 0 727 0 682 0 c 0,59,60
 638 0 638 0 612 32 c 0,61,62
 594 55 594 55 593 84 c 0,63,64
 593 96 593 96 596 109 c 2,65,-1
 715 672 l 1,66,67
 723 705 723 705 727 754 c 0,68,69
 728 764 728 764 728 773 c 0,70,71
 728 809 728 809 715 829 c 1,72,73
 699 847 699 847 664 848 c 0,74,75
 629 848 629 848 541 791.5 c 128,-1,76
 453 735 453 735 338 594 c 0,77,78
 328 582 328 582 321.5 566.5 c 128,-1,79
 315 551 315 551 313 545 c 2,80,-1
 221 109 l 2,81,82
 211 64 211 64 173 32 c 128,-1,83
 135 0 135 0 90 0 c 0,84,85
 46 0 46 0 20 32 c 0,86,87
 2 55 2 55 1 84 c 0,88,89
 1 96 1 96 4 109 c 2,0,-1
EndSplineSet
EndChar
StartChar: n
Encoding: 110 110 15
Width: 561
Flags: MW
HStem: 0 21G<42 70 360 386.5> 404 95<340 365> 480 20G<150 175.5>
LayerCount: 2
Back
Fore
SplineSet
199 452 m 2xa0
 186 395 l 1
 236 451 306 499 374 499 c 0
 507 499 505 392 454 161 c 2
 429 48 l 2
 423 23 400 0 373 0 c 0
 347 0 329 23 334 47 c 2
 362 178 l 2
 409 398 381 404 349 404 c 0xc0
 317 404 274 387 214 308 c 0
 173 254 143 194 130 134 c 2
 112 50 l 2
 106 22 85 0 55 0 c 0
 29 0 11 22 16 46 c 2
 103 452 l 2
 108 479 137 500 163 500 c 0
 188 500 204 479 199 452 c 2xa0
EndSplineSet
EndChar
StartChar: o
Encoding: 111 111 80
Width: 1060
GlyphClass: 2
Flags: W
LayerCount: 2
Back
Fore
SplineSet
4 294 m 0,0,1
 0 326 0 326 0 360 c 0,2,3
 0 436 0 436 23 520 c 1,4,5
 52 620 52 620 109 711.5 c 128,-1,6
 166 803 166 803 250 874 c 1,7,8
 334 948 334 948 425 987 c 128,-1,9
 516 1026 516 1026 604 1026 c 0,10,11
 682 1026 682 1026 747.5 997.5 c 128,-1,12
 813 969 813 969 858 911 c 1,13,14
 920 835 920 835 934 730 c 0,15,16
 938 698 938 698 938 665 c 0,17,18
 938 589 938 589 915 506 c 0,19,20
 886 404 886 404 828 312.5 c 128,-1,21
 770 221 770 221 688 150 c 0,22,23
 604 76 604 76 513 37 c 128,-1,24
 422 -2 422 -2 332 -2 c 0,25,26
 254 -2 254 -2 189.5 27.5 c 128,-1,27
 125 57 125 57 78 115 c 0,28,29
 18 189 18 189 4 294 c 0,0,1
224 364 m 0,30,31
 230 298 230 298 264 256 c 1,32,33
 284 227 284 227 313 215 c 128,-1,34
 342 203 342 203 377 203 c 0,35,36
 420 203 420 203 468 225.5 c 128,-1,37
 516 248 516 248 563 293 c 256,38,39
 610 338 610 338 646 397.5 c 128,-1,40
 682 457 682 457 698 520 c 1,41,42
 712 568 712 568 712 616 c 0,43,44
 712 636 712 636 709 658 c 0,45,46
 700 726 700 726 666 772 c 1,47,48
 621 823 621 823 553 823 c 0,49,50
 463 823 463 823 373 733 c 1,51,52
 326 688 326 688 291 628.5 c 128,-1,53
 256 569 256 569 238 506 c 1,54,55
 223 449 223 449 223 397 c 1,56,57
 222 380 222 380 224 364 c 0,30,31
EndSplineSet
EndChar
StartChar: p
Encoding: 112 112 81
Width: 1075
GlyphClass: 2
Flags: W
LayerCount: 2
Back
Fore
SplineSet
-78 -260 m 2,0,-1
 172 918 l 2,1,2
 182 963 182 963 220 994.5 c 128,-1,3
 258 1026 258 1026 303 1026 c 0,4,5
 342 1026 342 1026 365.5 1001.5 c 128,-1,6
 389 977 389 977 391 942 c 1,7,-1
 393 942 l 1,8,9
 524 1010 524 1010 668 1010 c 2,10,-1
 690 1010 l 1,11,12
 776 1006 776 1006 838 961 c 0,13,14
 895 920 895 920 922 848 c 1,15,16
 949 787 949 787 952 710 c 0,17,18
 952 701 952 701 952 691 c 0,19,20
 952 623 952 623 936 547 c 0,21,22
 928 508 928 508 911.5 446.5 c 128,-1,23
 895 385 895 385 858 313 c 0,24,25
 766 139 766 139 588 53 c 1,26,27
 490 4 490 4 375 4 c 0,28,29
 326 4 326 4 282 12 c 128,-1,30
 238 20 238 20 201 33 c 1,31,-1
 139 -260 l 2,32,33
 129 -305 129 -305 90 -337 c 128,-1,34
 51 -369 51 -369 6 -369 c 256,35,36
 -39 -369 -39 -369 -64 -337 c 0,37,38
 -81 -314 -81 -314 -81 -285 c 0,39,40
 -81 -273 -81 -273 -78 -260 c 2,0,-1
250 264 m 1,41,42
 279 250 279 250 326 236.5 c 128,-1,43
 373 223 373 223 426 223 c 0,44,45
 487 223 487 223 537 246 c 0,46,47
 621 285 621 285 670 369 c 1,48,49
 697 412 697 412 710 459 c 128,-1,50
 723 506 723 506 731 547 c 1,51,52
 737 572 737 572 740 614 c 0,53,54
 741 629 741 629 741 643 c 0,55,56
 741 671 741 671 737 699 c 0,57,58
 731 741 731 741 710.5 772 c 128,-1,59
 690 803 690 803 647 805 c 1,60,-1
 629 805 l 2,61,62
 523 805 523 805 428 752 c 1,63,64
 395 736 395 736 372.5 717 c 128,-1,65
 350 698 350 698 340 686 c 1,66,-1
 250 264 l 1,41,42
EndSplineSet
EndChar
StartChar: q
Encoding: 113 113 18
Width: 540
Flags: MW
HStem: -172 21G<278.5 307> -5 90<184 223> 399 91<293 351> 496 20G<453 475>
LayerCount: 2
Back
Fore
SplineSet
259 -120 m 2
 293 17 l 1
 270 4 242 -5 204 -5 c 0
 76 -5 11 90 37 214 c 0
 73 382 204 490 365 490 c 0
 380 490 396 489 412 487 c 1
 423 504 443 516 463 516 c 0
 487 516 507 500 499 468 c 2
 352 -124 l 2
 344 -157 320 -172 294 -172 c 0
 263 -172 252 -146 259 -120 c 2
215 85 m 0
 274 85 318 116 332 173 c 2
 388 396 l 1
 373 398 357 399 345 399 c 0
 241 399 153 332 128 213 c 0
 112 138 153 85 215 85 c 0
EndSplineSet
EndChar
StartChar: r
Encoding: 114 114 83
Width: 919
GlyphClass: 2
Flags: W
LayerCount: 2
Back
Fore
SplineSet
4 106 m 2,0,-1
 178 932 l 2,1,2
 188 979 188 979 226 1009.5 c 128,-1,3
 264 1040 264 1040 309 1040 c 0,4,5
 356 1040 356 1040 381 1010 c 0,6,7
 398 989 398 989 398 959 c 0,8,9
 398 946 398 946 395 932 c 1,10,-1
 393 915 l 1,11,12
 428 946 428 946 470 971.5 c 128,-1,13
 512 997 512 997 553 1010 c 0,14,15
 614 1030 614 1030 666 1030 c 0,16,17
 746 1030 746 1030 793 987 c 0,18,19
 822 960 822 960 833 922 c 0,20,21
 839 902 839 902 839 882 c 0,22,23
 839 863 839 863 834 844 c 0,24,25
 832 836 832 836 827 811 c 0,26,27
 825 799 825 799 821 784 c 0,28,29
 811 741 811 741 774 709.5 c 128,-1,30
 737 678 737 678 692 678 c 0,31,32
 646 678 646 678 622 710 c 0,33,34
 605 732 605 732 605 760 c 0,35,36
 605 771 605 771 608 784 c 1,37,38
 608 790 608 790 610 799 c 2,39,40
 610 799 610 799 614 815 c 1,41,-1
 610 815 l 2,42,43
 606 815 606 815 597 814 c 128,-1,44
 588 813 588 813 571 809 c 0,45,46
 534 799 534 799 486 763 c 128,-1,47
 438 727 438 727 395 678 c 256,48,49
 352 629 352 629 335.5 595 c 128,-1,50
 319 561 319 561 315 553 c 1,51,-1
 221 106 l 2,52,53
 211 61 211 61 173 29.5 c 128,-1,54
 135 -2 135 -2 88 -2 c 0,55,56
 42 -2 42 -2 18 30 c 0,57,58
 1 52 1 52 1 81 c 0,59,60
 1 93 1 93 4 106 c 2,0,-1
EndSplineSet
EndChar
StartChar: s
Encoding: 115 115 20
Width: 484
Flags: MW
HStem: -2 92<175 231 175 233.5> -2 188<65 233.5> 310 189<265 393> 410 89<265 309>
LayerCount: 2
Back
Fore
SplineSet
116 153 m 0x50
 121 114 151 90 199 90 c 0
 263 90 292 131 296 150 c 0
 303 179 290 195 220 218 c 0
 119 251 80 292 96 368 c 0
 118 472 228 499 302 499 c 0
 408 499 454 450 438 374 c 0
 429 332 410 310 376 310 c 0xa0
 344 310 334 332 339 357 c 0
 340 362 343 367 344 375 c 0
 348 395 333 410 285 410 c 0
 234 410 194 393 189 367 c 0
 181 332 229 318 257 309 c 0
 344 279 412 256 389 149 c 0
 374 77 288 -2 179 -2 c 0
 52 -2 13 102 21 139 c 0
 27 165 52 186 78 186 c 0
 101 186 114 172 116 153 c 0x50
EndSplineSet
EndChar
StartChar: t
Encoding: 116 116 21
Width: 413
Flags: MW
HStem: -1 21G<128.5 154> 403 97<81.5 200 118 179 296 360 118 275> 636 20G<267.5 295.5>
LayerCount: 2
Back
Fore
SplineSet
296 500 m 1
 381 500 l 2
 408 500 424 479 418 451 c 0
 413 426 387 403 360 403 c 2
 275 403 l 1
 199 46 l 2
 194 20 167 -1 141 -1 c 0
 116 -1 98 20 103 46 c 2
 179 403 l 1
 95 403 l 2
 68 403 52 426 57 451 c 0
 64 481 92 500 118 500 c 2
 200 500 l 1
 223 607 l 2
 228 632 254 656 281 656 c 0
 310 656 324 632 319 607 c 2
 296 500 l 1
EndSplineSet
EndChar
StartChar: u
Encoding: 117 117 22
Width: 538
Flags: MW
HStem: -3 90<167 191.5> 0 21G<336.5 363> 480 20G<158.5 183.5 444 468.5>
LayerCount: 2
Back
Fore
SplineSet
494 454 m 2xa0
 408 48 l 2
 402 23 376 0 350 0 c 0x60
 323 0 307 17 307 40 c 1
 268 16 217 -3 166 -3 c 0
 67 -3 13 22 68 287 c 0
 82 360 100 414 113 449 c 0
 128 492 146 500 171 500 c 0
 196 500 216 485 209 453 c 0
 207 445 205 439 202 431 c 0
 193 401 175 351 162 288 c 0
 125 114 149 87 185 87 c 0
 239 87 304 125 325 144 c 0
 330 148 334 158 336 169 c 2
 399 454 l 2
 405 481 432 500 456 500 c 0
 481 500 500 481 494 454 c 2xa0
EndSplineSet
EndChar
StartChar: v
Encoding: 118 118 87
Width: 985
GlyphClass: 2
Flags: W
LayerCount: 2
Back
Fore
SplineSet
84 872 m 2,0,1
 82 882 82 882 82 891 c 0,2,3
 82 923 82 923 102 956 c 0,4,5
 128 999 128 999 174 1016 c 0,6,7
 195 1023 195 1023 214 1023 c 0,8,9
 236 1024 236 1024 256 1014 c 0,10,11
 293 996 293 996 303 954 c 1,12,-1
 397 375 l 1,13,-1
 741 954 l 2,14,15
 764 994 764 994 808 1014 c 0,16,17
 832 1025 832 1025 855 1025 c 0,18,19
 874 1025 874 1025 893 1018 c 0,20,21
 932 1002 932 1002 941 960 c 0,22,23
 943 949 943 949 943 937 c 0,24,25
 943 907 943 907 926 877 c 2,26,-1
 449 82 l 1,27,28
 431 47 431 47 395.5 23.5 c 128,-1,29
 360 0 360 0 319 0 c 256,30,31
 278 0 278 0 250.5 24.5 c 128,-1,32
 223 49 223 49 219 86 c 1,33,-1
 84 872 l 2,0,1
EndSplineSet
EndChar
StartChar: w
Encoding: 119 119 24
Width: 620
Flags: MW
HStem: 0 21G<78 102.5 336.5 360> 479 20G<572 595.5> 480 20G<98 124 336 359>
VStem: 52 95 302 88
LayerCount: 2
Back
Fore
SplineSet
393 202 m 1xb8
 528 462 l 2
 538 482 561 499 583 499 c 0xd8
 608 499 627 480 621 454 c 0
 619 446 617 441 614 435 c 2
 401 36 l 2
 390 15 372 0 348 0 c 0
 325 0 310 11 308 37 c 2
 297 299 l 1
 145 35 l 2
 132 12 113 0 92 0 c 0
 64 0 52 15 52 39 c 2
 53 434 l 2
 53 444 53 450 55 458 c 0
 59 479 85 500 111 500 c 0
 137 500 150 483 149 460 c 2
 146 207 l 1
 291 465 l 2
 303 486 325 500 347 500 c 0
 371 500 386 489 387 465 c 2
 393 202 l 1xb8
EndSplineSet
EndChar
StartChar: x
Encoding: 120 120 89
Width: 1165
GlyphClass: 2
Flags: W
LayerCount: 2
Back
Fore
SplineSet
-79 106 m 0,0,1
 -70 150 -70 150 -33 182 c 2,2,-1
 387 535 l 1,3,-1
 193 846 l 2,4,5
 179 868 179 868 179 894 c 1,6,7
 180 909 180 909 184 925 c 1,8,9
 198 969 198 969 238 997 c 0,10,11
 275 1023 275 1023 315 1023 c 0,12,13
 319 1023 319 1023 323 1023 c 0,14,15
 367 1020 367 1020 389 985 c 2,16,-1
 571 682 l 1,17,-1
 930 991 l 2,18,19
 969 1024 969 1024 1013.5 1024 c 128,-1,20
 1058 1024 1058 1024 1085 993 c 1,21,22
 1103 969 1103 969 1103 939 c 0,23,24
 1103 928 1103 928 1101 916 c 0,25,26
 1092 872 1092 872 1055 840 c 2,27,-1
 678 524 l 1,28,-1
 895 176 l 2,29,30
 909 154 909 154 909 128 c 1,31,32
 908 113 908 113 904 97 c 1,33,34
 890 53 890 53 850 25 c 0,35,36
 813 -1 813 -1 773 -1 c 0,37,38
 769 -1 769 -1 765 -1 c 0,39,40
 721 2 721 2 698 37 c 1,41,-1
 494 375 l 1,42,-1
 90 31 l 2,43,44
 51 -2 51 -2 6 -2 c 128,-1,45
 -39 -2 -39 -2 -61 31 c 1,46,47
 -81 54 -81 54 -81 85 c 0,48,49
 -81 95 -81 95 -79 106 c 0,0,1
EndSplineSet
EndChar
StartChar: y
Encoding: 121 121 90
Width: 972
GlyphClass: 2
Flags: W
LayerCount: 2
Back
Fore
SplineSet
-20 -264 m 0,0,1
 -21 -255 -21 -255 -21 -246 c 0,2,3
 -21 -213 -21 -213 2 -180 c 2,4,-1
 240 172 l 1,5,-1
 43 868 l 2,6,7
 39 882 39 882 39 896 c 0,8,9
 39 923 39 923 54 951 c 0,10,11
 78 993 78 993 123 1014 c 1,12,13
 147 1024 147 1024 170 1024 c 0,14,15
 188 1024 188 1024 206 1018 c 0,16,17
 246 1004 246 1004 256 963 c 1,18,-1
 410 424 l 1,19,-1
 772 958 l 2,20,21
 799 999 799 999 843 1016 c 0,22,23
 865 1024 865 1024 886 1024 c 256,24,25
 907 1024 907 1024 926 1016 c 1,26,27
 963 998 963 998 971 956 c 0,28,29
 973 946 973 946 973 936 c 0,30,31
 973 904 973 904 952 872 c 2,32,-1
 180 -270 l 2,33,34
 153 -311 153 -311 108 -326 c 0,35,36
 87 -334 87 -334 68 -334 c 0,37,38
 46 -334 46 -334 27 -324 c 1,39,40
 -12 -306 -12 -306 -20 -264 c 0,0,1
EndSplineSet
EndChar
StartChar: z
Encoding: 122 122 27
Width: 515
Flags: MW
HStem: 0 96<145 351> 404 97<111.5 453 146 337>
LayerCount: 2
Back
Fore
SplineSet
8 77 m 2
 337 404 l 1
 125 404 l 2
 98 404 82 425 88 452 c 0
 93 478 119 501 146 501 c 2
 453 501 l 2
 483 501 496 478 491 452 c 0
 488 441 485 433 474 423 c 2
 145 96 l 1
 371 96 l 2
 397 96 414 74 409 48 c 0
 403 23 377 0 351 0 c 2
 30 0 l 2
 -2 0 -14 23 -8 48 c 0
 -7 56 -2 67 8 77 c 2
EndSplineSet
EndChar
StartChar: braceleft
Encoding: 123 123 83
Width: 402
Flags: MW
HStem: -113 893
VStem: 65 151 75 186
LayerCount: 2
Back
Fore
SplineSet
103 383 m 0xc0
 146 403 159 423 166 452 c 2
 202 624 l 2
 224 726 318 769 385 779 c 0
 419 785 436 760 430 732 c 0
 425 707 407 691 378 685 c 0
 352 680 305 665 296 624 c 2
 260 453 l 2
 250 406 226 368 194 340 c 1
 211 312 222 273 212 228 c 2
 173 43 l 2xc0
 164 2 205 -14 230 -18 c 0
 253 -23 266 -42 261 -65 c 0
 253 -99 223 -118 190 -112 c 0xa0
 129 -99 57 -59 79 43 c 2
 118 229 l 2
 126 264 110 287 87 297 c 0
 65 305 61 320 65 339 c 0
 70 364 79 373 103 383 c 0xc0
EndSplineSet
EndChar
StartChar: bar
Encoding: 124 124 93
Width: 219
Flags: MW
HStem: -153 21G<4 30.5> 788 20G<208 234.5>
LayerCount: 2
Back
Fore
SplineSet
17 -153 m 0
 -9 -153 -28 -132 -22 -104 c 2
 162 760 l 2
 168 786 195 808 221 808 c 0
 248 808 265 786 259 760 c 2
 75 -104 l 2
 69 -132 44 -153 17 -153 c 0
EndSplineSet
EndChar
StartChar: braceright
Encoding: 125 125 82
Width: 402
Flags: MW
HStem: -113 893
VStem: 148 186 193 151
LayerCount: 2
Back
Fore
SplineSet
306 284 m 0xa0
 263 264 249 244 243 215 c 2
 207 43 l 2
 185 -59 91 -102 24 -112 c 0
 -11 -118 -27 -93 -21 -65 c 0
 -16 -40 1 -24 31 -18 c 0
 57 -13 104 2 113 43 c 2
 149 214 l 2
 159 261 183 299 215 327 c 1
 198 355 187 394 197 439 c 2
 236 624 l 2xa0
 245 665 204 681 179 685 c 0
 156 690 143 709 148 732 c 0
 155 766 185 785 219 779 c 0xc0
 279 766 352 726 330 624 c 2
 291 438 l 2
 283 403 299 380 322 370 c 0
 343 362 348 347 344 328 c 0
 339 303 330 294 306 284 c 0xa0
EndSplineSet
EndChar
StartChar: asciitilde
Encoding: 126 126 89
Width: 666
Flags: MW
HStem: 136 95<391.5 419 391.5 428> 136 212<346 554> 167 198<77 277> 271 94<206 232.5>
LayerCount: 2
Back
Fore
SplineSet
570 280 m 0x40
 541 232 476 136 380 136 c 0
 312 136 289 182 268 223 c 0
 253 253 242 271 223 271 c 0x90
 189 271 157 229 143 201 c 0
 132 181 114 167 90 167 c 0
 64 167 48 188 54 214 c 0
 55 221 58 226 62 233 c 0
 103 304 163 365 243 365 c 0x20
 311 365 336 320 356 279 c 0
 371 249 382 231 401 231 c 0x90
 437 231 469 282 486 310 c 0
 501 335 521 348 541 348 c 0
 567 348 584 327 578 301 c 0
 577 296 575 287 570 280 c 0x40
EndSplineSet
EndChar
StartChar: exclamdown
Encoding: 161 161 145
Width: 222
Flags: MW
HStem: -179 21G<-13 14.5> 375 121<104.5 168.5>
LayerCount: 2
Back
Fore
SplineSet
148 279 m 2
 61 -129 l 2
 56 -155 28 -179 1 -179 c 0
 -27 -179 -42 -155 -37 -129 c 2
 50 279 l 2
 56 306 81 328 109 328 c 0
 136 328 154 306 148 279 c 2
80 431 m 0
 88 468 124 496 153 496 c 0
 184 496 200 471 193 440 c 0
 186 406 150 375 120 375 c 0
 89 375 74 402 80 431 c 0
EndSplineSet
EndChar
StartChar: cent
Encoding: 162 162 99
Width: 582
Flags: MW
HStem: 0 21G<204 229.5> 439 234<364.5 464>
LayerCount: 2
Back
Fore
SplineSet
439 262 m 0
 465 262 481 239 476 213 c 0
 473 202 468 193 459 184 c 0
 412 135 352 96 283 91 c 1
 271 45 l 2
 265 20 242 0 217 0 c 0
 191 0 174 22 180 46 c 2
 194 99 l 1
 72 139 66 244 80 308 c 0
 102 413 192 534 309 579 c 1
 321 628 l 2
 327 653 353 673 376 673 c 0
 402 673 418 650 412 627 c 2
 401 587 l 1
 454 573 515 521 508 486 c 0
 502 460 477 439 451 439 c 0
 434 439 423 443 416 455 c 0
 407 472 394 484 379 491 c 1
 305 186 l 1
 340 193 369 213 394 238 c 0
 402 245 415 262 439 262 c 0
174 310 m 0
 165 264 182 219 216 195 c 1
 284 477 l 1
 215 430 182 347 174 310 c 0
EndSplineSet
EndChar
StartChar: sterling
Encoding: 163 163 98
Width: 770
Flags: MW
HStem: -9 94<454.5 488 454.5 492> -9 197<427 624> 0 21G<101 120> 297 95<107.5 196 141 196 141 197 292 468> 463 242<426 637> 610 95<429 512>
VStem: 580 97
LayerCount: 2
Back
Fore
SplineSet
609 188 m 0x5a
 639 188 651 164 646 138 c 0
 631 67 531 -9 453 -9 c 0x5a
 401 -9 344 13 301 51 c 0
 291 60 277 64 264 64 c 0
 226 64 187 38 160 21 c 0
 140 8 126 0 114 0 c 0x3a
 88 0 71 21 76 47 c 0
 80 63 91 77 104 85 c 0
 151 118 185 174 194 214 c 0
 199 237 202 264 197 297 c 1
 121 297 l 2
 94 297 78 320 83 344 c 0
 88 371 114 392 141 392 c 2
 196 392 l 1
 197 414 202 439 206 461 c 0
 241 623 341 705 511 705 c 0
 641 705 675 602 677 525 c 0
 678 492 655 463 619 463 c 0x9a
 594 463 580 480 580 506 c 0
 581 569 545 610 479 610 c 0
 379 610 324 565 301 461 c 0
 297 441 294 418 292 392 c 1
 488 392 l 2
 514 392 530 371 525 344 c 0
 520 320 494 297 468 297 c 2
 292 297 l 1
 293 271 295 243 289 214 c 0
 286 198 280 179 271 159 c 1
 284 159 l 2
 319 159 349 148 373 126 c 0
 403 100 438 85 471 85 c 0x96
 505 85 535 106 553 145 c 0
 566 172 584 188 609 188 c 0x5a
EndSplineSet
EndChar
StartChar: currency
Encoding: 164 164 205
Width: 543
Flags: MW
HStem: 40 21G<35 53.5 373.5 393> 83 91<220.5 237> 326 92<278.5 295> 444 20G<124.5 143.5 463 482>
LayerCount: 2
Back
Fore
SplineSet
389 171 m 1
 429 119 l 2
 436 110 437 97 435 86 c 0
 430 63 407 40 379 40 c 0
 368 40 357 46 350 54 c 2
 310 104 l 1
 282 91 252 83 222 83 c 0
 192 83 167 91 145 104 c 1
 84 55 l 2
 73 47 60 40 47 40 c 0
 23 40 6 62 11 86 c 0
 13 98 21 111 31 119 c 2
 94 171 l 1
 86 195 85 222 91 251 c 0
 97 281 110 309 130 333 c 1
 88 386 l 2
 81 394 79 405 82 419 c 0
 87 444 112 464 137 464 c 0
 150 464 159 461 167 451 c 2
 209 398 l 1
 237 412 264 418 293 418 c 0
 322 418 348 412 370 398 c 1
 434 451 l 2
 446 461 457 464 469 464 c 0
 495 464 510 442 506 419 c 0
 503 406 496 395 486 386 c 2
 421 332 l 1
 430 308 432 280 426 251 c 0
 420 222 407 194 389 171 c 1
183 251 m 0
 174 209 200 174 241 174 c 0
 283 174 325 209 334 251 c 0
 343 293 316 326 274 326 c 0
 233 326 192 293 183 251 c 0
EndSplineSet
EndChar
StartChar: yen
Encoding: 165 165 80
Width: 599
Flags: MW
HStem: 0 216<208 218 135 234.5> 122 94<102 218 135 198 314 377 135 294> 262 94<132 215 165 215 165 228 380 407> 656 20G<531 552.5>
LayerCount: 2
Back
Fore
SplineSet
540 676 m 0xb0
 565 676 585 655 579 628 c 0
 577 621 575 612 565 599 c 2
 380 356 l 1
 427 356 l 2
 454 356 471 335 465 309 c 0
 460 283 434 262 407 262 c 2
 324 262 l 1
 314 216 l 1
 397 216 l 2
 424 216 441 195 435 169 c 0
 430 143 404 122 377 122 c 2
 294 122 l 1x70
 279 48 l 2
 273 23 248 0 221 0 c 0xb0
 195 0 177 23 183 48 c 2
 198 122 l 1
 115 122 l 2x70
 89 122 73 143 78 169 c 0
 84 195 109 216 135 216 c 2
 218 216 l 1
 228 262 l 1
 145 262 l 2
 119 262 103 283 108 309 c 0
 114 335 139 356 165 356 c 2
 215 356 l 1
 144 605 l 2
 143 612 142 620 144 626 c 0
 149 650 174 674 203 674 c 0
 220 674 234 665 239 648 c 2
 309 406 l 1
 493 650 l 2
 505 667 522 676 540 676 c 0xb0
EndSplineSet
EndChar
StartChar: section
Encoding: 167 167 125
Width: 483
Flags: MW
HStem: 0 90<185 241 185 244.5> 0 188<75 244.5> 441 189<301 430> 541 89<301 345>
LayerCount: 2
Back
Fore
SplineSet
126 154 m 0x50
 130 116 161 90 209 90 c 0
 273 90 302 131 308 156 c 0
 313 180 294 198 230 220 c 0
 134 252 90 295 106 370 c 0
 112 396 123 416 138 433 c 1
 130 452 127 474 133 499 c 0
 155 604 264 630 338 630 c 0
 444 630 491 581 475 506 c 0
 466 464 447 441 413 441 c 0xa0
 381 441 370 461 375 483 c 0
 377 493 381 499 382 507 c 0
 387 527 369 541 321 541 c 0
 270 541 231 525 226 499 c 0
 218 464 266 449 294 440 c 0
 382 410 449 388 426 280 c 0
 422 260 412 239 398 220 c 1
 404 201 405 178 400 151 c 0
 384 79 299 0 190 0 c 0
 63 0 23 103 31 141 c 0
 37 167 62 188 88 188 c 0
 111 188 124 173 126 154 c 0x50
335 272 m 1
 342 281 345 290 346 296 c 0
 353 327 341 342 267 366 c 0
 253 371 223 381 202 387 c 1
 192 379 189 372 187 364 c 0
 177 318 228 310 258 301 c 0
 288 291 315 284 335 272 c 1
EndSplineSet
EndChar
StartChar: dieresis
Encoding: 168 168 208
Width: 526
Flags: MW
HStem: 523 121<223.5 231.5 408 416.5>
LayerCount: 2
Back
Fore
SplineSet
294 586 m 0
 287 551 251 523 212 523 c 0
 177 523 154 547 161 581 c 0
 168 614 204 644 243 644 c 0
 275 644 301 619 294 586 c 0
479 586 m 0
 472 551 436 523 397 523 c 0
 361 523 338 547 345 581 c 0
 352 614 389 644 427 644 c 0
 460 644 486 619 479 586 c 0
EndSplineSet
EndChar
StartChar: copyright
Encoding: 169 169 100
Width: 1013
GlyphClass: 2
Flags: W
LayerCount: 2
Back
Fore
SplineSet
9.5 767 m 128,-1,1
 -8 852 -8 852 12 948 c 256,2,3
 32 1044 32 1044 85.5 1129 c 128,-1,4
 139 1214 139 1214 215 1276.5 c 128,-1,5
 291 1339 291 1339 381 1376 c 128,-1,6
 471 1413 471 1413 565 1413 c 256,7,8
 659 1413 659 1413 734 1376 c 128,-1,9
 809 1339 809 1339 857 1276.5 c 128,-1,10
 905 1214 905 1214 923.5 1129 c 128,-1,11
 942 1044 942 1044 922 948 c 256,12,13
 902 852 902 852 847.5 767 c 128,-1,14
 793 682 793 682 718 619.5 c 128,-1,15
 643 557 643 557 553 520 c 128,-1,16
 463 483 463 483 369 483 c 256,17,18
 275 483 275 483 200 520 c 128,-1,19
 125 557 125 557 76 619.5 c 128,-1,0
 27 682 27 682 9.5 767 c 128,-1,1
104.5 803.5 m 128,-1,21
 119 737 119 737 157 686 c 128,-1,22
 195 635 195 635 254 606.5 c 128,-1,23
 313 578 313 578 387 578 c 256,24,25
 461 578 461 578 533.5 606.5 c 128,-1,26
 606 635 606 635 665.5 686 c 128,-1,27
 725 737 725 737 768 803.5 c 128,-1,28
 811 870 811 870 827 948 c 0,29,30
 843 1024 843 1024 829 1091.5 c 128,-1,31
 815 1159 815 1159 776 1210.5 c 128,-1,32
 737 1262 737 1262 678 1290.5 c 128,-1,33
 619 1319 619 1319 545 1319 c 256,34,35
 471 1319 471 1319 399.5 1290.5 c 128,-1,36
 328 1262 328 1262 267.5 1210.5 c 128,-1,37
 207 1159 207 1159 165 1091.5 c 128,-1,38
 123 1024 123 1024 106 948 c 1,39,20
 90 870 90 870 104.5 803.5 c 128,-1,21
209 950 m 0,40,41
 234 1069 234 1069 321 1139.5 c 128,-1,42
 408 1210 408 1210 528 1210 c 0,43,44
 575 1210 575 1210 611 1193 c 128,-1,45
 647 1176 647 1176 670 1157 c 1,46,-1
 672 1153 l 1,47,48
 690 1135 690 1135 684 1114 c 1,49,50
 680 1094 680 1094 663.5 1080.5 c 128,-1,51
 647 1067 647 1067 627 1067 c 0,52,53
 613 1067 613 1067 598 1077 c 1,54,-1
 596 1081 l 1,55,56
 582 1093 582 1093 559.5 1104.5 c 128,-1,57
 537 1116 537 1116 508 1116 c 0,58,59
 451 1116 451 1116 414 1097.5 c 128,-1,60
 377 1079 377 1079 353.5 1052.5 c 128,-1,61
 330 1026 330 1026 319.5 997.5 c 128,-1,62
 309 969 309 969 305 950 c 0,63,64
 299 917 299 917 306 890.5 c 128,-1,65
 313 864 313 864 329.5 845.5 c 128,-1,66
 346 827 346 827 369.5 817 c 128,-1,67
 393 807 393 807 420 807 c 0,68,69
 510 807 510 807 569 862 c 0,70,71
 573 866 573 866 576.5 868 c 128,-1,72
 580 870 580 870 582 874 c 2,73,-1
 590 885 l 1,74,75
 608 908 608 908 637 907 c 0,76,77
 657 907 657 907 667.5 894 c 128,-1,78
 678 881 678 881 674 860 c 1,79,80
 670 848 670 848 662 836 c 1,81,-1
 653 825 l 1,82,83
 614 784 614 784 551.5 748.5 c 128,-1,84
 489 713 489 713 399 713 c 0,85,86
 307 713 307 713 250 776 c 1,87,88
 221 811 221 811 210 856 c 128,-1,89
 199 901 199 901 209 950 c 0,40,41
EndSplineSet
EndChar
StartChar: ordfeminine
Encoding: 170 170 129
Width: 276
Flags: MW
HStem: 311 21G<229 248> 315 90<144 151> 561 91<195.5 223>
LayerCount: 2
Back
Fore
SplineSet
236 311 m 0xa0
 222 311 209 317 203 327 c 1
 185 321 165 315 137 315 c 0x60
 62 315 21 378 38 461 c 0
 58 551 134 652 235 652 c 0
 282 652 327 630 343 615 c 1
 289 356 l 2
 284 332 260 311 236 311 c 0xa0
220 561 m 0
 171 561 139 504 130 463 c 0
 124 437 130 405 158 405 c 0x60
 174 405 197 416 211 423 c 1
 242 558 l 1
 237 560 226 561 220 561 c 0
EndSplineSet
EndChar
StartChar: guillemotleft
Encoding: 171 171 87
Width: 617
Flags: MW
HStem: 69 21G<193 211.5 423 441.5> 419 20G<286.5 304 516.5 534>
LayerCount: 2
Back
Fore
SplineSet
169 81 m 2
 49 213 l 2
 40 223 38 237 41 250 c 0
 43 262 52 277 65 286 c 2
 258 427 l 2
 271 436 281 439 292 439 c 0
 316 439 335 418 330 391 c 0
 326 376 322 366 306 354 c 2
 161 249 l 1
 249 153 l 2
 258 143 260 129 257 116 c 0
 252 90 224 69 199 69 c 0
 187 69 178 72 169 81 c 2
399 81 m 2
 279 213 l 2
 270 223 268 237 271 250 c 0
 273 262 282 277 295 286 c 2
 488 427 l 2
 501 436 511 439 522 439 c 0
 546 439 565 418 560 391 c 0
 556 376 552 366 536 354 c 2
 391 249 l 1
 479 153 l 2
 488 143 490 129 487 116 c 0
 482 90 454 69 429 69 c 0
 417 69 408 72 399 81 c 2
EndSplineSet
EndChar
StartChar: logicalnot
Encoding: 172 172 139
Width: 506
Flags: MW
HStem: 114 230<338 363> 253 91<68 399 101 334>
LayerCount: 2
Back
Fore
SplineSet
350 114 m 0x80
 326 114 308 134 313 159 c 2
 334 253 l 1
 81 253 l 2x40
 55 253 40 273 45 298 c 0
 50 322 75 344 101 344 c 2
 399 344 l 2
 422 344 442 326 436 298 c 2
 405 159 l 2
 400 134 376 114 350 114 c 0x80
EndSplineSet
EndChar
StartChar: uni00AD
Encoding: 173 173 141
Width: 467
Flags: MW
HStem: 203 94<88 345 120 325>
LayerCount: 2
Back
Fore
SplineSet
325 203 m 2
 100 203 l 2
 76 203 57 225 63 250 c 0
 68 276 96 297 120 297 c 2
 345 297 l 2
 371 297 387 276 382 250 c 0
 376 225 351 203 325 203 c 2
EndSplineSet
EndChar
StartChar: registered
Encoding: 174 174 79
Width: 570
Flags: MW
HStem: 177 70<220.5 328 220.5 332> 648 70<305.5 413>
LayerCount: 2
Back
Fore
SplineSet
451 495 m 0
 443 458 409 435 373 421 c 1
 387 409 l 2
 399 399 403 387 400 372 c 0
 394 348 371 329 347 329 c 0
 337 329 330 331 324 336 c 2
 269 381 l 1
 265 368 l 2
 256 345 237 330 213 330 c 0
 187 330 169 354 179 381 c 2
 240 541 l 2
 252 572 254 581 341 581 c 0
 423 581 462 548 451 495 c 0
259 177 m 0
 114 177 20 298 52 447 c 0
 83 596 229 718 374 718 c 0
 520 718 613 596 582 447 c 0
 550 298 405 177 259 177 c 0
359 648 m 0
 252 648 145 558 122 447 c 0
 98 336 167 247 274 247 c 0
 382 247 488 336 512 447 c 0
 535 558 467 648 359 648 c 0
EndSplineSet
EndChar
StartChar: macron
Encoding: 175 175 146
Width: 526
Flags: MW
HStem: 545 92<203.5 426 236 406>
LayerCount: 2
Back
Fore
SplineSet
406 545 m 2
 216 545 l 2
 191 545 176 567 181 591 c 0
 187 617 211 637 236 637 c 2
 426 637 l 2
 451 637 467 617 461 591 c 0
 456 567 431 545 406 545 c 2
EndSplineSet
EndChar
StartChar: degree
Encoding: 176 176 70
Width: 269
Flags: MW
HStem: 422 87<169.5 195 169.5 200> 601 88<188.5 214>
LayerCount: 2
Back
Fore
SplineSet
163 422 m 0
 90 422 43 481 58 555 c 0
 74 629 147 689 220 689 c 0
 294 689 340 629 324 555 c 0
 309 481 237 422 163 422 c 0
201 601 m 0
 176 601 150 580 144 555 c 0
 139 530 157 509 182 509 c 0
 208 509 233 530 238 555 c 0
 244 580 227 601 201 601 c 0
EndSplineSet
EndChar
StartChar: plusminus
Encoding: 177 177 140
Width: 467
Flags: MW
HStem: -1 94<46 295 78 275> 124 215<181 193 116 205.5> 245 94<83 193 116 173 286 343 116 266> 245 206<83 276 96 276 266 276 248 343 266 266>
LayerCount: 2
Back
Fore
SplineSet
60 292 m 0xa0
 65 316 92 339 116 339 c 2
 193 339 l 1xc0
 207 405 l 2
 211 428 233 451 263 451 c 0x90
 289 451 304 428 300 405 c 2
 286 339 l 1
 363 339 l 2
 386 339 405 318 400 292 c 0
 394 267 366 245 343 245 c 2
 266 245 l 1xa0
 250 170 l 2
 244 145 217 124 194 124 c 0xc0
 168 124 152 146 157 170 c 2
 173 245 l 1
 96 245 l 2
 70 245 54 266 60 292 c 0xa0
22 46 m 0
 28 73 54 93 78 93 c 2
 295 93 l 2
 320 93 337 71 331 46 c 0
 325 18 300 -1 275 -1 c 2
 58 -1 l 2
 34 -1 16 16 22 46 c 0
EndSplineSet
EndChar
StartChar: twosuperior
Encoding: 178 178 142
Width: 266
Flags: MW
HStem: 402 89<142 241> 663 133<110.5 272> 709 87<211.5 233>
LayerCount: 2
Back
Fore
SplineSet
241 402 m 2xc0
 28 402 l 1
 37 446 l 2
 59 547 110 588 218 644 c 0
 236 653 249 666 253 683 c 0
 256 697 244 709 222 709 c 0xa0
 201 709 179 694 168 685 c 0
 151 670 142 663 124 663 c 0
 97 663 85 679 91 706 c 0
 92 715 96 725 107 735 c 0
 130 757 183 796 240 796 c 0
 304 796 355 755 340 683 c 0
 325 614 273 585 222 559 c 0
 193 543 156 519 142 491 c 1
 260 491 l 2
 279 491 300 474 294 446 c 0
 289 423 262 402 241 402 c 2xc0
EndSplineSet
EndChar
StartChar: threesuperior
Encoding: 179 179 143
Width: 262
Flags: MW
HStem: 400 87<163 180 163 188.5> 400 136<83.5 188.5> 688 111<130.5 268> 711 88<209 230.5>
LayerCount: 2
Back
Fore
SplineSet
46 468 m 0xa0
 43 476 44 486 45 491 c 0
 50 516 71 536 96 536 c 0x60
 117 536 126 524 131 511 c 0
 137 496 154 487 172 487 c 0
 188 487 217 494 223 526 c 0
 228 549 217 563 177 567 c 0
 152 569 139 582 145 609 c 0
 151 638 169 649 195 651 c 0
 227 654 246 667 250 685 c 0
 254 703 242 711 219 711 c 0x90
 199 711 185 705 176 699 c 0
 166 692 153 688 141 688 c 0
 120 688 104 703 110 731 c 0
 116 762 175 799 237 799 c 0
 299 799 353 761 339 695 c 0
 331 658 308 627 284 613 c 1
 308 600 321 569 313 531 c 0
 297 452 223 400 154 400 c 0
 87 400 57 441 46 468 c 0xa0
EndSplineSet
EndChar
StartChar: acute
Encoding: 180 180 216
Width: 526
Flags: MW
HStem: 511 21G<239 256.5> 684 20G<406.5 430>
LayerCount: 2
Back
Fore
SplineSet
235 592 m 2
 370 685 l 2
 382 693 398 704 415 704 c 0
 445 704 463 680 456 649 c 0
 453 634 445 619 429 609 c 2
 287 524 l 2
 275 517 262 511 251 511 c 0
 227 511 210 532 215 559 c 0
 218 570 222 583 235 592 c 2
EndSplineSet
EndChar
StartChar: mu
Encoding: 181 181 148
Width: 526
Flags: MW
HStem: -164 21G<41 70> -3 90<160 193.5> 0 21G<338.5 365> 480 20G<161.5 190 448 472.5>
VStem: 13 96
LayerCount: 2
Back
Fore
SplineSet
27 22 m 0xd8
 35 89 44 147 62 252 c 0
 75 325 102 414 115 449 c 0
 130 492 149 500 174 500 c 0
 206 500 217 481 211 453 c 0
 209 445 207 439 204 431 c 0
 195 401 177 351 164 288 c 0
 131 136 133 87 187 87 c 0xd8
 241 87 306 123 327 144 c 0
 332 149 336 156 338 169 c 2
 404 454 l 2
 410 481 436 500 460 500 c 0
 485 500 503 481 497 454 c 2
 411 48 l 2
 405 23 378 0 352 0 c 0xb8
 325 0 309 17 309 40 c 1
 270 16 219 -3 168 -3 c 0
 147 -3 118 4 118 4 c 1
 114 -33 110 -76 109 -109 c 0
 109 -135 88 -164 52 -164 c 0
 30 -164 12 -148 13 -125 c 0
 14 -95 18 -53 27 22 c 0xd8
EndSplineSet
EndChar
StartChar: paragraph
Encoding: 182 182 105
Width: 1236
GlyphClass: 2
Flags: W
LayerCount: 2
Back
Fore
SplineSet
131 954.5 m 128,-1,1
 131 993 131 993 141 1034 c 1,2,3
 155 1102 155 1102 189 1163.5 c 128,-1,4
 223 1225 223 1225 276 1280 c 0,5,6
 376 1384 376 1384 547 1462 c 1,7,8
 643 1503 643 1503 723 1524.5 c 128,-1,9
 803 1546 803 1546 838 1552 c 0,10,11
 858 1556 858 1556 868 1556 c 2,12,-1
 870 1556 l 2,13,14
 911 1556 911 1556 934.5 1525.5 c 128,-1,15
 958 1495 958 1495 948 1454 c 1,16,17
 942 1421 942 1421 917.5 1394.5 c 128,-1,18
 893 1368 893 1368 860 1358 c 1,19,20
 831 1213 831 1213 798.5 1075.5 c 128,-1,21
 766 938 766 938 731 814 c 128,-1,22
 696 690 696 690 662.5 581.5 c 128,-1,23
 629 473 629 473 600 387 c 1,24,25
 567 293 567 293 538.5 217 c 128,-1,26
 510 141 510 141 488.5 87 c 128,-1,27
 467 33 467 33 454.5 3 c 128,-1,28
 442 -27 442 -27 442 -29 c 0,29,30
 422 -68 422 -68 391 -88 c 1,31,32
 359 -111 359 -111 322 -111 c 0,33,34
 306 -111 306 -111 299 -109 c 0,35,36
 258 -99 258 -99 242.5 -63 c 128,-1,37
 227 -27 227 -27 246 16 c 0,38,39
 246 18 246 18 291 125.5 c 128,-1,40
 336 233 336 233 399 416 c 0,41,42
 419 477 419 477 439 538.5 c 128,-1,43
 459 600 459 600 477 662 c 1,44,45
 409 666 409 666 331.5 685.5 c 128,-1,46
 254 705 254 705 201 762 c 1,47,48
 152 809 152 809 137 881 c 1,49,0
 131 916 131 916 131 954.5 c 128,-1,1
568.5 -60.5 m 128,-1,51
 553 -25 553 -25 571 18 c 1,52,53
 573 20 573 20 617.5 128 c 128,-1,54
 662 236 662 236 723 418 c 0,55,56
 752 502 752 502 785.5 608.5 c 128,-1,57
 819 715 819 715 853 836.5 c 128,-1,58
 887 958 887 958 918.5 1092.5 c 128,-1,59
 950 1227 950 1227 977 1368 c 0,60,61
 985 1411 985 1411 1023 1443 c 128,-1,62
 1061 1475 1061 1475 1104 1477 c 1,63,-1
 1106 1477 l 2,64,65
 1149 1477 1149 1477 1174 1446 c 256,66,67
 1199 1415 1199 1415 1188 1374 c 1,68,69
 1159 1227 1159 1227 1126.5 1087.5 c 128,-1,70
 1094 948 1094 948 1059 822 c 128,-1,71
 1024 696 1024 696 989 586.5 c 128,-1,72
 954 477 954 477 926 391 c 1,73,74
 860 201 860 201 814 89 c 128,-1,75
 768 -23 768 -23 768 -27 c 1,76,77
 750 -66 750 -66 719 -86 c 0,78,79
 684 -109 684 -109 647 -109 c 0,80,81
 631 -109 631 -109 625 -106 c 1,82,50
 584 -96 584 -96 568.5 -60.5 c 128,-1,51
EndSplineSet
EndChar
StartChar: periodcentered
Encoding: 183 183 149
Width: 198
Flags: MW
HStem: 191 121<61 124.5>
LayerCount: 2
Back
Fore
SplineSet
76 191 m 0
 46 191 30 216 37 248 c 0
 44 281 79 312 110 312 c 0
 139 312 156 287 149 256 c 0
 141 220 107 191 76 191 c 0
EndSplineSet
EndChar
StartChar: cedilla
Encoding: 184 184 220
Width: 526
Flags: MW
HStem: -196 87<130 132.5 112.5 178> -196 237<177.5 178>
LayerCount: 2
Back
Fore
SplineSet
155 -126 m 0x80
 159 -130 164 -132 173 -132 c 0
 189 -132 199 -118 202 -106 c 0
 205 -94 198 -86 183 -83 c 2
 136 -73 l 2
 118 -69 119 -53 128 -35 c 0
 151 13 166 41 189 41 c 0x40
 202 41 212 37 199 -27 c 1
 257 -37 283 -61 272 -110 c 0
 260 -168 207 -196 149 -196 c 0
 111 -196 73 -180 80 -148 c 0
 84 -131 101 -109 124 -109 c 0
 141 -109 146 -118 155 -126 c 0x80
EndSplineSet
EndChar
StartChar: onesuperior
Encoding: 185 185 147
Width: 192
Flags: MW
HStem: 403 88<55 102 89 102 89 177> 779 20G<208.5 226.5>
LayerCount: 2
Back
Fore
SplineSet
177 403 m 2
 70 403 l 2
 40 403 31 424 36 447 c 0
 41 473 66 491 89 491 c 2
 102 491 l 1
 138 645 l 1
 131 643 125 642 118 642 c 0
 99 642 79 660 84 685 c 0
 86 696 91 706 101 715 c 2
 180 784 l 2
 191 794 203 799 214 799 c 0
 239 799 256 785 250 754 c 2
 189 491 l 1
 201 491 l 2
 223 491 234 470 230 447 c 0
 224 419 198 403 177 403 c 2
EndSplineSet
EndChar
StartChar: ordmasculine
Encoding: 186 186 128
Width: 303
Flags: MW
HStem: 315 87<152.5 182.5 152.5 201> 561 87<199 229.5>
LayerCount: 2
Back
Fore
SplineSet
148 315 m 0
 73 315 23 382 41 469 c 0
 59 553 138 648 236 648 c 0
 310 648 363 585 343 491 c 0
 328 422 254 315 148 315 c 0
215 561 m 0
 183 561 143 521 133 471 c 0
 125 433 138 402 167 402 c 0
 198 402 240 439 251 491 c 0
 258 526 244 561 215 561 c 0
EndSplineSet
EndChar
StartChar: guillemotright
Encoding: 187 187 106
Width: 1245
GlyphClass: 2
Flags: W
LayerCount: 2
Back
Fore
SplineSet
145 248 m 0,0,1
 157 293 157 293 197 322 c 2,2,-1
 446 508 l 1,3,-1
 254 715 l 1,4,5
 225 744 225 744 231 788 c 0,6,7
 237 831 237 831 272 866 c 1,8,9
 315 903 315 903 362 903 c 0,10,11
 399 903 399 903 426 877 c 1,12,-1
 696 590 l 1,13,14
 727 559 727 559 717 512 c 1,15,16
 711 489 711 489 697.5 467.5 c 128,-1,17
 684 446 684 446 662 430 c 2,18,-1
 305 162 l 2,19,20
 268 135 268 135 229 135 c 0,21,22
 180 135 180 135 156 170 c 0,23,24
 133 205 133 205 145 248 c 0,0,1
686 248 m 1,25,26
 698 293 698 293 737 322 c 2,27,-1
 987 508 l 1,28,-1
 795 715 l 1,29,30
 766 744 766 744 772 788 c 0,31,32
 778 831 778 831 813 866 c 1,33,34
 856 903 856 903 903 903 c 0,35,36
 940 903 940 903 967 877 c 1,37,-1
 1237 590 l 1,38,39
 1268 559 1268 559 1257 512 c 0,40,41
 1251 489 1251 489 1238 467.5 c 128,-1,42
 1225 446 1225 446 1202 430 c 1,43,-1
 846 162 l 2,44,45
 809 135 809 135 770 135 c 0,46,47
 721 135 721 135 696 170 c 1,48,49
 673 205 673 205 686 248 c 1,25,26
EndSplineSet
EndChar
StartChar: questiondown
Encoding: 191 191 115
Width: 559
Flags: MW
HStem: -170 94<160 221> -170 169<116.5 379.5> 380 121<354 417.5>
LayerCount: 2
Back
Fore
SplineSet
350 259 m 0x60
 334 248 312 235 290 219 c 0
 196 153 116 103 100 28 c 0
 91 -16 112 -76 208 -76 c 0xa0
 260 -76 302 -42 333 -14 c 0
 342 -5 355 -1 367 -1 c 0
 392 -1 411 -20 405 -49 c 0
 402 -65 385 -81 370 -95 c 0
 331 -129 259 -170 183 -170 c 0
 50 -170 -18 -91 9 35 c 0
 28 127 106 186 173 236 c 0
 313 340 325 342 337 342 c 0
 363 342 380 321 374 295 c 0
 371 282 362 268 350 259 c 0x60
402 501 m 0
 433 501 449 476 442 444 c 0
 435 411 399 380 369 380 c 0
 339 380 323 405 329 436 c 0
 337 472 371 501 402 501 c 0
EndSplineSet
EndChar
StartChar: Agrave
Encoding: 192 192 152
Width: 650
Flags: MW
HStem: -1 21G<463 490> 0 21G<27 54> 668 20G<410 430> 698 218<401 484>
LayerCount: 2
Back
Fore
SplineSet
459 655 m 2x70
 537 67 l 2
 537 61 537 53 536 48 c 0
 530 22 505 -1 475 -1 c 0xb0
 451 -1 439 8 436 33 c 2
 408 241 l 1
 194 196 l 1
 94 32 l 2
 84 15 66 0 42 0 c 0
 12 0 -3 25 2 49 c 0
 3 56 6 62 9 67 c 2
 76 177 l 1
 57 184 46 201 51 225 c 0
 56 249 76 268 100 273 c 2
 138 281 l 1
 366 657 l 2
 378 677 400 688 420 688 c 0
 440 688 456 679 459 655 c 2x70
260 306 m 1
 394 334 l 1
 375 495 l 1
 260 306 l 1
441 713 m 2
 358 824 l 2
 350 834 346 846 350 862 c 0
 356 890 387 916 415 916 c 0
 433 916 447 906 455 894 c 2
 524 775 l 2
 531 763 532 755 530 745 c 0
 524 718 496 698 472 698 c 0
 457 698 447 704 441 713 c 2
EndSplineSet
EndChar
StartChar: Aacute
Encoding: 193 193 153
Width: 650
Flags: MW
HStem: -1 21G<463 490> 0 21G<27 54> 668 20G<410 430> 882 20G<506.5 530>
LayerCount: 2
Back
Fore
SplineSet
459 655 m 2x70
 537 67 l 2
 537 61 537 53 536 48 c 0
 530 22 505 -1 475 -1 c 0xb0
 451 -1 439 8 436 33 c 2
 408 241 l 1
 194 196 l 1
 94 32 l 2
 84 15 66 0 42 0 c 0
 12 0 -3 25 2 49 c 0
 3 56 6 62 9 67 c 2
 76 177 l 1
 57 184 46 201 51 225 c 0
 56 249 76 268 100 273 c 2
 138 281 l 1
 366 657 l 2
 378 677 400 688 420 688 c 0
 440 688 456 679 459 655 c 2x70
260 306 m 1
 394 334 l 1
 375 495 l 1
 260 306 l 1
335 790 m 2
 470 883 l 2
 482 891 498 902 515 902 c 0
 545 902 563 878 557 847 c 0
 553 832 545 817 529 807 c 2
 387 722 l 2
 375 715 362 709 351 709 c 0
 327 709 310 730 315 757 c 0
 318 768 323 781 335 790 c 2
EndSplineSet
EndChar
StartChar: Acircumflex
Encoding: 194 194 154
Width: 650
Flags: MW
HStem: -1 21G<463 490> 0 21G<27 54> 668 20G<410 430> 878 20G<467.5 478>
LayerCount: 2
Back
Fore
SplineSet
459 655 m 2x70
 537 67 l 2
 537 61 537 53 536 48 c 0
 530 22 505 -1 475 -1 c 0xb0
 451 -1 439 8 436 33 c 2
 408 241 l 1
 194 196 l 1
 94 32 l 2
 84 15 66 0 42 0 c 0
 12 0 -3 25 2 49 c 0
 3 56 6 62 9 67 c 2
 76 177 l 1
 57 184 46 201 51 225 c 0
 56 249 76 268 100 273 c 2
 138 281 l 1
 366 657 l 2
 378 677 400 688 420 688 c 0
 440 688 456 679 459 655 c 2x70
260 306 m 1
 394 334 l 1
 375 495 l 1
 260 306 l 1
298 786 m 2
 438 886 l 2
 451 895 463 898 472 898 c 0
 484 898 497 892 507 880 c 2
 582 784 l 2
 590 774 592 763 589 750 c 0
 584 725 558 703 533 703 c 0
 521 703 511 705 502 715 c 2
 444 781 l 1
 340 712 l 2
 327 704 319 703 309 703 c 0
 284 703 266 723 272 750 c 0
 275 763 283 776 298 786 c 2
EndSplineSet
EndChar
StartChar: Atilde
Encoding: 195 195 155
Width: 650
Flags: MW
HStem: -1 21G<463 490> 0 21G<27 54> 668 20G<410 430> 705 88<503.5 521.5 503.5 524.5> 705 188<458 633.5> 788 89<361 376.5>
LayerCount: 2
Back
Fore
SplineSet
589 871 m 0x70
 596 886 609 893 624 893 c 0
 643 893 661 883 656 860 c 0
 655 856 654 849 649 838 c 0
 632 807 575 705 474 705 c 0x68
 442 705 419 722 404 753 c 0
 392 776 384 788 369 788 c 0
 334 788 306 736 298 720 c 0
 289 705 279 698 264 698 c 0
 245 698 227 708 232 731 c 0
 233 735 234 742 240 753 c 0
 269 810 322 877 400 877 c 0x64
 439 877 461 860 477 829 c 0
 488 807 496 793 511 793 c 0
 532 793 563 817 589 871 c 0x70
459 655 m 2
 537 67 l 2
 537 61 537 53 536 48 c 0
 530 22 505 -1 475 -1 c 0xb0
 451 -1 439 8 436 33 c 2
 408 241 l 1
 194 196 l 1
 94 32 l 2
 84 15 66 0 42 0 c 0
 12 0 -3 25 2 49 c 0
 3 56 6 62 9 67 c 2
 76 177 l 1
 57 184 46 201 51 225 c 0
 56 249 76 268 100 273 c 2
 138 281 l 1
 366 657 l 2
 378 677 400 688 420 688 c 0
 440 688 456 679 459 655 c 2
260 306 m 1
 394 334 l 1
 375 495 l 1
 260 306 l 1
EndSplineSet
EndChar
StartChar: Adieresis
Encoding: 196 196 156
Width: 650
Flags: MW
HStem: -1 21G<463 490> 0 21G<27 54> 668 20G<410 430> 703 124<336 344 524.5 532>
LayerCount: 2
Back
Fore
SplineSet
409 767 m 0x70
 401 732 364 703 324 703 c 0
 288 703 264 727 271 762 c 0
 279 796 316 827 356 827 c 0
 389 827 416 801 409 767 c 0x70
597 767 m 0
 589 732 552 703 512 703 c 0
 476 703 452 727 459 762 c 0
 467 796 505 827 544 827 c 0
 577 827 604 801 597 767 c 0
459 655 m 2
 537 67 l 2
 537 61 537 53 536 48 c 0
 530 22 505 -1 475 -1 c 0xb0
 451 -1 439 8 436 33 c 2
 408 241 l 1
 194 196 l 1
 94 32 l 2
 84 15 66 0 42 0 c 0
 12 0 -3 25 2 49 c 0
 3 56 6 62 9 67 c 2
 76 177 l 1
 57 184 46 201 51 225 c 0
 56 249 76 268 100 273 c 2
 138 281 l 1
 366 657 l 2
 378 677 400 688 420 688 c 0
 440 688 456 679 459 655 c 2
260 306 m 1
 394 334 l 1
 375 495 l 1
 260 306 l 1
EndSplineSet
EndChar
StartChar: Aring
Encoding: 197 197 157
Width: 650
Flags: MW
HStem: -1 21G<463 490> 0 21G<27 54> 668 20G<410 430> 712 79<430 456.5 430 456.5> 862 80<451.5 481.5>
LayerCount: 2
Back
Fore
SplineSet
420 712 m 0x78
 349 712 299 754 313 820 c 0
 329 897 414 942 489 942 c 0
 557 942 609 900 595 833 c 0
 578 755 493 712 420 712 c 0x78
468 862 m 0
 432 862 403 838 399 820 c 0
 395 802 415 791 445 791 c 0
 468 791 503 806 508 831 c 0
 511 846 495 862 468 862 c 0
459 655 m 2
 537 67 l 2
 537 61 537 53 536 48 c 0
 530 22 505 -1 475 -1 c 0xb8
 451 -1 439 8 436 33 c 2
 408 241 l 1
 194 196 l 1
 94 32 l 2
 84 15 66 0 42 0 c 0
 12 0 -3 25 2 49 c 0
 3 56 6 62 9 67 c 2
 76 177 l 1
 57 184 46 201 51 225 c 0
 56 249 76 268 100 273 c 2
 138 281 l 1
 366 657 l 2
 378 677 400 688 420 688 c 0
 440 688 456 679 459 655 c 2
260 306 m 1
 394 334 l 1
 375 495 l 1
 260 306 l 1
EndSplineSet
EndChar
StartChar: AE
Encoding: 198 198 120
Width: 1066
Flags: MW
HStem: -3 21G<33.5 53> 0 97<450.5 883 532 863> 288 98<878 891.5> 584 97<636 987 636 636>
LayerCount: 2
Back
Fore
SplineSet
261 331 m 1xb0
 565 660 l 2
 572 668 586 681 605 681 c 2
 1007 681 l 2
 1036 681 1052 661 1046 632 c 0
 1041 607 1016 584 987 584 c 2
 636 584 l 1
 594 386 l 1
 899 386 l 2
 926 386 941 362 936 337 c 0
 930 309 905 288 878 288 c 2
 573 289 l 1
 532 97 l 1
 883 97 l 2
 912 97 928 77 922 48 c 0
 916 21 892 0 863 0 c 2
 464 0 l 2x70
 437 0 419 21 425 48 c 2
 474 279 l 1
 297 243 l 1
 89 17 l 2
 76 3 60 -3 46 -3 c 0
 21 -3 3 20 8 45 c 0
 10 55 13 62 23 73 c 2
 166 229 l 1
 154 238 147 254 151 272 c 0
 156 295 176 314 201 319 c 2
 261 331 l 1xb0
405 359 m 1
 494 376 l 1
 517 481 l 1
 405 359 l 1
EndSplineSet
EndChar
StartChar: Ccedilla
Encoding: 199 199 158
Width: 658
Flags: MW
HStem: -196 87<210 212.5 192.5 258> -2 100<283 331.5> 501 159<542.5 604> 584 100<368.5 446>
LayerCount: 2
Back
Fore
SplineSet
283 -2 m 1xd0
 282 -11 281 -18 279 -27 c 1
 337 -37 363 -61 352 -110 c 0
 340 -168 287 -196 229 -196 c 0
 191 -196 153 -180 160 -148 c 0
 164 -131 181 -109 204 -109 c 0
 221 -109 226 -118 235 -126 c 0
 239 -130 244 -132 253 -132 c 0
 269 -132 279 -118 282 -106 c 0
 285 -94 278 -86 263 -83 c 2
 216 -73 l 2
 198 -69 199 -53 208 -35 c 0
 215 -20 221 -7 227 3 c 1
 100 30 23 148 55 299 c 0
 98 501 296 684 436 684 c 0xd0
 494 684 536 669 562 653 c 1
 573 659 580 660 590 660 c 0
 618 660 635 639 629 611 c 2
 617 551 l 2
 611 524 584 501 556 501 c 0xe0
 529 501 512 521 516 547 c 1
 501 564 477 584 415 584 c 0
 322 584 185 441 155 299 c 0
 125 156 229 98 304 98 c 0
 364 98 425 119 481 177 c 0
 497 193 509 197 524 197 c 0
 550 197 571 179 564 147 c 0
 562 137 557 127 548 117 c 0
 474 41 380 -2 283 -2 c 1xd0
EndSplineSet
EndChar
StartChar: Egrave
Encoding: 200 200 159
Width: 636
Flags: MW
HStem: 0 100<42 474 126 453> 302 99<190 473 169 494> 582 100<228 578 228 228> 698 218<361 444>
LayerCount: 2
Back
Fore
SplineSet
126 100 m 1
 474 100 l 2
 502 100 518 78 512 50 c 0
 506 22 481 0 453 0 c 2
 56 0 l 2
 28 0 10 22 16 50 c 2
 140 632 l 2
 146 660 172 682 200 682 c 2
 599 682 l 2
 627 682 644 660 638 632 c 0
 632 605 606 582 578 582 c 2
 228 582 l 1
 190 401 l 1
 494 401 l 2
 522 401 538 380 532 352 c 0
 526 324 501 302 473 302 c 2
 169 302 l 1
 126 100 l 1
401 713 m 2
 318 824 l 2
 310 834 306 846 310 862 c 0
 316 890 347 916 375 916 c 0
 393 916 407 906 415 894 c 2
 484 775 l 2
 491 763 492 755 490 745 c 0
 484 718 456 698 432 698 c 0
 417 698 407 704 401 713 c 2
EndSplineSet
EndChar
StartChar: Eacute
Encoding: 201 201 160
Width: 636
Flags: MW
HStem: 0 100<42 474 126 453> 302 99<190 473 169 494> 582 100<228 578 228 228> 882 20G<501.5 525>
LayerCount: 2
Back
Fore
SplineSet
126 100 m 1
 474 100 l 2
 502 100 518 78 512 50 c 0
 506 22 481 0 453 0 c 2
 56 0 l 2
 28 0 10 22 16 50 c 2
 140 632 l 2
 146 660 172 682 200 682 c 2
 599 682 l 2
 627 682 644 660 638 632 c 0
 632 605 606 582 578 582 c 2
 228 582 l 1
 190 401 l 1
 494 401 l 2
 522 401 538 380 532 352 c 0
 526 324 501 302 473 302 c 2
 169 302 l 1
 126 100 l 1
330 790 m 2
 465 883 l 2
 477 891 493 902 510 902 c 0
 540 902 558 878 552 847 c 0
 548 832 540 817 524 807 c 2
 382 722 l 2
 370 715 357 709 346 709 c 0
 322 709 305 730 310 757 c 0
 313 768 318 781 330 790 c 2
EndSplineSet
EndChar
StartChar: Ecircumflex
Encoding: 202 202 161
Width: 636
Flags: MW
HStem: 0 100<42 474 126 453> 100 202<169 473 169 474 169 488> 302 99<190 473 169 494> 582 100<228 578 228 228> 682 21G<291.5 309 522 540.5> 878 20G<462.5 473>
LayerCount: 2
Back
Fore
SplineSet
126 100 m 1x54
 474 100 l 2
 502 100 518 78 512 50 c 0
 506 22 481 0 453 0 c 2
 56 0 l 2
 28 0 10 22 16 50 c 2
 140 632 l 2
 146 660 172 682 200 682 c 2
 599 682 l 2
 627 682 644 660 638 632 c 0
 632 605 606 582 578 582 c 2
 228 582 l 1
 190 401 l 1
 494 401 l 2xb4
 522 401 538 380 532 352 c 0
 526 324 501 302 473 302 c 2
 169 302 l 1
 126 100 l 1x54
293 786 m 2
 433 886 l 2
 446 895 458 898 467 898 c 0
 479 898 492 892 502 880 c 2
 577 784 l 2
 585 774 587 763 584 750 c 0
 579 725 553 703 528 703 c 0
 516 703 506 705 497 715 c 2
 439 781 l 1
 335 712 l 2
 322 704 314 703 304 703 c 0xac
 279 703 261 723 267 750 c 0
 270 763 278 776 293 786 c 2
EndSplineSet
EndChar
StartChar: Igrave
Encoding: 204 204 163
Width: 459
Flags: MW
HStem: -1 100<33 139 69 139 239 286> 581 100<157 431 192 241 341 341 341 410> 698 218<293 376>
LayerCount: 2
Back
Fore
SplineSet
239 99 m 1
 308 99 l 2
 338 99 352 77 346 49 c 0
 340 21 314 -1 286 -1 c 2
 47 -1 l 2
 19 -1 2 21 8 49 c 0
 14 77 41 99 69 99 c 2
 139 99 l 1
 241 581 l 1
 171 581 l 2
 143 581 126 604 132 632 c 0
 138 660 164 681 192 681 c 2
 431 681 l 2
 459 681 476 660 470 632 c 0
 464 604 438 581 410 581 c 2
 341 581 l 1
 239 99 l 1
333 713 m 2
 250 824 l 2
 242 834 238 846 242 862 c 0
 248 890 279 916 307 916 c 0
 325 916 339 906 347 894 c 2
 416 775 l 2
 423 763 424 755 422 745 c 0
 416 718 388 698 364 698 c 0
 349 698 339 704 333 713 c 2
EndSplineSet
EndChar
StartChar: Iacute
Encoding: 205 205 164
Width: 459
Flags: MW
HStem: -1 100<33 139 69 139 239 286> 581 100<157 431 192 241 341 341 341 410> 882 20G<426.5 450>
LayerCount: 2
Back
Fore
SplineSet
239 99 m 1
 308 99 l 2
 338 99 352 77 346 49 c 0
 340 21 314 -1 286 -1 c 2
 47 -1 l 2
 19 -1 2 21 8 49 c 0
 14 77 41 99 69 99 c 2
 139 99 l 1
 241 581 l 1
 171 581 l 2
 143 581 126 604 132 632 c 0
 138 660 164 681 192 681 c 2
 431 681 l 2
 459 681 476 660 470 632 c 0
 464 604 438 581 410 581 c 2
 341 581 l 1
 239 99 l 1
255 790 m 2
 390 883 l 2
 402 891 418 902 435 902 c 0
 465 902 483 878 477 847 c 0
 473 832 465 817 449 807 c 2
 307 722 l 2
 295 715 282 709 271 709 c 0
 247 709 230 730 235 757 c 0
 238 768 243 781 255 790 c 2
EndSplineSet
EndChar
StartChar: Icircumflex
Encoding: 206 206 165
Width: 459
Flags: MW
HStem: -1 100<33 139 69 139 239 286> 581 100<157 431 192 241 341 341 341 410> 681 22<196.5 214 427 431 431 445> 878 20G<367.5 378>
LayerCount: 2
Back
Fore
SplineSet
239 99 m 1xd0
 308 99 l 2
 338 99 352 77 346 49 c 0
 340 21 314 -1 286 -1 c 2
 47 -1 l 2
 19 -1 2 21 8 49 c 0
 14 77 41 99 69 99 c 2
 139 99 l 1
 241 581 l 1
 171 581 l 2
 143 581 126 604 132 632 c 0
 138 660 164 681 192 681 c 2
 431 681 l 2
 459 681 476 660 470 632 c 0
 464 604 438 581 410 581 c 2
 341 581 l 1
 239 99 l 1xd0
198 786 m 2
 338 886 l 2
 351 895 363 898 372 898 c 0
 384 898 397 892 407 880 c 2
 482 784 l 2
 490 774 492 763 489 750 c 0
 484 725 458 703 433 703 c 0
 421 703 411 705 402 715 c 2
 344 781 l 1
 240 712 l 2
 227 704 219 703 209 703 c 0xb0
 184 703 166 723 172 750 c 0
 175 763 183 776 198 786 c 2
EndSplineSet
EndChar
StartChar: Idieresis
Encoding: 207 207 166
Width: 459
Flags: MW
HStem: -1 100<33 139 69 139 239 286> 581 100<157 431 192 241 341 341 341 410> 703 124<235.5 244 424 432>
LayerCount: 2
Back
Fore
SplineSet
309 767 m 0
 301 732 264 703 224 703 c 0
 188 703 164 727 171 762 c 0
 179 796 216 827 255 827 c 0
 289 827 316 801 309 767 c 0
497 767 m 0
 489 732 452 703 412 703 c 0
 376 703 352 727 359 762 c 0
 367 796 404 827 444 827 c 0
 477 827 504 801 497 767 c 0
239 99 m 1
 308 99 l 2
 338 99 352 77 346 49 c 0
 340 21 314 -1 286 -1 c 2
 47 -1 l 2
 19 -1 2 21 8 49 c 0
 14 77 41 99 69 99 c 2
 139 99 l 1
 241 581 l 1
 171 581 l 2
 143 581 126 604 132 632 c 0
 138 660 164 681 192 681 c 2
 431 681 l 2
 459 681 476 660 470 632 c 0
 464 604 438 581 410 581 c 2
 341 581 l 1
 239 99 l 1
EndSplineSet
EndChar
StartChar: Eth
Encoding: 208 208 119
Width: 681
Flags: MW
HStem: -19 100<228 312.5> 262 99<70 139 104 118 104 218 239 288> 579 102<286 286>
LayerCount: 2
Back
Fore
SplineSet
216 -19 m 0
 161 -19 108 -5 100 -2 c 0
 80 4 68 25 72 47 c 2
 118 262 l 1
 83 262 l 2
 57 262 38 285 44 311 c 0
 50 339 78 361 104 361 c 2
 139 361 l 1
 197 632 l 2
 203 660 229 681 257 681 c 0
 417 681 704 626 635 303 c 0
 587 79 409 -19 216 -19 c 0
286 579 m 1
 239 361 l 1
 309 361 l 2
 336 361 355 339 349 311 c 0
 343 285 315 262 288 262 c 2
 218 262 l 1
 181 87 l 1
 197 84 218 81 238 81 c 0
 390 81 503 154 535 303 c 0
 576 494 450 566 286 579 c 1
EndSplineSet
EndChar
StartChar: Ntilde
Encoding: 209 209 167
Width: 645
Flags: MW
HStem: 0 21G<42 69 451.5 472.5> 662 20G<589 616> 705 88<493.5 511.5 493.5 514.5> 705 188<448 623.5> 788 89<351 366.5>
LayerCount: 2
Back
Fore
SplineSet
422 22 m 2xe0
 206 473 l 1
 115 49 l 2
 109 21 83 0 55 0 c 0
 29 0 10 23 16 49 c 2
 141 632 l 2
 146 658 170 681 199 681 c 0
 214 681 230 673 236 660 c 2
 452 207 l 1
 543 632 l 2
 549 659 575 682 603 682 c 0
 629 682 648 659 642 632 c 2
 518 49 l 2
 512 20 486 0 459 0 c 0
 444 0 429 8 422 22 c 2xe0
579 871 m 0
 586 886 599 893 614 893 c 0
 633 893 651 883 646 860 c 0
 645 856 644 849 639 838 c 0
 622 807 565 705 464 705 c 0xd0
 432 705 409 722 394 753 c 0
 382 776 374 788 359 788 c 0
 324 788 296 736 288 720 c 0
 279 705 269 698 254 698 c 0
 235 698 217 708 222 731 c 0
 223 735 224 742 230 753 c 0
 259 810 312 877 390 877 c 0xc8
 429 877 451 860 467 829 c 0
 478 807 486 793 501 793 c 0
 522 793 553 817 579 871 c 0
EndSplineSet
EndChar
StartChar: Ograve
Encoding: 210 210 168
Width: 686
Flags: MW
HStem: -2 95<230 327.5 230 335> 587 95<362.5 462.5> 698 218<421 504>
LayerCount: 2
Back
Fore
SplineSet
256 -2 m 0
 107 -2 32 144 68 315 c 0
 111 514 283 682 440 682 c 0
 587 682 665 538 628 365 c 0
 586 166 414 -2 256 -2 c 0
414 587 m 0
 311 587 197 466 164 315 c 0
 139 194 184 93 276 93 c 0
 379 93 501 216 532 361 c 0
 556 475 511 587 414 587 c 0
461 713 m 2
 378 824 l 2
 370 834 366 846 370 862 c 0
 376 890 407 916 435 916 c 0
 453 916 467 906 475 894 c 2
 544 775 l 2
 551 763 552 755 550 745 c 0
 544 718 516 698 492 698 c 0
 477 698 467 704 461 713 c 2
EndSplineSet
EndChar
StartChar: Oacute
Encoding: 211 211 169
Width: 686
Flags: MW
HStem: -2 95<230 327.5 230 335> 587 95<362.5 462.5> 882 20G<551.5 575>
LayerCount: 2
Back
Fore
SplineSet
256 -2 m 0
 107 -2 32 144 68 315 c 0
 111 514 283 682 440 682 c 0
 587 682 665 538 628 365 c 0
 586 166 414 -2 256 -2 c 0
414 587 m 0
 311 587 197 466 164 315 c 0
 139 194 184 93 276 93 c 0
 379 93 501 216 532 361 c 0
 556 475 511 587 414 587 c 0
380 790 m 2
 515 883 l 2
 527 891 543 902 560 902 c 0
 590 902 608 878 602 847 c 0
 598 832 590 817 574 807 c 2
 432 722 l 2
 420 715 407 709 396 709 c 0
 372 709 355 730 360 757 c 0
 363 768 368 781 380 790 c 2
EndSplineSet
EndChar
StartChar: Ocircumflex
Encoding: 212 212 170
Width: 686
Flags: MW
HStem: -2 95<230 327.5 230 335> 587 95<362.5 462.5> 682 21G<326.5 513.5> 878 20G<497.5 508>
LayerCount: 2
Back
Fore
SplineSet
256 -2 m 0xd0
 107 -2 32 144 68 315 c 0
 111 514 283 682 440 682 c 0
 587 682 665 538 628 365 c 0
 586 166 414 -2 256 -2 c 0xd0
414 587 m 0
 311 587 197 466 164 315 c 0
 139 194 184 93 276 93 c 0
 379 93 501 216 532 361 c 0
 556 475 511 587 414 587 c 0
328 786 m 2
 468 886 l 2
 481 895 493 898 502 898 c 0
 514 898 527 892 537 880 c 2
 612 784 l 2
 620 774 622 763 619 750 c 0
 614 725 588 703 563 703 c 0
 551 703 541 705 532 715 c 2
 474 781 l 1
 370 712 l 2
 357 704 349 703 339 703 c 0xb0
 314 703 296 723 302 750 c 0
 305 763 313 776 328 786 c 2
EndSplineSet
EndChar
StartChar: Otilde
Encoding: 213 213 171
Width: 686
Flags: MW
HStem: -2 95<230 327.5 230 335> 587 95<362.5 462.5> 705 88<538.5 556.5 538.5 559.5> 705 188<493 668.5> 788 89<396 411.5>
LayerCount: 2
Back
Fore
SplineSet
256 -2 m 0xe0
 107 -2 32 144 68 315 c 0
 111 514 283 682 440 682 c 0
 587 682 665 538 628 365 c 0
 586 166 414 -2 256 -2 c 0xe0
414 587 m 0
 311 587 197 466 164 315 c 0
 139 194 184 93 276 93 c 0
 379 93 501 216 532 361 c 0
 556 475 511 587 414 587 c 0
624 871 m 0
 631 886 644 893 659 893 c 0
 678 893 696 883 691 860 c 0
 690 856 689 849 684 838 c 0
 667 807 610 705 509 705 c 0xd0
 477 705 454 722 439 753 c 0
 427 776 419 788 404 788 c 0
 369 788 341 736 333 720 c 0
 324 705 314 698 299 698 c 0
 280 698 262 708 267 731 c 0
 268 735 269 742 275 753 c 0
 304 810 357 877 435 877 c 0xc8
 474 877 496 860 512 829 c 0
 523 807 531 793 546 793 c 0
 567 793 598 817 624 871 c 0
EndSplineSet
EndChar
StartChar: Odieresis
Encoding: 214 214 172
Width: 686
Flags: MW
HStem: -2 95<230 327.5 230 335> 587 95<362.5 462.5> 703 124<371.5 379 559.5 567>
LayerCount: 2
Back
Fore
SplineSet
444 767 m 0
 436 732 399 703 359 703 c 0
 323 703 299 727 306 762 c 0
 314 796 352 827 391 827 c 0
 424 827 451 801 444 767 c 0
632 767 m 0
 624 732 587 703 547 703 c 0
 511 703 487 727 494 762 c 0
 502 796 540 827 579 827 c 0
 612 827 639 801 632 767 c 0
256 -2 m 0
 107 -2 32 144 68 315 c 0
 111 514 283 682 440 682 c 0
 587 682 665 538 628 365 c 0
 586 166 414 -2 256 -2 c 0
414 587 m 0
 311 587 197 466 164 315 c 0
 139 194 184 93 276 93 c 0
 379 93 501 216 532 361 c 0
 556 475 511 587 414 587 c 0
EndSplineSet
EndChar
StartChar: multiply
Encoding: 215 215 173
Width: 467
Flags: MW
HStem: 109 21G<90 111> 110 21G<271.5 290.5> 356 20G
LayerCount: 2
Back
Fore
SplineSet
139 123 m 0x60
 128 114 118 109 104 109 c 0xa0
 76 109 62 134 66 155 c 0
 69 168 78 181 88 189 c 2
 154 243 l 1
 116 290 l 2
 110 298 107 309 110 323 c 0
 115 346 141 370 166 370 c 0
 181 370 190 364 197 356 c 2
 234 310 l 1
 299 363 l 2
 308 371 321 376 332 376 c 0
 365 376 376 354 370 328 c 0
 368 316 360 304 352 297 c 2
 286 243 l 1
 328 190 l 2
 334 182 337 171 334 157 c 0
 328 129 303 110 278 110 c 0
 265 110 255 116 248 124 c 2
 205 177 l 1
 183 159 160 141 139 123 c 0x60
EndSplineSet
EndChar
StartChar: Oslash
Encoding: 216 216 127
Width: 686
Flags: MW
HStem: -30 21G<54 79> -2 95<262.5 327.5 262.5 335> 587 95<362.5 421> 719 20G<599 619>
LayerCount: 2
Back
Fore
SplineSet
522 664 m 1
 560 714 l 2
 574 732 590 739 608 739 c 0
 630 739 651 721 645 692 c 0
 643 686 641 677 634 668 c 2
 589 610 l 1
 634 551 649 464 628 365 c 0
 586 166 414 -2 256 -2 c 0
 213 -2 175 11 146 33 c 1
 116 -6 l 2
 104 -21 88 -30 70 -30 c 0
 38 -30 27 -9 32 18 c 0
 34 24 38 33 43 40 c 2
 88 100 l 1
 58 156 51 232 68 315 c 0
 111 514 283 682 440 682 c 0
 472 682 496 676 522 664 c 1
276 93 m 0
 379 93 501 216 532 361 c 0
 545 419 540 474 518 517 c 1
 210 115 l 1
 229 100 249 93 276 93 c 0
414 587 m 0
 311 587 197 466 164 315 c 0
 154 268 152 234 162 197 c 1
 264 329 354 444 456 578 c 1
 445 584 428 587 414 587 c 0
EndSplineSet
EndChar
StartChar: Ugrave
Encoding: 217 217 174
Width: 709
Flags: MW
HStem: 0 92<234.5 341.5 234.5 367.5> 698 218<401 484>
LayerCount: 2
Back
Fore
SplineSet
441 713 m 2
 358 824 l 2
 350 834 346 846 350 862 c 0
 356 890 387 916 415 916 c 0
 433 916 447 906 455 894 c 2
 524 775 l 2
 531 763 532 755 530 745 c 0
 524 718 496 698 472 698 c 0
 457 698 447 704 441 713 c 2
701 633 m 0
 678 507 661 400 616 270 c 0
 561 110 456 0 279 0 c 0
 110 0 47 151 86 367 c 0
 105 474 123 549 142 634 c 0
 146 650 163 681 204 681 c 0
 244 681 245 649 242 633 c 0
 221 544 205 474 188 381 c 0
 163 236 169 92 300 92 c 0
 383 92 473 139 518 277 c 0
 557 397 573 498 602 631 c 0
 605 647 619 681 662 681 c 0
 705 681 704 648 701 633 c 0
EndSplineSet
EndChar
StartChar: Uacute
Encoding: 218 218 175
Width: 709
Flags: MW
HStem: 0 92<234.5 341.5 234.5 367.5> 882 20G<551.5 575>
LayerCount: 2
Back
Fore
SplineSet
701 633 m 0
 678 507 661 400 616 270 c 0
 561 110 456 0 279 0 c 0
 110 0 47 151 86 367 c 0
 105 474 123 549 142 634 c 0
 146 650 163 681 204 681 c 0
 244 681 245 649 242 633 c 0
 221 544 205 474 188 381 c 0
 163 236 169 92 300 92 c 0
 383 92 473 139 518 277 c 0
 557 397 573 498 602 631 c 0
 605 647 619 681 662 681 c 0
 705 681 704 648 701 633 c 0
380 790 m 2
 515 883 l 2
 527 891 543 902 560 902 c 0
 590 902 608 878 602 847 c 0
 598 832 590 817 574 807 c 2
 432 722 l 2
 420 715 407 709 396 709 c 0
 372 709 355 730 360 757 c 0
 363 768 368 781 380 790 c 2
EndSplineSet
EndChar
StartChar: Ucircumflex
Encoding: 219 219 176
Width: 709
Flags: MW
HStem: 0 92<234.5 341.5 234.5 367.5> 681 22 878 20G<492.5 503>
LayerCount: 2
Back
Fore
SplineSet
701 633 m 0
 678 507 661 400 616 270 c 0
 561 110 456 0 279 0 c 0
 110 0 47 151 86 367 c 0
 105 474 123 549 142 634 c 0
 146 650 163 681 204 681 c 0
 244 681 245 649 242 633 c 0
 221 544 205 474 188 381 c 0
 163 236 169 92 300 92 c 0
 383 92 473 139 518 277 c 0
 557 397 573 498 602 631 c 0
 605 647 619 681 662 681 c 0
 705 681 704 648 701 633 c 0
323 786 m 2
 463 886 l 2
 476 895 488 898 497 898 c 0
 509 898 522 892 532 880 c 2
 607 784 l 2
 615 774 617 763 614 750 c 0
 609 725 583 703 558 703 c 0
 546 703 536 705 527 715 c 2
 469 781 l 1
 365 712 l 2
 352 704 344 703 334 703 c 0
 309 703 291 723 297 750 c 0
 300 763 308 776 323 786 c 2
EndSplineSet
EndChar
StartChar: Udieresis
Encoding: 220 220 177
Width: 709
Flags: MW
HStem: 0 92<234.5 341.5 234.5 367.5> 703 124<353.5 362 542 550>
LayerCount: 2
Back
Fore
SplineSet
427 767 m 0
 419 732 382 703 342 703 c 0
 306 703 282 727 289 762 c 0
 297 796 334 827 373 827 c 0
 407 827 434 801 427 767 c 0
615 767 m 0
 607 732 570 703 530 703 c 0
 494 703 470 727 477 762 c 0
 485 796 522 827 562 827 c 0
 595 827 622 801 615 767 c 0
701 633 m 0
 678 507 661 400 616 270 c 0
 561 110 456 0 279 0 c 0
 110 0 47 151 86 367 c 0
 105 474 123 549 142 634 c 0
 146 650 163 681 204 681 c 0
 244 681 245 649 242 633 c 0
 221 544 205 474 188 381 c 0
 163 236 169 92 300 92 c 0
 383 92 473 139 518 277 c 0
 557 397 573 498 602 631 c 0
 605 647 619 681 662 681 c 0
 705 681 704 648 701 633 c 0
EndSplineSet
EndChar
StartChar: Thorn
Encoding: 222 222 117
Width: 573
Flags: MW
HStem: 0 21G<38 64.5> 134 98 483 96<202 223 202 223> 483 197<202 209.5 184 213 202 202>
LayerCount: 2
Back
Fore
SplineSet
234 632 m 2xd0
 223 579 l 1xe0
 367 577 548 550 511 373 c 0
 474 198 269 142 127 134 c 1
 108 47 l 2
 103 20 78 0 51 0 c 0
 25 0 8 20 14 48 c 2
 140 633 l 2
 146 660 171 680 197 680 c 0
 222 680 240 660 234 632 c 2xd0
148 232 m 1
 241 238 395 270 417 373 c 0
 431 442 356 483 213 483 c 2
 202 483 l 1
 202 483 166 316 148 232 c 1
EndSplineSet
EndChar
StartChar: germandbls
Encoding: 223 223 126
Width: 551
Flags: MW
HStem: -23 93<223 266.5 223 273> -1 21G<40 64.5> 533 93<269 311.5>
LayerCount: 2
Back
Fore
SplineSet
265 378 m 0xa0
 317 383 342 410 351 455 c 0
 360 498 333 533 290 533 c 0
 248 533 204 498 195 455 c 2
 108 45 l 2
 103 21 77 -1 52 -1 c 0x60
 28 -1 11 21 16 45 c 2
 103 455 l 2
 123 550 216 626 310 626 c 0
 404 626 463 550 443 455 c 0
 436 421 420 386 393 360 c 1
 448 337 482 271 463 179 c 0
 439 69 328 -23 218 -23 c 0
 190 -23 172 -4 178 24 c 0
 184 52 209 70 237 70 c 0
 296 70 357 120 370 180 c 0
 383 240 354 299 278 288 c 0
 269 287 259 285 247 285 c 0
 224 285 205 302 211 331 c 0
 216 355 238 375 265 378 c 0xa0
EndSplineSet
EndChar
StartChar: agrave
Encoding: 224 224 135
Width: 531
Flags: MW
HStem: -10 21G<328 355> -3 96<168 204> 407 95<266.5 330.5> 528 218<325 408>
LayerCount: 2
Back
Fore
SplineSet
488 456 m 1x70
 400 40 l 2
 394 14 369 -10 341 -10 c 0xb0
 315 -10 303 5 302 25 c 1
 266 10 224 -3 184 -3 c 0
 74 -3 10 85 37 216 c 0
 59 319 163 502 338 502 c 0
 410 502 472 465 488 456 c 1x70
322 134 m 1
 380 395 l 1
 365 402 341 407 320 407 c 0
 213 407 149 285 135 218 c 0
 123 164 133 93 203 93 c 0x70
 243 93 294 118 322 134 c 1
365 543 m 2
 282 654 l 2
 274 664 270 676 274 692 c 0
 280 720 311 746 339 746 c 0
 357 746 371 736 378 724 c 2
 448 605 l 2
 455 593 456 585 454 575 c 0
 448 548 420 528 396 528 c 0
 381 528 371 534 365 543 c 2
EndSplineSet
EndChar
StartChar: aacute
Encoding: 225 225 134
Width: 531
Flags: MW
HStem: -10 21G<328 355> -3 96<168 204> 407 95<266.5 330.5> 702 20G<468.5 492>
LayerCount: 2
Back
Fore
SplineSet
488 456 m 1x70
 400 40 l 2
 394 14 369 -10 341 -10 c 0xb0
 315 -10 303 5 302 25 c 1
 266 10 224 -3 184 -3 c 0
 74 -3 10 85 37 216 c 0
 59 319 163 502 338 502 c 0
 410 502 472 465 488 456 c 1x70
322 134 m 1
 380 395 l 1
 365 402 341 407 320 407 c 0
 213 407 149 285 135 218 c 0
 123 164 133 93 203 93 c 0x70
 243 93 294 118 322 134 c 1
297 610 m 2
 432 703 l 2
 444 711 460 722 477 722 c 0
 507 722 525 698 518 667 c 0
 515 652 507 637 491 627 c 2
 349 542 l 2
 337 535 324 529 313 529 c 0
 289 529 271 550 277 577 c 0
 279 588 284 601 297 610 c 2
EndSplineSet
EndChar
StartChar: acircumflex
Encoding: 226 226 131
Width: 531
Flags: MW
HStem: -10 21G<328 355> -3 96<168 204> 407 95<266.5 330.5> 502 41<227.5 374> 718 20G<398.5 409>
LayerCount: 2
Back
Fore
SplineSet
488 456 m 1x68
 400 40 l 2
 394 14 369 -10 341 -10 c 0xa8
 315 -10 303 5 302 25 c 1
 266 10 224 -3 184 -3 c 0
 74 -3 10 85 37 216 c 0
 59 319 163 502 338 502 c 0
 410 502 472 465 488 456 c 1x68
322 134 m 1
 380 395 l 1
 365 402 341 407 320 407 c 0
 213 407 149 285 135 218 c 0
 123 164 133 93 203 93 c 0x68
 243 93 294 118 322 134 c 1
229 626 m 2
 369 726 l 2
 382 735 394 738 403 738 c 0
 415 738 428 732 438 720 c 2
 513 624 l 2
 521 614 523 603 520 590 c 0
 515 565 489 543 464 543 c 0
 452 543 442 545 433 555 c 2
 374 621 l 1
 271 552 l 2
 258 544 250 543 240 543 c 0x58
 215 543 197 563 203 590 c 0
 206 603 214 616 229 626 c 2
EndSplineSet
EndChar
StartChar: atilde
Encoding: 227 227 132
Width: 531
Flags: MW
HStem: -10 21G<328 355> -3 96<168 204> 407 95<266.5 330.5> 525 88<405.5 423.5 405.5 426.5> 525 188<360 535.5> 608 89<263 278.5>
LayerCount: 2
Back
Fore
SplineSet
488 456 m 1x70
 400 40 l 2
 394 14 369 -10 341 -10 c 0xb0
 315 -10 303 5 302 25 c 1
 266 10 224 -3 184 -3 c 0
 74 -3 10 85 37 216 c 0
 59 319 163 502 338 502 c 0
 410 502 472 465 488 456 c 1x70
322 134 m 1
 380 395 l 1
 365 402 341 407 320 407 c 0
 213 407 149 285 135 218 c 0
 123 164 133 93 203 93 c 0x70
 243 93 294 118 322 134 c 1
490 691 m 0
 498 706 511 713 526 713 c 0
 545 713 563 703 558 680 c 0
 557 676 556 669 550 658 c 0
 534 627 477 525 376 525 c 0x68
 344 525 321 542 305 573 c 0
 294 596 286 608 271 608 c 0
 236 608 208 556 199 540 c 0
 191 525 181 518 166 518 c 0
 147 518 129 528 134 551 c 0
 134 555 136 562 141 573 c 0
 170 630 224 697 302 697 c 0x64
 341 697 363 680 378 649 c 0
 390 627 398 613 413 613 c 0
 434 613 465 637 490 691 c 0
EndSplineSet
EndChar
StartChar: adieresis
Encoding: 228 228 133
Width: 531
Flags: MW
HStem: -10 21G<328 355> -3 96<168 204> 407 95<266.5 330.5> 543 121<260 267.5 444.5 451.5>
LayerCount: 2
Back
Fore
SplineSet
330 606 m 0x70
 323 571 287 543 248 543 c 0
 212 543 189 567 196 601 c 0
 203 634 241 664 279 664 c 0
 312 664 337 639 330 606 c 0x70
514 606 m 0
 507 571 471 543 432 543 c 0
 397 543 374 567 381 601 c 0
 388 634 425 664 464 664 c 0
 496 664 521 639 514 606 c 0
488 456 m 1
 400 40 l 2
 394 14 369 -10 341 -10 c 0xb0
 315 -10 303 5 302 25 c 1
 266 10 224 -3 184 -3 c 0
 74 -3 10 85 37 216 c 0
 59 319 163 502 338 502 c 0
 410 502 472 465 488 456 c 1
322 134 m 1
 380 395 l 1
 365 402 341 407 320 407 c 0
 213 407 149 285 135 218 c 0
 123 164 133 93 203 93 c 0x70
 243 93 294 118 322 134 c 1
EndSplineSet
EndChar
StartChar: aring
Encoding: 229 229 130
Width: 531
Flags: MW
HStem: -10 21G<328 355> -3 96<168 204> 407 95<266.5 330.5> 531 88<359.5 382> 688 88<381.5 410>
LayerCount: 2
Back
Fore
SplineSet
346 531 m 0x78
 277 531 231 582 245 647 c 0
 261 722 345 776 418 776 c 0
 485 776 534 725 520 660 c 0
 503 583 418 531 346 531 c 0x78
397 688 m 0
 361 688 333 664 329 647 c 0
 325 630 345 619 374 619 c 0
 396 619 430 633 435 658 c 0
 438 672 423 688 397 688 c 0
488 456 m 1
 400 40 l 2
 394 14 369 -10 341 -10 c 0xb8
 315 -10 303 5 302 25 c 1
 266 10 224 -3 184 -3 c 0
 74 -3 10 85 37 216 c 0
 59 319 163 502 338 502 c 0
 410 502 472 465 488 456 c 1
322 134 m 1
 380 395 l 1
 365 402 341 407 320 407 c 0
 213 407 149 285 135 218 c 0
 123 164 133 93 203 93 c 0x78
 243 93 294 118 322 134 c 1
EndSplineSet
EndChar
StartChar: ae
Encoding: 230 230 121
Width: 858
Flags: MW
HStem: 0 21G<328.5 352 504.5 564> 7 86 7 144 392 92<597 619> 404 94<272 329>
LayerCount: 2
Back
Fore
SplineSet
712 74 m 0x30
 666 33 595 0 533 0 c 0
 476 0 431 15 397 44 c 1
 390 23 364 0 340 0 c 0x88
 317 0 302 16 301 34 c 1
 268 20 227 7 190 7 c 0
 82 7 18 86 46 217 c 0
 81 382 212 498 332 498 c 0x48
 395 498 457 469 473 455 c 1
 468 429 l 1
 516 468 574 484 620 484 c 0
 744 484 784 391 774 344 c 0
 770 327 754 310 732 298 c 2
 440 148 l 1
 461 112 505 93 558 93 c 0x50
 591 93 630 112 656 135 c 0
 667 145 679 151 695 151 c 0
 721 151 736 131 731 104 c 0
 728 92 722 82 712 74 c 0x30
319 140 m 1
 378 392 l 1x50
 363 398 339 404 319 404 c 0
 216 404 154 285 140 220 c 0
 126 154 149 101 206 101 c 0
 242 101 292 123 319 140 c 1
427 234 m 1
 680 359 l 1
 668 381 642 392 596 392 c 0
 519 392 450 322 427 234 c 1
EndSplineSet
EndChar
StartChar: ccedilla
Encoding: 231 231 179
Width: 535
Flags: MW
HStem: -196 87<160 162.5 142.5 208> 0 93 349 151<273.5 421> 407 93<280 324>
LayerCount: 2
Back
Fore
SplineSet
185 -126 m 0xd0
 189 -130 194 -132 203 -132 c 0
 219 -132 229 -118 232 -106 c 0
 235 -94 228 -86 213 -83 c 2
 166 -73 l 2
 148 -69 149 -53 158 -35 c 0
 165 -20 171 -7 177 3 c 1
 79 22 14 106 38 219 c 0
 48 266 71 310 87 335 c 0
 126 401 224 500 323 500 c 0
 398 500 430 476 460 430 c 0
 467 419 468 408 466 396 c 0
 460 370 434 349 408 349 c 0xe0
 391 349 384 354 379 361 c 0
 361 389 343 407 305 407 c 0
 255 407 194 346 166 302 c 0
 148 272 137 243 132 221 c 0
 111 122 193 93 227 93 c 0
 284 93 321 117 350 147 c 0
 359 156 375 172 398 172 c 0
 424 172 441 151 435 124 c 0
 432 112 425 102 417 94 c 0
 375 50 303 5 233 0 c 1
 232 -9 231 -18 229 -27 c 1
 287 -37 313 -61 302 -110 c 0
 290 -168 237 -196 179 -196 c 0
 141 -196 103 -180 110 -148 c 0
 114 -131 131 -109 154 -109 c 0
 171 -109 176 -118 185 -126 c 0xd0
EndSplineSet
EndChar
StartChar: egrave
Encoding: 232 232 180
Width: 547
Flags: MW
HStem: 0 93<232.5 273> 0 151<166 419.5> 405 94<267.5 329> 528 218<315 398>
LayerCount: 2
Back
Fore
SplineSet
369 135 m 0xb0
 380 144 393 151 406 151 c 0x70
 433 151 448 131 443 104 c 0
 440 92 433 81 424 74 c 0
 380 33 304 0 242 0 c 0
 90 0 18 114 44 239 c 0
 73 376 189 499 326 499 c 0
 458 499 497 402 487 355 c 0
 483 338 470 321 446 309 c 2
 145 155 l 1
 166 114 204 93 261 93 c 0
 294 93 342 112 369 135 c 0xb0
137 247 m 1
 390 372 l 1
 378 394 352 405 306 405 c 0
 229 405 160 335 137 247 c 1
355 543 m 2
 272 654 l 2
 264 664 260 676 264 692 c 0
 270 720 301 746 329 746 c 0
 347 746 361 736 368 724 c 2
 438 605 l 2
 445 593 446 585 444 575 c 0
 438 548 410 528 386 528 c 0
 371 528 361 534 355 543 c 2
EndSplineSet
EndChar
StartChar: eacute
Encoding: 233 233 181
Width: 547
Flags: MW
HStem: 0 93<232.5 273> 405 94<267.5 329> 702 20G<448.5 472>
LayerCount: 2
Back
Fore
SplineSet
369 135 m 0
 380 144 393 151 406 151 c 0
 433 151 448 131 443 104 c 0
 440 92 433 81 424 74 c 0
 380 33 304 0 242 0 c 0
 90 0 18 114 44 239 c 0
 73 376 189 499 326 499 c 0
 458 499 497 402 487 355 c 0
 483 338 470 321 446 309 c 2
 145 155 l 1
 166 114 204 93 261 93 c 0
 294 93 342 112 369 135 c 0
137 247 m 1
 390 372 l 1
 378 394 352 405 306 405 c 0
 229 405 160 335 137 247 c 1
277 610 m 2
 412 703 l 2
 424 711 440 722 457 722 c 0
 487 722 505 698 498 667 c 0
 495 652 487 637 471 627 c 2
 329 542 l 2
 317 535 304 529 293 529 c 0
 269 529 251 550 257 577 c 0
 259 588 264 601 277 610 c 2
EndSplineSet
EndChar
StartChar: ecircumflex
Encoding: 234 234 182
Width: 547
Flags: MW
HStem: 0 93<232.5 273> 405 94<267.5 329> 499 44<227.5 392> 718 20G<398.5 409>
LayerCount: 2
Back
Fore
SplineSet
369 135 m 0xd0
 380 144 393 151 406 151 c 0
 433 151 448 131 443 104 c 0
 440 92 433 81 424 74 c 0
 380 33 304 0 242 0 c 0
 90 0 18 114 44 239 c 0
 73 376 189 499 326 499 c 0
 458 499 497 402 487 355 c 0
 483 338 470 321 446 309 c 2
 145 155 l 1
 166 114 204 93 261 93 c 0
 294 93 342 112 369 135 c 0xd0
137 247 m 1
 390 372 l 1
 378 394 352 405 306 405 c 0
 229 405 160 335 137 247 c 1
229 626 m 2
 369 726 l 2
 382 735 394 738 403 738 c 0
 415 738 428 732 438 720 c 2
 513 624 l 2
 521 614 523 603 520 590 c 0
 515 565 489 543 464 543 c 0
 452 543 442 545 433 555 c 2
 374 621 l 1
 271 552 l 2
 258 544 250 543 240 543 c 0xb0
 215 543 197 563 203 590 c 0
 206 603 214 616 229 626 c 2
EndSplineSet
EndChar
StartChar: edieresis
Encoding: 235 235 183
Width: 547
Flags: MW
HStem: 0 93<232.5 273> 0 151<166 419.5> 405 94<267.5 329> 543 121<266 273.5 451 457.5>
LayerCount: 2
Back
Fore
SplineSet
336 606 m 0xb0
 329 571 293 543 254 543 c 0
 218 543 195 567 202 601 c 0
 209 634 247 664 285 664 c 0
 318 664 343 639 336 606 c 0xb0
520 606 m 0
 513 571 477 543 438 543 c 0
 403 543 380 567 387 601 c 0
 394 634 432 664 470 664 c 0
 502 664 527 639 520 606 c 0
369 135 m 0
 380 144 393 151 406 151 c 0x70
 433 151 448 131 443 104 c 0
 440 92 433 81 424 74 c 0
 380 33 304 0 242 0 c 0
 90 0 18 114 44 239 c 0
 73 376 189 499 326 499 c 0
 458 499 497 402 487 355 c 0
 483 338 470 321 446 309 c 2
 145 155 l 1
 166 114 204 93 261 93 c 0
 294 93 342 112 369 135 c 0
137 247 m 1
 390 372 l 1
 378 394 352 405 306 405 c 0
 229 405 160 335 137 247 c 1
EndSplineSet
EndChar
StartChar: igrave
Encoding: 236 236 184
Width: 245
Flags: MW
HStem: 0 21G<44.5 71.5> 528 218<160 243>
LayerCount: 2
Back
Fore
SplineSet
208 447 m 2
 117 49 l 2
 111 22 85 0 58 0 c 0
 31 0 13 22 19 49 c 2
 110 447 l 2
 115 474 141 496 169 496 c 0
 196 496 213 474 208 447 c 2
200 543 m 2
 117 654 l 2
 109 664 105 676 109 692 c 0
 115 720 146 746 174 746 c 0
 192 746 206 736 213 724 c 2
 283 605 l 2
 290 593 291 585 289 575 c 0
 283 548 255 528 231 528 c 0
 216 528 206 534 200 543 c 2
EndSplineSet
EndChar
StartChar: iacute
Encoding: 237 237 185
Width: 245
Flags: MW
HStem: 0 21G<44.5 71.5> 702 20G<268.5 292>
LayerCount: 2
Back
Fore
SplineSet
208 447 m 2
 117 49 l 2
 111 22 85 0 58 0 c 0
 31 0 13 22 19 49 c 2
 109 447 l 2
 114 474 141 496 169 496 c 0
 196 496 213 474 208 447 c 2
97 610 m 2
 232 703 l 2
 244 711 260 722 277 722 c 0
 307 722 325 698 318 667 c 0
 315 652 307 637 291 627 c 2
 149 542 l 2
 137 535 124 529 113 529 c 0
 89 529 71 550 77 577 c 0
 79 588 84 601 97 610 c 2
EndSplineSet
EndChar
StartChar: icircumflex
Encoding: 238 238 186
Width: 285
Flags: MW
HStem: 0 21G<67.5 94.5> 718 20G<248.5 259>
LayerCount: 2
Back
Fore
SplineSet
230 447 m 2
 140 49 l 2
 134 22 108 0 81 0 c 0
 54 0 36 22 42 49 c 2
 132 447 l 2
 137 474 164 496 191 496 c 0
 219 496 235 474 230 447 c 2
79 626 m 2
 219 726 l 2
 232 735 244 738 253 738 c 0
 265 738 278 732 288 720 c 2
 363 624 l 2
 371 614 373 603 370 590 c 0
 365 565 339 543 314 543 c 0
 302 543 292 545 283 555 c 2
 224 621 l 1
 121 552 l 2
 108 544 100 543 90 543 c 0
 65 543 47 563 53 590 c 0
 56 603 64 616 79 626 c 2
EndSplineSet
EndChar
StartChar: idieresis
Encoding: 239 239 187
Width: 309
Flags: MW
HStem: 0 21G<72.5 99.5> 543 121<127 134 311 318.5>
LayerCount: 2
Back
Fore
SplineSet
235 447 m 2
 145 49 l 2
 139 22 113 0 86 0 c 0
 59 0 41 22 47 49 c 2
 137 447 l 2
 142 474 169 496 196 496 c 0
 223 496 240 474 235 447 c 2
197 606 m 0
 190 571 154 543 114 543 c 0
 79 543 56 567 63 601 c 0
 70 634 108 664 146 664 c 0
 179 664 204 639 197 606 c 0
381 606 m 0
 374 571 338 543 299 543 c 0
 263 543 240 567 247 601 c 0
 254 634 292 664 330 664 c 0
 363 664 388 639 381 606 c 0
EndSplineSet
EndChar
StartChar: eth
Encoding: 240 240 116
Width: 508
Flags: MW
HStem: 1 92<160 223.5 160 233> 635 20G<432 451>
LayerCount: 2
Back
Fore
SplineSet
294 645 m 0
 297 643 302 639 324 611 c 1
 372 636 423 655 441 655 c 0
 461 655 478 640 472 615 c 0
 469 602 464 589 444 580 c 2
 370 547 l 1
 423 467 461 364 438 255 c 0
 411 129 302 1 164 1 c 0
 67 1 7 74 31 184 c 0
 61 327 174 419 316 438 c 1
 306 459 292 485 279 501 c 1
 243 482 224 472 205 461 c 0
 185 449 175 443 164 443 c 0
 141 443 127 459 132 482 c 0
 136 499 145 510 161 520 c 0
 177 531 196 544 230 561 c 1
 217 575 210 584 214 605 c 0
 219 630 246 651 270 651 c 0
 281 651 285 650 294 645 c 0
183 93 m 0
 264 93 328 174 346 258 c 0
 353 289 352 320 345 351 c 1
 243 349 147 303 122 184 c 0
 109 127 137 93 183 93 c 0
EndSplineSet
EndChar
StartChar: ntilde
Encoding: 241 241 188
Width: 561
Flags: MW
HStem: 0 21G<42 70 360 386.5> 404 95<340 365> 525 88<420.5 438.5 420.5 441.5> 525 188<375 550.5> 608 89<278 293.5>
LayerCount: 2
Back
Fore
SplineSet
199 452 m 2xe0
 186 395 l 1
 236 451 306 499 374 499 c 0
 507 499 505 392 454 161 c 2
 429 48 l 2
 423 23 400 0 373 0 c 0
 347 0 329 23 334 47 c 2
 362 178 l 2
 409 398 381 404 349 404 c 0
 317 404 274 387 214 308 c 0
 173 254 143 194 130 134 c 2
 112 50 l 2
 106 22 85 0 55 0 c 0
 29 0 11 22 16 46 c 2
 103 452 l 2
 108 479 137 500 163 500 c 0
 188 500 204 479 199 452 c 2xe0
505 691 m 0
 513 706 526 713 541 713 c 0
 560 713 578 703 573 680 c 0
 572 676 571 669 565 658 c 0
 549 627 492 525 391 525 c 0xd0
 359 525 336 542 320 573 c 0
 309 596 301 608 286 608 c 0
 251 608 223 556 214 540 c 0
 206 525 196 518 181 518 c 0
 162 518 144 528 149 551 c 0
 149 555 151 562 156 573 c 0
 185 630 239 697 317 697 c 0xc8
 356 697 378 680 393 649 c 0
 405 627 413 613 428 613 c 0
 449 613 480 637 505 691 c 0
EndSplineSet
EndChar
StartChar: ograve
Encoding: 242 242 189
Width: 561
Flags: MW
HStem: 0 89<184.5 252.5 184.5 262.5> 411 89<274 341> 528 218<330 413>
LayerCount: 2
Back
Fore
SplineSet
199 0 m 0
 82 0 15 104 42 232 c 0
 73 377 206 500 333 500 c 0
 450 500 517 392 490 268 c 0
 459 122 326 0 199 0 c 0
310 411 m 0
 238 411 159 328 139 233 c 0
 122 155 152 89 217 89 c 0
 288 89 371 170 390 263 c 0
 407 342 372 411 310 411 c 0
370 543 m 2
 287 654 l 2
 279 664 275 676 279 692 c 0
 285 720 316 746 344 746 c 0
 362 746 376 736 383 724 c 2
 453 605 l 2
 460 593 461 585 459 575 c 0
 453 548 425 528 401 528 c 0
 386 528 376 534 370 543 c 2
EndSplineSet
EndChar
StartChar: oacute
Encoding: 243 243 190
Width: 561
Flags: MW
HStem: 0 89<184.5 252.5 184.5 262.5> 411 89<274 341> 702 20G<443.5 467>
LayerCount: 2
Back
Fore
SplineSet
199 0 m 0
 82 0 15 104 42 232 c 0
 73 377 206 500 333 500 c 0
 450 500 517 392 490 268 c 0
 459 122 326 0 199 0 c 0
310 411 m 0
 238 411 159 328 139 233 c 0
 122 155 152 89 217 89 c 0
 288 89 371 170 390 263 c 0
 407 342 372 411 310 411 c 0
272 610 m 2
 407 703 l 2
 419 711 435 722 452 722 c 0
 482 722 500 698 493 667 c 0
 490 652 482 637 466 627 c 2
 324 542 l 2
 312 535 299 529 288 529 c 0
 264 529 246 550 252 577 c 0
 254 588 259 601 272 610 c 2
EndSplineSet
EndChar
StartChar: ocircumflex
Encoding: 244 244 191
Width: 561
Flags: MW
HStem: 0 89<184.5 252.5 184.5 262.5> 411 89<274 341> 500 43<237.5 391.5> 718 20G<408.5 419>
LayerCount: 2
Back
Fore
SplineSet
199 0 m 0xd0
 82 0 15 104 42 232 c 0
 73 377 206 500 333 500 c 0
 450 500 517 392 490 268 c 0
 459 122 326 0 199 0 c 0xd0
310 411 m 0
 238 411 159 328 139 233 c 0
 122 155 152 89 217 89 c 0
 288 89 371 170 390 263 c 0
 407 342 372 411 310 411 c 0
239 626 m 2
 379 726 l 2
 392 735 404 738 413 738 c 0
 425 738 438 732 448 720 c 2
 523 624 l 2
 531 614 533 603 530 590 c 0
 525 565 499 543 474 543 c 0
 462 543 452 545 443 555 c 2
 384 621 l 1
 281 552 l 2
 268 544 260 543 250 543 c 0xb0
 225 543 207 563 213 590 c 0
 216 603 224 616 239 626 c 2
EndSplineSet
EndChar
StartChar: otilde
Encoding: 245 245 192
Width: 561
Flags: MW
HStem: 0 89<184.5 252.5 184.5 262.5> 411 89<274 341> 525 88<435.5 453.5 435.5 456.5> 525 188<390 565.5> 608 89<293 308.5>
LayerCount: 2
Back
Fore
SplineSet
199 0 m 0xe0
 82 0 15 104 42 232 c 0
 73 377 206 500 333 500 c 0
 450 500 517 392 490 268 c 0
 459 122 326 0 199 0 c 0xe0
310 411 m 0
 238 411 159 328 139 233 c 0
 122 155 152 89 217 89 c 0
 288 89 371 170 390 263 c 0
 407 342 372 411 310 411 c 0
520 691 m 0
 528 706 541 713 556 713 c 0
 575 713 593 703 588 680 c 0
 587 676 586 669 580 658 c 0
 564 627 507 525 406 525 c 0xd0
 374 525 351 542 335 573 c 0
 324 596 316 608 301 608 c 0
 266 608 238 556 229 540 c 0
 221 525 211 518 196 518 c 0
 177 518 159 528 164 551 c 0
 164 555 166 562 171 573 c 0
 200 630 254 697 332 697 c 0xc8
 371 697 393 680 408 649 c 0
 420 627 428 613 443 613 c 0
 464 613 495 637 520 691 c 0
EndSplineSet
EndChar
StartChar: odieresis
Encoding: 246 246 193
Width: 561
Flags: MW
HStem: 0 89<184.5 252.5 184.5 262.5> 411 89<274 341> 543 121<275 281.5 459 466.5>
LayerCount: 2
Back
Fore
SplineSet
199 0 m 0
 82 0 15 104 42 232 c 0
 73 377 206 500 333 500 c 0
 450 500 517 392 490 268 c 0
 459 122 326 0 199 0 c 0
310 411 m 0
 238 411 159 328 139 233 c 0
 122 155 152 89 217 89 c 0
 288 89 371 170 390 263 c 0
 407 342 372 411 310 411 c 0
344 606 m 0
 337 571 301 543 262 543 c 0
 227 543 204 567 211 601 c 0
 218 634 256 664 294 664 c 0
 327 664 351 639 344 606 c 0
529 606 m 0
 522 571 486 543 447 543 c 0
 411 543 388 567 395 601 c 0
 402 634 440 664 478 664 c 0
 511 664 536 639 529 606 c 0
EndSplineSet
EndChar
StartChar: divide
Encoding: 247 247 194
Width: 469
Flags: MW
HStem: 55 109<193 193.5> 197 93<90.5 356 123 336> 323 109<265 265.5>
CounterMasks: 1 e0
LayerCount: 2
Back
Fore
SplineSet
336 197 m 2
 103 197 l 2
 78 197 61 219 66 243 c 0
 72 270 98 290 123 290 c 2
 356 290 l 2
 383 290 400 270 394 243 c 0
 389 219 363 197 336 197 c 2
251 323 m 0
 222 323 208 345 214 374 c 0
 220 402 250 432 280 432 c 0
 305 432 322 410 316 382 c 0
 309 349 280 323 251 323 c 0
179 55 m 0
 151 55 137 78 143 107 c 0
 149 135 178 164 208 164 c 0
 233 164 251 143 245 115 c 0
 238 82 208 55 179 55 c 0
EndSplineSet
EndChar
StartChar: oslash
Encoding: 248 248 195
Width: 561
Flags: MW
HStem: -32 21G<49.5 70> 0 89<211.5 252.5 211.5 262.5> 411 89<274 313.5> 521 20G<455 475>
LayerCount: 2
Back
Fore
SplineSet
490 471 m 2
 461 437 l 1
 491 394 504 332 490 268 c 0
 459 122 326 0 199 0 c 0
 172 0 147 5 126 15 c 1
 106 -9 l 2
 94 -23 78 -32 62 -32 c 0
 37 -32 20 -8 27 18 c 0
 29 25 34 34 43 46 c 2
 64 71 l 1
 37 113 28 168 42 232 c 0
 73 377 206 500 333 500 c 0
 355 500 377 495 395 488 c 1
 420 518 l 2
 432 533 447 541 463 541 c 0
 487 541 505 522 501 497 c 0
 499 489 498 481 490 471 c 2
217 89 m 0
 288 89 371 170 390 263 c 0
 397 293 396 322 389 345 c 1
 188 94 l 1
 197 90 206 89 217 89 c 0
310 411 m 0
 238 411 159 328 139 233 c 0
 133 207 134 184 138 162 c 1
 332 408 l 1
 327 410 317 411 310 411 c 0
EndSplineSet
EndChar
StartChar: ugrave
Encoding: 249 249 196
Width: 538
Flags: MW
HStem: -3 90<167 191.5> 0 21G<336.5 363> 528 218<310 393>
LayerCount: 2
Back
Fore
SplineSet
494 454 m 2xa0
 408 48 l 2
 402 23 376 0 350 0 c 0x60
 323 0 307 17 307 40 c 1
 268 16 217 -3 166 -3 c 0
 67 -3 13 22 68 287 c 0
 82 360 100 414 113 449 c 0
 128 492 146 500 171 500 c 0
 196 500 216 485 209 453 c 0
 207 445 205 439 202 431 c 0
 193 401 175 351 162 288 c 0
 125 114 149 87 185 87 c 0
 239 87 304 125 325 144 c 0
 330 148 334 158 336 169 c 2
 399 454 l 2
 405 481 432 500 456 500 c 0
 481 500 500 481 494 454 c 2xa0
350 543 m 2
 267 654 l 2
 259 664 255 676 259 692 c 0
 265 720 296 746 324 746 c 0
 342 746 356 736 363 724 c 2
 433 605 l 2
 440 593 441 585 439 575 c 0
 433 548 405 528 381 528 c 0
 366 528 356 534 350 543 c 2
EndSplineSet
EndChar
StartChar: uacute
Encoding: 250 250 197
Width: 538
Flags: MW
HStem: -3 90<167 191.5> 0 21G<336.5 363> 702 20G<443.5 467>
LayerCount: 2
Back
Fore
SplineSet
494 454 m 2xa0
 408 48 l 2
 402 23 376 0 350 0 c 0x60
 323 0 307 17 307 40 c 1
 268 16 217 -3 166 -3 c 0
 67 -3 13 22 68 287 c 0
 82 360 100 414 113 449 c 0
 128 492 146 500 171 500 c 0
 196 500 216 485 209 453 c 0
 207 445 205 439 202 431 c 0
 193 401 175 351 162 288 c 0
 125 114 149 87 185 87 c 0
 239 87 304 125 325 144 c 0
 330 148 334 158 336 169 c 2
 399 454 l 2
 405 481 432 500 456 500 c 0
 481 500 500 481 494 454 c 2xa0
272 610 m 2
 407 703 l 2
 419 711 435 722 452 722 c 0
 482 722 500 698 493 667 c 0
 490 652 482 637 466 627 c 2
 324 542 l 2
 312 535 299 529 288 529 c 0
 264 529 246 550 252 577 c 0
 254 588 259 601 272 610 c 2
EndSplineSet
EndChar
StartChar: ucircumflex
Encoding: 251 251 198
Width: 538
Flags: MW
HStem: -3 90<167 191.5> 0 21G<336.5 363> 500 43<158.5 235 448 466.5> 718 20G<388.5 399>
LayerCount: 2
Back
Fore
SplineSet
494 454 m 2xb0
 408 48 l 2
 402 23 376 0 350 0 c 0x70
 323 0 307 17 307 40 c 1
 268 16 217 -3 166 -3 c 0
 67 -3 13 22 68 287 c 0
 82 360 100 414 113 449 c 0
 128 492 146 500 171 500 c 0
 196 500 216 485 209 453 c 0
 207 445 205 439 202 431 c 0
 193 401 175 351 162 288 c 0
 125 114 149 87 185 87 c 0
 239 87 304 125 325 144 c 0
 330 148 334 158 336 169 c 2
 399 454 l 2
 405 481 432 500 456 500 c 0
 481 500 500 481 494 454 c 2xb0
219 626 m 2
 359 726 l 2
 372 735 384 738 393 738 c 0
 405 738 418 732 428 720 c 2
 503 624 l 2
 511 614 513 603 510 590 c 0
 505 565 479 543 454 543 c 0
 442 543 432 545 423 555 c 2
 364 621 l 1
 261 552 l 2
 248 544 240 543 230 543 c 0
 205 543 187 563 193 590 c 0
 196 603 204 616 219 626 c 2
EndSplineSet
EndChar
StartChar: udieresis
Encoding: 252 252 199
Width: 538
Flags: MW
HStem: -3 90<167 191.5> 0 21G<336.5 363> 543 121<250 256.5 434 441.5>
LayerCount: 2
Back
Fore
SplineSet
319 606 m 0xa0
 312 571 276 543 237 543 c 0
 202 543 179 567 186 601 c 0
 193 634 231 664 269 664 c 0
 301 664 326 639 319 606 c 0xa0
504 606 m 0
 497 571 461 543 422 543 c 0
 386 543 363 567 370 601 c 0
 377 634 415 664 453 664 c 0
 486 664 511 639 504 606 c 0
494 454 m 2
 408 48 l 2
 402 23 376 0 350 0 c 0x60
 323 0 307 17 307 40 c 1
 268 16 217 -3 166 -3 c 0
 67 -3 13 22 68 287 c 0
 82 360 100 414 113 449 c 0
 128 492 146 500 171 500 c 0
 196 500 216 485 209 453 c 0
 207 445 205 439 202 431 c 0
 193 401 175 351 162 288 c 0
 125 114 149 87 185 87 c 0
 239 87 304 125 325 144 c 0
 330 148 334 158 336 169 c 2
 399 454 l 2
 405 481 432 500 456 500 c 0
 481 500 500 481 494 454 c 2
EndSplineSet
EndChar
StartChar: yacute
Encoding: 253 253 200
Width: 515
Flags: MW
HStem: -179 21G<50 73.5> 481 20G<465.5 488.5> 702 20G<413.5 437>
LayerCount: 2
Back
Fore
SplineSet
505 432 m 2
 115 -148 l 2
 103 -165 84 -179 63 -179 c 0
 37 -179 20 -157 26 -130 c 0
 27 -124 31 -116 35 -109 c 2
 160 78 l 1
 61 427 l 2
 60 433 58 442 60 451 c 0
 66 478 92 500 119 500 c 0
 140 500 152 485 156 470 c 2
 236 191 l 1
 423 470 l 2
 435 487 455 501 476 501 c 0
 501 501 520 480 514 452 c 0
 512 446 510 439 505 432 c 2
242 610 m 2
 377 703 l 2
 389 711 405 722 422 722 c 0
 452 722 470 698 463 667 c 0
 460 652 452 637 436 627 c 2
 294 542 l 2
 282 535 269 529 258 529 c 0
 234 529 216 550 222 577 c 0
 224 588 229 601 242 610 c 2
EndSplineSet
EndChar
StartChar: thorn
Encoding: 254 254 118
Width: 546
Flags: MW
HStem: -177 21G<4 29.5> 7 97<207 272.5 207 288> 401 90<355 356 355 362.5> 651 20G<183 210.5>
LayerCount: 2
Back
Fore
SplineSet
355 491 m 2
 356 491 l 1
 471 485 499 375 477 269 c 0
 452 155 377 7 199 7 c 0
 164 7 133 15 108 24 c 1
 75 -129 l 2
 70 -154 42 -177 17 -177 c 0
 -9 -177 -26 -154 -21 -129 c 2
 139 622 l 2
 145 650 169 671 197 671 c 0
 224 671 241 650 235 622 c 2
 198 451 l 1
 239 473 294 491 355 491 c 2
226 104 m 0
 319 104 365 174 386 269 c 0
 396 317 396 401 329 401 c 0
 251 401 197 359 174 336 c 1
 130 128 l 1
 151 119 188 104 226 104 c 0
EndSplineSet
EndChar
StartChar: ydieresis
Encoding: 255 255 201
Width: 515
Flags: MW
HStem: -179 21G<50 73.5> 481 20G<465.5 488.5> 543 121<229 236.5 414 420.5>
LayerCount: 2
Back
Fore
SplineSet
299 606 m 0
 292 571 256 543 217 543 c 0
 181 543 158 567 165 601 c 0
 172 634 210 664 248 664 c 0
 281 664 306 639 299 606 c 0
483 606 m 0
 476 571 440 543 401 543 c 0
 366 543 343 567 350 601 c 0
 357 634 395 664 433 664 c 0
 465 664 490 639 483 606 c 0
505 432 m 2
 115 -148 l 2
 103 -165 84 -179 63 -179 c 0
 37 -179 20 -157 26 -130 c 0
 27 -124 31 -116 35 -109 c 2
 160 78 l 1
 61 427 l 2
 60 433 58 442 60 451 c 0
 66 478 92 500 119 500 c 0
 140 500 152 485 156 470 c 2
 236 191 l 1
 423 470 l 2
 435 487 455 501 476 501 c 0
 501 501 520 480 514 452 c 0
 512 446 510 439 505 432 c 2
EndSplineSet
EndChar
StartChar: Abreve
Encoding: 258 258 227
Width: 650
Flags: MW
HStem: -1 21G<463 490> 0 21G<27 54> 668 20G<410 430> 709 87<424 456 424 467.5> 709 169<355 582>
LayerCount: 2
Back
Fore
SplineSet
459 655 m 2x70
 537 67 l 2
 537 61 537 53 536 48 c 0
 530 22 505 -1 475 -1 c 0xa8
 451 -1 439 8 436 33 c 2
 408 241 l 1
 194 196 l 1
 94 32 l 2
 84 15 66 0 42 0 c 0
 12 0 -3 25 2 49 c 0
 3 56 6 62 9 67 c 2
 76 177 l 1
 57 184 46 201 51 225 c 0
 56 249 76 268 100 273 c 2
 138 281 l 1
 366 657 l 2
 378 677 400 688 420 688 c 0
 440 688 456 679 459 655 c 2x70
260 306 m 1
 394 334 l 1
 375 495 l 1
 260 306 l 1
278 836 m 0
 281 851 288 873 325 873 c 0
 346 873 355 856 359 844 c 0
 368 808 410 796 438 796 c 0x70
 474 796 502 810 523 844 c 0
 535 863 546 878 572 878 c 0
 592 878 606 860 602 840 c 0
 592 791 518 709 417 709 c 0
 293 709 273 810 278 836 c 0
EndSplineSet
EndChar
StartChar: abreve
Encoding: 259 259 243
Width: 531
Flags: MW
HStem: -10 21G<328 355> -3 96<168 204> 407 95<266.5 330.5> 528 87<346 378 346 390.5> 528 169<278 505>
LayerCount: 2
Back
Fore
SplineSet
488 456 m 1x70
 400 40 l 2
 394 14 369 -10 341 -10 c 0xb0
 315 -10 303 5 302 25 c 1
 266 10 224 -3 184 -3 c 0
 74 -3 10 85 37 216 c 0
 59 319 163 502 338 502 c 0
 410 502 472 465 488 456 c 1x70
322 134 m 1
 380 395 l 1
 365 402 341 407 320 407 c 0
 213 407 149 285 135 218 c 0
 123 164 133 93 203 93 c 0x68
 243 93 294 118 322 134 c 1
201 655 m 0
 204 670 211 692 248 692 c 0
 269 692 278 675 281 663 c 0
 291 627 332 615 360 615 c 0x70
 396 615 424 629 445 663 c 0
 457 682 469 697 495 697 c 0
 515 697 529 679 525 659 c 0
 514 610 441 528 340 528 c 0
 216 528 195 629 201 655 c 0
EndSplineSet
EndChar
StartChar: Aogonek
Encoding: 260 260 202
Width: 650
Flags: MW
HStem: -196 92<438.5 446.5> 0 21G<27 54> 668 20G<410 430>
LayerCount: 2
Back
Fore
SplineSet
427 -196 m 0
 359 -196 318 -147 333 -79 c 0
 344 -26 388 18 433 46 c 1
 408 241 l 1
 194 196 l 1
 94 32 l 2
 84 15 66 0 42 0 c 0
 12 0 -3 25 2 49 c 0
 3 56 6 62 9 67 c 2
 76 177 l 1
 57 184 46 201 51 225 c 0
 56 249 76 268 100 273 c 2
 138 281 l 1
 366 657 l 2
 378 677 400 688 420 688 c 0
 440 688 456 679 459 655 c 2
 537 67 l 2
 542 22 512 -1 481 -21 c 0
 459 -35 429 -54 423 -80 c 0
 420 -95 431 -104 446 -104 c 0
 459 -104 475 -100 489 -90 c 0
 502 -82 510 -80 520 -80 c 0
 541 -80 560 -102 555 -126 c 0
 546 -168 466 -196 427 -196 c 0
260 306 m 1
 394 334 l 1
 375 495 l 1
 260 306 l 1
EndSplineSet
EndChar
StartChar: aogonek
Encoding: 261 261 213
Width: 531
Flags: MW
HStem: -196 92<300.5 308.5> 17 96<173 208> 417 95<268.5 332.5>
LayerCount: 2
Back
Fore
SplineSet
289 -196 m 0
 221 -196 180 -147 195 -79 c 0
 208 -18 260 11 310 37 c 1
 309 44 308 50 308 55 c 1
 270 32 228 17 188 17 c 0
 78 17 12 95 40 226 c 0
 61 329 165 512 340 512 c 0
 412 512 474 475 491 466 c 1
 402 50 l 2
 394 11 370 -4 343 -21 c 0
 321 -35 291 -54 285 -80 c 0
 282 -95 293 -104 308 -104 c 0
 321 -104 337 -100 351 -90 c 0
 364 -82 372 -80 382 -80 c 0
 403 -80 422 -102 417 -126 c 0
 408 -168 328 -196 289 -196 c 0
326 154 m 1
 383 405 l 1
 367 412 343 417 322 417 c 0
 215 417 151 295 137 228 c 0
 125 174 138 113 208 113 c 0
 248 113 298 138 326 154 c 1
EndSplineSet
EndChar
StartChar: Cacute
Encoding: 262 262 229
Width: 658
Flags: MW
HStem: -2 100<266.5 331.5> -2 199<203 537> 501 159<542.5 604> 584 100<368.5 446> 882 20G<533.5 557>
LayerCount: 2
Back
Fore
SplineSet
548 117 m 0x68
 474 41 380 -2 283 -2 c 0
 123 -2 19 128 55 299 c 0
 98 501 296 684 436 684 c 0x98
 494 684 536 669 562 653 c 1
 573 659 580 660 590 660 c 0
 618 660 635 639 629 611 c 2
 617 551 l 2
 611 524 584 501 556 501 c 0xa8
 529 501 512 521 516 547 c 1
 501 564 477 584 415 584 c 0
 322 584 185 441 155 299 c 0
 125 156 229 98 304 98 c 0x98
 364 98 425 119 481 177 c 0
 497 193 509 197 524 197 c 0
 550 197 571 179 564 147 c 0
 562 137 557 127 548 117 c 0x68
362 790 m 2
 497 883 l 2
 509 891 525 902 542 902 c 0
 572 902 590 878 584 847 c 0
 580 832 572 817 556 807 c 2
 414 722 l 2
 402 715 389 709 378 709 c 0
 354 709 337 730 342 757 c 0
 345 768 350 781 362 790 c 2
EndSplineSet
EndChar
StartChar: cacute
Encoding: 263 263 245
Width: 535
Flags: MW
HStem: 0 93<210 255.5 210 257> 0 172<160 411> 349 151<273.5 421> 407 93<280 324> 702 20G<448.5 472>
LayerCount: 2
Back
Fore
SplineSet
350 147 m 0x98
 359 156 375 172 398 172 c 0
 424 172 441 151 435 124 c 0
 432 112 425 102 417 94 c 0
 372 47 294 0 220 0 c 0
 100 0 11 91 38 219 c 0
 48 266 71 310 87 335 c 0
 126 401 224 500 323 500 c 0
 398 500 430 476 460 430 c 0
 467 419 468 408 466 396 c 0
 460 370 434 349 408 349 c 0x68
 391 349 384 354 379 361 c 0
 361 389 343 407 305 407 c 0
 255 407 194 346 166 302 c 0
 148 272 137 243 132 221 c 0
 111 122 193 93 227 93 c 0
 284 93 321 117 350 147 c 0x98
277 610 m 2
 412 703 l 2
 424 711 440 722 457 722 c 0
 487 722 505 698 498 667 c 0
 495 652 487 637 471 627 c 2
 329 542 l 2
 317 535 304 529 293 529 c 0
 269 529 251 550 257 577 c 0
 259 588 264 601 277 610 c 2
EndSplineSet
EndChar
StartChar: Ccaron
Encoding: 268 268 230
Width: 658
Flags: MW
HStem: -2 100<266.5 331.5> -2 199<203 537> 501 159<542.5 604> 584 100<368.5 446> 884 20G<374.5 393 606 623.5>
LayerCount: 2
Back
Fore
SplineSet
548 117 m 0x68
 474 41 380 -2 283 -2 c 0
 123 -2 19 128 55 299 c 0
 98 501 296 684 436 684 c 0x98
 494 684 536 669 562 653 c 1
 573 659 580 660 590 660 c 0
 618 660 635 639 629 611 c 2
 617 551 l 2
 611 524 584 501 556 501 c 0xa8
 529 501 512 521 516 547 c 1
 501 564 477 584 415 584 c 0
 322 584 185 441 155 299 c 0
 125 156 229 98 304 98 c 0x98
 364 98 425 119 481 177 c 0
 497 193 509 197 524 197 c 0
 550 197 571 179 564 147 c 0
 562 137 557 127 548 117 c 0x68
622 821 m 2
 482 721 l 2
 469 712 456 709 447 709 c 0
 435 709 422 715 413 727 c 2
 337 823 l 2
 330 833 328 844 331 857 c 0
 336 882 362 904 387 904 c 0
 399 904 408 902 417 892 c 2
 476 826 l 1
 580 895 l 2
 592 903 601 904 611 904 c 0
 636 904 653 884 648 857 c 0
 645 844 636 831 622 821 c 2
EndSplineSet
EndChar
StartChar: ccaron
Encoding: 269 269 246
Width: 535
Flags: MW
HStem: 0 93<210 255.5 210 257> 0 172<160 411> 349 151<273.5 421> 407 93<280 324> 703 20G<252.5 271 484 501.5>
LayerCount: 2
Back
Fore
SplineSet
350 147 m 0x98
 359 156 375 172 398 172 c 0
 424 172 441 151 435 124 c 0
 432 112 425 102 417 94 c 0
 372 47 294 0 220 0 c 0
 100 0 11 91 38 219 c 0
 48 266 71 310 87 335 c 0
 126 401 224 500 323 500 c 0
 398 500 430 476 460 430 c 0
 467 419 468 408 466 396 c 0
 460 370 434 349 408 349 c 0x68
 391 349 384 354 379 361 c 0
 361 389 343 407 305 407 c 0
 255 407 194 346 166 302 c 0
 148 272 137 243 132 221 c 0
 111 122 193 93 227 93 c 0
 284 93 321 117 350 147 c 0x98
501 640 m 2
 360 540 l 2
 347 531 335 528 326 528 c 0
 314 528 301 534 292 546 c 2
 216 642 l 2
 208 652 206 663 209 676 c 0
 215 701 240 723 265 723 c 0
 277 723 287 721 296 711 c 2
 355 645 l 1
 458 714 l 2
 471 722 479 723 489 723 c 0
 514 723 532 703 526 676 c 0
 523 663 515 650 501 640 c 2
EndSplineSet
EndChar
StartChar: Dcaron
Encoding: 270 270 233
Width: 646
Flags: MW
HStem: -19 100<171 255.5> 579 102<229 229> 884 20G<294.5 313 526 543.5>
LayerCount: 2
Back
Fore
SplineSet
542 821 m 2
 402 721 l 2
 389 712 376 709 367 709 c 0
 355 709 342 715 333 727 c 2
 257 823 l 2
 250 833 248 844 251 857 c 0
 256 882 282 904 307 904 c 0
 319 904 328 902 337 892 c 2
 396 826 l 1
 500 895 l 2
 512 903 521 904 531 904 c 0
 556 904 573 884 568 857 c 0
 565 844 556 831 542 821 c 2
159 -19 m 0
 104 -19 51 -5 43 -2 c 0
 23 4 11 25 15 47 c 2
 140 632 l 2
 146 660 172 681 200 681 c 0
 360 681 647 626 578 303 c 0
 530 79 352 -19 159 -19 c 0
229 579 m 1
 124 87 l 1
 140 84 161 81 181 81 c 0
 333 81 446 154 478 303 c 0
 519 494 393 566 229 579 c 1
EndSplineSet
EndChar
StartChar: dcaron
Encoding: 271 271 249
Width: 571
Flags: MW
HStem: 0 21G<332.5 360.5> 4 90<153.5 194.5> 403 95<240 310.5> 523 156<492.5 599> 523 199<573.5 670.5>
LayerCount: 2
Back
Fore
SplineSet
543 628 m 2x70
 405 46 l 2
 399 20 374 0 347 0 c 0xb0
 318 0 305 22 308 45 c 1
 270 23 222 4 167 4 c 0
 45 4 12 117 36 228 c 0
 66 369 153 498 311 498 c 0
 349 498 384 490 410 481 c 1
 446 630 l 2
 453 657 479 679 506 679 c 0
 531 679 550 655 543 628 c 2x70
133 231 m 0
 120 174 121 94 186 94 c 0x68
 267 94 334 148 339 170 c 2
 387 377 l 1
 367 387 329 403 292 403 c 0
 188 403 147 301 133 231 c 0
697 671 m 0
 693 650 664 600 640 562 c 0
 626 541 612 523 586 523 c 0
 561 523 546 542 551 565 c 0
 552 572 554 576 557 581 c 2
 585 628 l 1
 582 637 581 647 584 659 c 0
 591 692 625 722 656 722 c 0
 685 722 703 699 697 671 c 0
EndSplineSet
EndChar
StartChar: dcroat
Encoding: 273 273 250
Width: 583
Flags: MW
HStem: 0 21G<337.5 365.5> 4 90<158.5 199.5> 393 95<243 313.5> 521 92<372 447 404 424 545 562 404 522> 521 158<372 524.5 384 524.5 522 524.5 498.5 562 522 522>
LayerCount: 2
Back
Fore
SplineSet
548 628 m 2x68
 545 613 l 1
 582 613 l 2
 608 613 624 593 618 568 c 0
 613 543 588 521 562 521 c 2
 522 521 l 1
 410 46 l 2
 404 20 379 0 352 0 c 0xb0
 323 0 310 22 313 45 c 1
 275 23 227 4 172 4 c 0
 50 4 16 112 40 223 c 0
 70 364 156 488 314 488 c 0
 352 488 387 480 413 471 c 1
 424 521 l 1
 384 521 l 2
 360 521 343 543 348 568 c 0
 354 593 380 613 404 613 c 2
 447 613 l 1x70
 451 630 l 2
 458 657 485 679 512 679 c 0
 537 679 555 659 548 628 c 2x68
137 226 m 0
 124 169 126 94 191 94 c 0x70
 272 94 339 148 344 170 c 2
 390 367 l 1
 370 377 332 393 295 393 c 0
 191 393 151 296 137 226 c 0
EndSplineSet
EndChar
StartChar: Eogonek
Encoding: 280 280 231
Width: 636
Flags: MW
HStem: -196 92<375.5 383.5> 0 100<42 474 126 314> 302 99<190 473 169 494> 582 100<228 578 228 228>
LayerCount: 2
Back
Fore
SplineSet
364 -196 m 0
 296 -196 255 -147 270 -79 c 0
 276 -49 293 -22 314 0 c 1
 56 0 l 2
 28 0 10 22 16 50 c 2
 140 632 l 2
 146 660 172 682 200 682 c 2
 599 682 l 2
 627 682 644 660 638 632 c 0
 632 605 606 582 578 582 c 2
 228 582 l 1
 190 401 l 1
 494 401 l 2
 522 401 538 380 532 352 c 0
 526 324 501 302 473 302 c 2
 169 302 l 1
 126 100 l 1
 474 100 l 2
 502 100 518 78 512 50 c 0
 502 4 471 8 418 -21 c 0
 389 -37 367 -51 361 -76 c 0
 357 -95 368 -104 383 -104 c 0
 396 -104 412 -100 426 -90 c 0
 439 -82 447 -80 457 -80 c 0
 478 -80 497 -102 492 -126 c 0
 483 -168 403 -196 364 -196 c 0
EndSplineSet
EndChar
StartChar: eogonek
Encoding: 281 281 247
Width: 547
Flags: MW
HStem: -196 92<231.5 239.5> 405 94<267.5 329>
LayerCount: 2
Back
Fore
SplineSet
220 -196 m 0
 152 -196 111 -147 126 -79 c 0
 133 -46 152 -17 177 7 c 1
 70 35 22 133 44 239 c 0
 73 376 189 499 326 499 c 0
 458 499 497 402 487 355 c 0
 483 338 470 321 446 309 c 2
 145 155 l 1
 166 114 204 93 261 93 c 0
 294 93 342 112 369 135 c 0
 380 144 393 151 406 151 c 0
 433 151 448 131 443 104 c 0
 440 92 433 81 424 74 c 0
 389 43 351 24 316 7 c 0
 266 -17 226 -36 218 -75 c 0
 213 -95 224 -104 239 -104 c 0
 252 -104 268 -100 282 -90 c 0
 295 -82 303 -80 313 -80 c 0
 334 -80 353 -102 348 -126 c 0
 339 -168 259 -196 220 -196 c 0
137 247 m 1
 390 372 l 1
 378 394 352 405 306 405 c 0
 229 405 160 335 137 247 c 1
EndSplineSet
EndChar
StartChar: Ecaron
Encoding: 282 282 232
Width: 636
Flags: MW
HStem: 0 100<42 474 126 453> 302 99<190 473 169 494> 582 100<228 578 228 228> 884 20G<326.5 345 558 575.5>
LayerCount: 2
Back
Fore
SplineSet
574 821 m 2
 434 721 l 2
 421 712 408 709 399 709 c 0
 387 709 374 715 365 727 c 2
 289 823 l 2
 282 833 280 844 283 857 c 0
 288 882 314 904 339 904 c 0
 351 904 360 902 369 892 c 2
 428 826 l 1
 532 895 l 2
 544 903 553 904 563 904 c 0
 588 904 605 884 600 857 c 0
 597 844 588 831 574 821 c 2
126 100 m 1
 474 100 l 2
 502 100 518 78 512 50 c 0
 506 22 481 0 453 0 c 2
 56 0 l 2
 28 0 10 22 16 50 c 2
 140 632 l 2
 146 660 172 682 200 682 c 2
 599 682 l 2
 627 682 644 660 638 632 c 0
 632 605 606 582 578 582 c 2
 228 582 l 1
 190 401 l 1
 494 401 l 2
 522 401 538 380 532 352 c 0
 526 324 501 302 473 302 c 2
 169 302 l 1
 126 100 l 1
EndSplineSet
EndChar
StartChar: ecaron
Encoding: 283 283 248
Width: 547
Flags: MW
HStem: 0 93<232.5 273> 0 151<166 419.5> 405 94<267.5 329> 703 20G<267.5 286 499 516.5>
LayerCount: 2
Back
Fore
SplineSet
369 135 m 0xb0
 380 144 393 151 406 151 c 0x70
 433 151 448 131 443 104 c 0
 440 92 433 81 424 74 c 0
 380 33 304 0 242 0 c 0
 90 0 18 114 44 239 c 0
 73 376 189 499 326 499 c 0
 458 499 497 402 487 355 c 0
 483 338 470 321 446 309 c 2
 145 155 l 1
 166 114 204 93 261 93 c 0
 294 93 342 112 369 135 c 0xb0
137 247 m 1
 390 372 l 1
 378 394 352 405 306 405 c 0
 229 405 160 335 137 247 c 1
516 640 m 2
 375 540 l 2
 362 531 350 528 341 528 c 0
 329 528 316 534 307 546 c 2
 231 642 l 2
 223 652 221 663 224 676 c 0
 230 701 255 723 280 723 c 0
 292 723 302 721 311 711 c 2
 370 645 l 1
 473 714 l 2
 486 722 494 723 504 723 c 0
 529 723 547 703 541 676 c 0
 538 663 530 650 516 640 c 2
EndSplineSet
EndChar
StartChar: Lacute
Encoding: 313 313 228
Width: 503
Flags: MW
HStem: 11 100 882 20G<436.5 460>
LayerCount: 2
Back
Fore
SplineSet
383 22 m 2
 56 0 l 2
 28 -2 8 22 14 49 c 2
 138 632 l 2
 143 658 170 681 198 681 c 0
 224 681 242 658 237 632 c 2
 124 102 l 1
 396 121 l 2
 427 123 445 103 439 72 c 0
 434 48 409 24 383 22 c 2
265 790 m 2
 400 883 l 2
 412 891 428 902 445 902 c 0
 475 902 493 878 487 847 c 0
 483 832 475 817 459 807 c 2
 317 722 l 2
 305 715 292 709 281 709 c 0
 257 709 240 730 245 757 c 0
 248 768 253 781 265 790 c 2
EndSplineSet
EndChar
StartChar: lacute
Encoding: 314 314 244
Width: 252
Flags: MW
HStem: 0 21G<54.5 78.5> 882 20G<311.5 335>
LayerCount: 2
Back
Fore
SplineSet
247 625 m 2
 124 45 l 2
 119 20 90 0 67 0 c 0
 42 0 23 20 28 45 c 2
 151 625 l 2
 157 651 181 672 209 672 c 0
 234 672 253 651 247 625 c 2
140 790 m 2
 275 883 l 2
 287 891 303 902 320 902 c 0
 350 902 368 878 362 847 c 0
 358 832 350 817 334 807 c 2
 192 722 l 2
 180 715 167 709 156 709 c 0
 132 709 115 730 120 757 c 0
 123 768 128 781 140 790 c 2
EndSplineSet
EndChar
StartChar: Lcaron
Encoding: 317 317 206
Width: 503
Flags: MW
HStem: 11 100 884 20G<182.5 201 414 431.5>
LayerCount: 2
Back
Fore
SplineSet
430 821 m 2
 290 721 l 2
 277 712 264 709 255 709 c 0
 243 709 230 715 221 727 c 2
 145 823 l 2
 138 833 136 844 139 857 c 0
 144 882 170 904 195 904 c 0
 207 904 216 902 225 892 c 2
 284 826 l 1
 388 895 l 2
 400 903 409 904 419 904 c 0
 444 904 461 884 456 857 c 0
 453 844 444 831 430 821 c 2
383 22 m 2
 56 0 l 2
 28 -2 8 22 14 49 c 2
 138 632 l 2
 143 658 170 681 198 681 c 0
 224 681 242 658 237 632 c 2
 124 102 l 1
 396 121 l 2
 427 123 445 103 439 72 c 0
 434 48 409 24 383 22 c 2
EndSplineSet
EndChar
StartChar: lcaron
Encoding: 318 318 217
Width: 283
Flags: MW
HStem: 0 21G<44.5 68.5> 473 199<185 283>
LayerCount: 2
Back
Fore
SplineSet
237 625 m 2
 114 45 l 2
 109 20 80 0 57 0 c 0
 32 0 13 20 18 45 c 2
 141 625 l 2
 147 651 171 672 199 672 c 0
 224 672 243 651 237 625 c 2
381 621 m 0
 377 600 348 550 324 512 c 0
 311 491 296 473 270 473 c 0
 245 473 230 492 235 515 c 0
 236 522 238 526 241 531 c 2
 269 578 l 1
 266 587 265 597 268 609 c 0
 275 642 309 672 340 672 c 0
 369 672 387 649 381 621 c 0
EndSplineSet
EndChar
StartChar: Lslash
Encoding: 321 321 204
Width: 554
Flags: MW
HStem: 11 100 661 20G<232 259>
LayerCount: 2
Back
Fore
SplineSet
51 329 m 2
 131 373 l 1
 186 632 l 2
 191 658 218 681 246 681 c 0
 272 681 290 658 285 632 c 2
 243 435 l 1
 260 445 l 2
 273 452 281 453 289 453 c 0
 316 453 335 432 329 402 c 0
 326 387 317 373 297 362 c 2
 218 317 l 1
 172 102 l 1
 444 121 l 2
 475 123 493 103 487 72 c 0
 482 48 457 24 431 22 c 2
 104 0 l 2
 76 -2 56 22 62 49 c 2
 106 255 l 1
 88 245 l 2
 79 240 69 238 59 238 c 0
 36 238 13 253 20 286 c 0
 24 304 34 319 51 329 c 2
EndSplineSet
EndChar
StartChar: lslash
Encoding: 322 322 215
Width: 310
Flags: MW
HStem: 0 21G<88.5 112.5> 652 20G<229 255.5>
LayerCount: 2
Back
Fore
SplineSet
281 625 m 2
 238 423 l 1
 263 437 l 2
 276 444 284 445 292 445 c 0
 319 445 339 424 332 394 c 0
 329 379 320 365 301 354 c 2
 213 305 l 1
 158 45 l 2
 153 20 124 0 101 0 c 0
 76 0 57 20 62 45 c 2
 104 244 l 1
 91 237 l 2
 82 232 72 230 62 230 c 0
 39 230 17 245 24 278 c 0
 27 296 38 311 55 321 c 2
 129 362 l 1
 185 625 l 2
 191 651 215 672 243 672 c 0
 268 672 287 651 281 625 c 2
EndSplineSet
EndChar
StartChar: Nacute
Encoding: 323 323 235
Width: 645
Flags: MW
HStem: 0 21G<42 69 451.5 472.5> 662 20G<589 616> 882 20G<516.5 540>
LayerCount: 2
Back
Fore
SplineSet
422 22 m 2
 206 473 l 1
 115 49 l 2
 109 21 83 0 55 0 c 0
 29 0 10 23 16 49 c 2
 141 632 l 2
 146 658 170 681 199 681 c 0
 214 681 230 673 236 660 c 2
 452 207 l 1
 543 632 l 2
 549 659 575 682 603 682 c 0
 629 682 648 659 642 632 c 2
 518 49 l 2
 512 20 486 0 459 0 c 0
 444 0 429 8 422 22 c 2
345 790 m 2
 480 883 l 2
 492 891 508 902 525 902 c 0
 555 902 573 878 567 847 c 0
 563 832 555 817 539 807 c 2
 397 722 l 2
 385 715 372 709 361 709 c 0
 337 709 320 730 325 757 c 0
 328 768 333 781 345 790 c 2
EndSplineSet
EndChar
StartChar: nacute
Encoding: 324 324 251
Width: 561
Flags: MW
HStem: 0 21G<42 70 360 386.5> 404 95<340 365> 702 20G<458.5 482>
LayerCount: 2
Back
Fore
SplineSet
199 452 m 2
 186 395 l 1
 236 451 306 499 374 499 c 0
 507 499 505 392 454 161 c 2
 429 48 l 2
 423 23 400 0 373 0 c 0
 347 0 329 23 334 47 c 2
 362 178 l 2
 409 398 381 404 349 404 c 0
 317 404 274 387 214 308 c 0
 173 254 143 194 130 134 c 2
 112 50 l 2
 106 22 85 0 55 0 c 0
 29 0 11 22 16 46 c 2
 103 452 l 2
 108 479 137 500 163 500 c 0
 188 500 204 479 199 452 c 2
287 610 m 2
 422 703 l 2
 434 711 450 722 467 722 c 0
 497 722 515 698 508 667 c 0
 505 652 497 637 481 627 c 2
 339 542 l 2
 327 535 314 529 303 529 c 0
 279 529 261 550 267 577 c 0
 269 588 274 601 287 610 c 2
EndSplineSet
EndChar
StartChar: Ncaron
Encoding: 327 327 236
Width: 645
Flags: MW
HStem: 0 21G<42 69 451.5 472.5> 662 20G<589 616> 884 20G<333.5 352 565 582.5>
LayerCount: 2
Back
Fore
SplineSet
581 821 m 2
 441 721 l 2
 428 712 415 709 406 709 c 0
 394 709 381 715 372 727 c 2
 296 823 l 2
 289 833 287 844 290 857 c 0
 295 882 321 904 346 904 c 0
 358 904 367 902 376 892 c 2
 435 826 l 1
 539 895 l 2
 551 903 560 904 570 904 c 0
 595 904 612 884 607 857 c 0
 604 844 595 831 581 821 c 2
422 22 m 2
 206 473 l 1
 115 49 l 2
 109 21 83 0 55 0 c 0
 29 0 10 23 16 49 c 2
 141 632 l 2
 146 658 170 681 199 681 c 0
 214 681 230 673 236 660 c 2
 452 207 l 1
 543 632 l 2
 549 659 575 682 603 682 c 0
 629 682 648 659 642 632 c 2
 518 49 l 2
 512 20 486 0 459 0 c 0
 444 0 429 8 422 22 c 2
EndSplineSet
EndChar
StartChar: Ohungarumlaut
Encoding: 336 336 237
Width: 686
Flags: MW
HStem: -2 95<230 327.5 230 335> 587 95<362.5 462.5> 692 193<333 524 501 555.5>
LayerCount: 2
Back
Fore
SplineSet
256 -2 m 0
 107 -2 32 144 68 315 c 0
 111 514 283 682 440 682 c 0
 587 682 666 538 629 365 c 0
 587 166 414 -2 256 -2 c 0
414 587 m 0
 311 587 197 466 164 315 c 0
 139 194 184 93 276 93 c 0
 379 93 501 216 532 361 c 0
 556 475 511 587 414 587 c 0
523 790 m 2
 379 704 l 2
 368 697 356 692 345 692 c 0
 321 692 303 713 309 740 c 0
 311 751 317 763 330 772 c 2
 464 866 l 2
 475 875 493 885 509 885 c 0
 539 885 558 861 551 830 c 0
 548 815 539 799 523 790 c 2
728 790 m 2
 584 704 l 2
 573 697 561 692 550 692 c 0
 526 692 508 713 514 740 c 0
 516 751 522 763 535 772 c 2
 669 866 l 2
 680 875 698 885 714 885 c 0
 744 885 763 861 756 830 c 0
 753 815 744 799 728 790 c 2
EndSplineSet
EndChar
StartChar: ohungarumlaut
Encoding: 337 337 253
Width: 561
Flags: MW
HStem: 0 89<184.5 252.5 184.5 262.5> 411 89<274 341> 531 193<184 375 352 406.5>
LayerCount: 2
Back
Fore
SplineSet
199 0 m 0
 82 0 15 104 42 232 c 0
 73 377 206 500 333 500 c 0
 450 500 517 392 490 268 c 0
 459 122 326 0 199 0 c 0
310 411 m 0
 238 411 159 328 139 233 c 0
 122 155 152 89 217 89 c 0
 288 89 371 170 390 263 c 0
 407 342 372 411 310 411 c 0
375 629 m 2
 231 543 l 2
 219 536 207 531 196 531 c 0
 172 531 155 552 161 579 c 0
 163 590 168 602 181 611 c 2
 315 705 l 2
 327 714 344 724 360 724 c 0
 390 724 409 700 403 669 c 0
 400 654 391 638 375 629 c 2
580 629 m 2
 436 543 l 2
 424 536 412 531 401 531 c 0
 377 531 360 552 366 579 c 0
 368 590 373 602 386 611 c 2
 520 705 l 2
 532 714 549 724 565 724 c 0
 595 724 614 700 608 669 c 0
 605 654 596 638 580 629 c 2
EndSplineSet
EndChar
StartChar: OE
Encoding: 338 338 122
Width: 1124
Flags: MW
HStem: 0 100<505 937 589 916> 302 99<653 936 632 957> 582 100<691 1041 691 691> 664 20G<370 478.5>
LayerCount: 2
Back
Fore
SplineSet
589 100 m 1xe0
 937 100 l 2
 965 100 981 78 975 50 c 0
 969 22 944 0 916 0 c 2
 519 0 l 2
 491 0 473 22 479 50 c 2
 491 106 l 1
 424 40 344 0 265 0 c 0
 116 0 40 146 76 317 c 0
 118 516 291 684 449 684 c 0xd0
 508 684 562 658 599 612 c 1
 603 632 l 2
 609 660 635 682 663 682 c 2
 1062 682 l 2
 1090 682 1107 660 1101 632 c 0
 1095 605 1069 582 1041 582 c 2
 691 582 l 1
 653 401 l 1
 957 401 l 2
 985 401 1001 380 995 352 c 0
 989 324 964 302 936 302 c 2
 632 302 l 1
 589 100 l 1xe0
285 95 m 0
 410 95 516 250 540 363 c 0
 564 477 519 589 422 589 c 0
 320 589 204 468 172 317 c 0
 146 196 192 95 285 95 c 0
EndSplineSet
EndChar
StartChar: oe
Encoding: 339 339 123
Width: 903
Flags: MW
HStem: 0 87<190.5 238> 0 151<535 752.5> 397 87 465 20G<264 363.5>
LayerCount: 2
Back
Fore
SplineSet
383 244 m 0xa0
 403 337 367 397 308 397 c 0
 239 397 163 315 145 226 c 0
 127 145 161 87 220 87 c 0
 295 87 369 178 383 244 c 0xa0
702 135 m 0
 713 144 726 151 739 151 c 0x60
 766 151 781 131 776 104 c 0
 773 92 766 81 757 74 c 0
 714 33 639 0 578 0 c 0
 492 0 432 32 401 100 c 1
 344 33 274 0 202 0 c 0
 87 0 22 102 48 223 c 0
 75 349 196 485 332 485 c 0x90
 395 485 448 451 474 396 c 1
 531 457 603 484 664 484 c 0
 789 484 829 391 819 344 c 0
 815 327 800 311 777 298 c 0
 674 245 589 201 485 148 c 1
 506 112 549 93 603 93 c 0
 636 93 676 112 702 135 c 0
475 237 m 1
 727 362 l 1
 716 384 689 395 643 395 c 0
 566 395 498 325 475 237 c 1
EndSplineSet
EndChar
StartChar: Racute
Encoding: 340 340 226
Width: 623
Flags: MW
HStem: 0 21G<41 68 441.5 466> 233 91<172 237.5> 589 98<229 229 229 249> 882 20G<501.5 525>
LayerCount: 2
Back
Fore
SplineSet
510 72 m 0
 512 64 511 56 510 49 c 0
 505 24 481 0 451 0 c 0
 432 0 419 10 412 26 c 0
 337 225 255 233 220 233 c 0
 201 233 177 231 152 227 c 1
 114 49 l 2
 108 21 81 0 55 0 c 0
 27 0 10 21 16 49 c 2
 139 627 l 2
 152 689 170 687 273 687 c 0
 497 687 606 607 576 469 c 0
 555 368 473 310 387 275 c 1
 426 238 480 171 510 72 c 0
229 589 m 1
 172 324 l 1
 296 332 457 374 477 469 c 0
 494 548 409 589 249 589 c 2
 229 589 l 1
330 790 m 2
 465 883 l 2
 477 891 493 902 510 902 c 0
 540 902 558 878 552 847 c 0
 548 832 540 817 524 807 c 2
 382 722 l 2
 370 715 357 709 346 709 c 0
 322 709 305 730 310 757 c 0
 313 768 318 781 330 790 c 2
EndSplineSet
EndChar
StartChar: racute
Encoding: 341 341 242
Width: 422
Flags: MW
HStem: 0 21G<40.5 65.5> 329 172<336.5 367.5> 406 95<312.5 316 312.5 418> 702 20G<408.5 432>
LayerCount: 2
Back
Fore
SplineSet
418 406 m 2xb0
 411 376 l 2
 406 350 381 329 354 329 c 0xd0
 319 329 313 354 318 377 c 2
 320 390 l 2
 323 400 322 406 310 406 c 0
 278 406 237 373 198 333 c 0
 179 314 161 281 155 250 c 2
 110 46 l 2
 105 22 78 0 53 0 c 0
 28 0 8 22 13 46 c 2
 99 451 l 2
 105 478 133 499 159 499 c 0
 186 499 203 478 197 451 c 2
 194 437 l 1
 233 472 283 501 342 501 c 0
 417 501 427 449 418 406 c 2xb0
237 610 m 2xb0
 372 703 l 2
 384 711 400 722 417 722 c 0
 447 722 465 698 458 667 c 0
 455 652 447 637 431 627 c 2
 289 542 l 2
 277 535 264 529 253 529 c 0
 229 529 211 550 217 577 c 0
 219 588 224 601 237 610 c 2xb0
EndSplineSet
EndChar
StartChar: Rcaron
Encoding: 344 344 238
Width: 623
Flags: MW
HStem: 0 21G<41 68 441.5 466> 233 91<172 237.5> 589 98<229 229 229 249> 884 20G<312.5 331 544 561.5>
LayerCount: 2
Back
Fore
SplineSet
560 821 m 2
 420 721 l 2
 407 712 394 709 385 709 c 0
 373 709 360 715 351 727 c 2
 275 823 l 2
 268 833 266 844 269 857 c 0
 274 882 300 904 325 904 c 0
 337 904 346 902 355 892 c 2
 414 826 l 1
 518 895 l 2
 530 903 539 904 549 904 c 0
 574 904 591 884 586 857 c 0
 583 844 574 831 560 821 c 2
510 72 m 0
 512 64 511 56 510 49 c 0
 505 24 481 0 451 0 c 0
 432 0 419 10 412 26 c 0
 337 225 255 233 220 233 c 0
 201 233 177 231 152 227 c 1
 114 49 l 2
 108 21 81 0 55 0 c 0
 27 0 10 21 16 49 c 2
 139 627 l 2
 152 689 170 687 273 687 c 0
 497 687 606 607 576 469 c 0
 555 368 473 310 387 275 c 1
 426 238 480 171 510 72 c 0
229 589 m 1
 172 324 l 1
 296 332 457 374 477 469 c 0
 494 548 409 589 249 589 c 2
 229 589 l 1
EndSplineSet
EndChar
StartChar: rcaron
Encoding: 345 345 254
Width: 422
Flags: MW
HStem: 0 21G<40.5 65.5> 329 172<336.5 367.5> 406 95<312.5 316 312.5 418> 703 20G<217.5 236 449 466.5>
LayerCount: 2
Back
Fore
SplineSet
418 406 m 2xb0
 411 376 l 2
 406 350 381 329 354 329 c 0xd0
 319 329 313 354 318 377 c 2
 320 390 l 2
 323 400 322 406 310 406 c 0
 278 406 237 373 198 333 c 0
 179 314 161 281 155 250 c 2
 110 46 l 2
 105 22 78 0 53 0 c 0
 28 0 8 22 13 46 c 2
 99 451 l 2
 105 478 133 499 159 499 c 0
 186 499 203 478 197 451 c 2
 194 437 l 1
 233 472 283 501 342 501 c 0
 417 501 427 449 418 406 c 2xb0
466 640 m 2xb0
 325 540 l 2
 312 531 300 528 291 528 c 0
 279 528 266 534 257 546 c 2
 181 642 l 2
 173 652 171 663 174 676 c 0
 180 701 205 723 230 723 c 0
 242 723 252 721 261 711 c 2
 320 645 l 1
 423 714 l 2
 436 722 444 723 454 723 c 0
 479 723 497 703 491 676 c 0
 488 663 480 650 466 640 c 2xb0
EndSplineSet
EndChar
StartChar: Sacute
Encoding: 346 346 207
Width: 624
Flags: MW
HStem: 0 96<241.5 300 241.5 304.5> 0 220<83.5 304.5> 483 199<358 556> 589 93<360.5 422.5> 882 20G<523.5 547>
LayerCount: 2
Back
Fore
SplineSet
311 309 m 0xa8
 218 335 115 387 139 500 c 0
 169 640 299 682 417 682 c 0
 494 682 628 655 602 535 c 0
 596 505 570 483 542 483 c 0xa8
 517 483 502 502 503 525 c 0
 505 567 450 589 395 589 c 0
 326 589 260 566 247 504 c 0
 237 460 275 431 357 407 c 0
 496 366 555 299 534 201 c 0
 505 63 358 0 251 0 c 0
 139 0 55 62 36 145 c 0
 35 152 35 162 37 170 c 0
 42 197 69 220 98 220 c 0x58
 123 220 137 205 140 183 c 0
 149 123 213 96 270 96 c 0
 330 96 412 127 427 196 c 0
 434 229 435 274 311 309 c 0xa8
352 790 m 2
 487 883 l 2
 499 891 515 902 532 902 c 0
 562 902 580 878 574 847 c 0
 570 832 562 817 546 807 c 2
 404 722 l 2
 392 715 379 709 368 709 c 0
 344 709 327 730 332 757 c 0
 335 768 340 781 352 790 c 2
EndSplineSet
EndChar
StartChar: sacute
Encoding: 347 347 218
Width: 484
Flags: MW
HStem: -2 92<175 231 175 233.5> -2 188<65 233.5> 310 189<265 393> 410 89<265 309> 702 20G<408.5 432>
LayerCount: 2
Back
Fore
SplineSet
116 153 m 0x58
 121 114 151 90 199 90 c 0
 263 90 292 131 296 150 c 0
 303 179 290 195 220 218 c 0
 119 251 80 292 96 368 c 0
 118 472 228 499 302 499 c 0
 408 499 454 450 438 374 c 0
 429 332 410 310 376 310 c 0xa8
 344 310 334 332 339 357 c 0
 340 362 343 367 344 375 c 0
 348 395 333 410 285 410 c 0
 234 410 194 393 189 367 c 0
 181 332 229 318 257 309 c 0
 344 279 412 256 389 149 c 0
 374 77 288 -2 179 -2 c 0
 52 -2 13 102 21 139 c 0
 27 165 52 186 78 186 c 0
 101 186 114 172 116 153 c 0x58
237 610 m 2
 372 703 l 2
 384 711 400 722 417 722 c 0
 447 722 465 698 458 667 c 0
 455 652 447 637 431 627 c 2
 289 542 l 2
 277 535 264 529 253 529 c 0
 229 529 211 550 217 577 c 0
 219 588 224 601 237 610 c 2
EndSplineSet
EndChar
StartChar: Scedilla
Encoding: 350 350 209
Width: 624
Flags: MW
HStem: -196 87<190 192.5 172.5 238> 0 96 483 199<358 556> 589 93<360.5 422.5>
LayerCount: 2
Back
Fore
SplineSet
215 -126 m 0xd0
 219 -130 224 -132 233 -132 c 0
 249 -132 259 -118 262 -106 c 0
 265 -94 258 -86 243 -83 c 2
 196 -73 l 2
 178 -69 179 -53 188 -35 c 0
 195 -20 201 -7 207 3 c 1
 117 17 52 73 36 145 c 0
 35 152 35 162 37 170 c 0
 42 197 69 220 98 220 c 0
 123 220 137 205 140 183 c 0
 149 123 213 96 270 96 c 0
 330 96 412 127 427 196 c 0
 434 229 435 274 311 309 c 0
 218 335 115 387 139 500 c 0
 169 640 299 682 417 682 c 0
 494 682 628 655 602 535 c 0
 596 505 570 483 542 483 c 0xe0
 517 483 502 502 503 525 c 0
 505 567 450 589 395 589 c 0
 326 589 260 566 247 504 c 0
 237 460 275 431 357 407 c 0
 496 366 555 299 534 201 c 0
 506 68 369 5 263 0 c 1
 262 -9 260 -20 259 -27 c 1
 317 -37 343 -61 332 -110 c 0
 320 -168 267 -196 209 -196 c 0
 171 -196 133 -180 140 -148 c 0
 144 -131 161 -109 184 -109 c 0
 201 -109 206 -118 215 -126 c 0xd0
EndSplineSet
EndChar
StartChar: scedilla
Encoding: 351 351 221
Width: 484
Flags: MW
HStem: -196 87<120 122.5 102.5 168> -1 91 310 189<265 393> 410 89<265 309>
LayerCount: 2
Back
Fore
SplineSet
145 -126 m 0xd0
 149 -130 154 -132 163 -132 c 0
 179 -132 189 -118 192 -106 c 0
 195 -94 188 -86 173 -83 c 2
 126 -73 l 2
 108 -69 109 -53 118 -35 c 0
 125 -20 131 -8 137 2 c 1
 43 22 14 106 21 139 c 0
 27 165 52 186 78 186 c 0
 101 186 114 172 116 153 c 0
 121 114 151 90 199 90 c 0
 263 90 292 131 296 150 c 0
 303 179 290 195 220 218 c 0
 119 251 80 292 96 368 c 0
 118 472 228 499 302 499 c 0
 408 499 454 450 438 374 c 0
 429 332 410 310 376 310 c 0xe0
 344 310 334 332 339 357 c 0
 340 362 343 367 344 375 c 0
 348 395 333 410 285 410 c 0
 234 410 194 393 189 367 c 0
 181 332 229 318 257 309 c 0
 344 279 412 256 389 149 c 0
 375 80 294 4 192 -1 c 1
 191 -11 190 -20 189 -27 c 1
 247 -37 273 -61 262 -110 c 0
 250 -168 197 -196 139 -196 c 0
 101 -196 63 -180 70 -148 c 0
 74 -131 91 -109 114 -109 c 0
 131 -109 136 -118 145 -126 c 0xd0
EndSplineSet
EndChar
StartChar: Scaron
Encoding: 352 352 136
Width: 624
Flags: MW
HStem: 0 96<241.5 300 241.5 304.5> 0 220<83.5 304.5> 483 199<358 556> 589 93<360.5 422.5> 884 20G<345.5 364 577 594.5>
LayerCount: 2
Back
Fore
SplineSet
311 309 m 0xa8
 218 335 115 387 139 500 c 0
 169 640 299 682 417 682 c 0
 494 682 628 655 602 535 c 0
 596 505 570 483 542 483 c 0xa8
 517 483 502 502 503 525 c 0
 505 567 450 589 395 589 c 0
 326 589 260 566 247 504 c 0
 237 460 275 431 357 407 c 0
 496 366 555 299 534 201 c 0
 505 63 358 0 251 0 c 0
 139 0 55 62 36 145 c 0
 35 152 35 162 37 170 c 0
 42 197 69 220 98 220 c 0x58
 123 220 137 205 140 183 c 0
 149 123 213 96 270 96 c 0
 330 96 412 127 427 196 c 0
 434 229 435 274 311 309 c 0xa8
593 821 m 2
 453 721 l 2
 440 712 427 709 418 709 c 0
 406 709 393 715 384 727 c 2
 308 823 l 2
 301 833 299 844 302 857 c 0
 307 882 333 904 358 904 c 0
 370 904 379 902 388 892 c 2
 447 826 l 1
 551 895 l 2
 563 903 572 904 582 904 c 0
 607 904 624 884 619 857 c 0
 616 844 607 831 593 821 c 2
EndSplineSet
EndChar
StartChar: scaron
Encoding: 353 353 137
Width: 484
Flags: MW
HStem: -2 92<175 231 175 233.5> -2 188<65 233.5> 310 189<265 393> 410 89<265 309> 703 20G<245.5 264 477 494.5>
LayerCount: 2
Back
Fore
SplineSet
116 153 m 0x58
 121 114 151 90 199 90 c 0
 263 90 292 131 296 150 c 0
 303 179 290 195 220 218 c 0
 119 251 80 292 96 368 c 0
 118 472 228 499 302 499 c 0
 408 499 454 450 438 374 c 0
 429 332 410 310 376 310 c 0xa8
 344 310 334 332 339 357 c 0
 340 362 343 367 344 375 c 0
 348 395 333 410 285 410 c 0
 234 410 194 393 189 367 c 0
 181 332 229 318 257 309 c 0
 344 279 412 256 389 149 c 0
 374 77 288 -2 179 -2 c 0
 52 -2 13 102 21 139 c 0
 27 165 52 186 78 186 c 0
 101 186 114 172 116 153 c 0x58
494 640 m 2
 353 540 l 2
 340 531 328 528 319 528 c 0
 307 528 294 534 285 546 c 2
 209 642 l 2
 201 652 199 663 202 676 c 0
 208 701 233 723 258 723 c 0
 270 723 280 721 289 711 c 2
 348 645 l 1
 451 714 l 2
 464 722 472 723 482 723 c 0
 507 723 525 703 519 676 c 0
 516 663 508 650 494 640 c 2
EndSplineSet
EndChar
StartChar: uni0162
Encoding: 354 354 241
Width: 548
Flags: MW
HStem: -229 199<124.5 221.5> 0 21G<190.5 217.5> 582 99<113 561 147 277 376 540 376 376>
LayerCount: 2
Back
Fore
SplineSet
561 681 m 2
 589 681 606 660 600 632 c 0
 594 605 568 582 540 582 c 2
 376 582 l 1
 263 49 l 2
 257 23 231 0 204 0 c 0
 177 0 158 23 164 49 c 2
 277 582 l 1
 126 582 l 2
 100 582 82 605 88 632 c 0
 94 660 121 681 147 681 c 2
 561 681 l 2
248 -81 m 0
 244 -102 215 -152 191 -190 c 0
 178 -211 163 -229 137 -229 c 0
 112 -229 97 -210 102 -187 c 0
 103 -180 105 -176 108 -171 c 2
 136 -124 l 1
 133 -115 132 -105 135 -93 c 0
 142 -60 176 -30 207 -30 c 0
 236 -30 254 -53 248 -81 c 0
EndSplineSet
EndChar
StartChar: Tcaron
Encoding: 356 356 210
Width: 548
Flags: MW
HStem: 0 21G<190.5 217.5> 582 99<113 561 147 277 376 540 376 376> 884 20G<285.5 304 517 534.5>
LayerCount: 2
Back
Fore
SplineSet
533 821 m 2
 393 721 l 2
 380 712 367 709 358 709 c 0
 346 709 333 715 324 727 c 2
 248 823 l 2
 241 833 239 844 242 857 c 0
 247 882 273 904 298 904 c 0
 310 904 319 902 328 892 c 2
 387 826 l 1
 491 895 l 2
 503 903 512 904 522 904 c 0
 547 904 564 884 559 857 c 0
 556 844 547 831 533 821 c 2
561 681 m 2
 589 681 606 660 600 632 c 0
 594 605 568 582 540 582 c 2
 376 582 l 1
 263 49 l 2
 257 23 231 0 204 0 c 0
 177 0 158 23 164 49 c 2
 277 582 l 1
 126 582 l 2
 100 582 82 605 88 632 c 0
 94 660 121 681 147 681 c 2
 561 681 l 2
EndSplineSet
EndChar
StartChar: tcaron
Encoding: 357 357 222
Width: 436
Flags: MW
HStem: -1 21G<128.5 154> 403 97<81.5 200 118 179 296 360 118 275> 523 133<267.5 394> 523 199<368.5 465.5>
LayerCount: 2
Back
Fore
SplineSet
296 500 m 1xe0
 381 500 l 2
 408 500 424 479 418 451 c 0
 413 426 387 403 360 403 c 2
 275 403 l 1
 199 46 l 2
 194 20 167 -1 141 -1 c 0
 116 -1 98 20 103 46 c 2
 179 403 l 1
 95 403 l 2
 68 403 52 426 57 451 c 0
 64 481 92 500 118 500 c 2
 200 500 l 1
 223 607 l 2
 228 632 254 656 281 656 c 0
 310 656 324 632 319 607 c 2
 296 500 l 1xe0
492 671 m 0
 488 650 459 600 435 562 c 0
 421 541 407 523 381 523 c 0
 356 523 341 542 346 565 c 0
 347 572 349 576 352 581 c 2
 380 628 l 1
 377 637 376 647 379 659 c 0
 386 692 420 722 451 722 c 0xd0
 480 722 498 699 492 671 c 0
EndSplineSet
EndChar
StartChar: Uring
Encoding: 366 366 239
Width: 709
Flags: MW
HStem: 0 92<234.5 341.5 234.5 367.5> 712 79<446 472.5 446 472.5> 862 80<467.5 497.5>
LayerCount: 2
Back
Fore
SplineSet
701 633 m 0
 678 507 661 400 616 270 c 0
 561 110 456 0 279 0 c 0
 110 0 47 151 86 367 c 0
 105 474 123 549 142 634 c 0
 146 650 163 681 204 681 c 0
 244 681 245 649 242 633 c 0
 221 544 205 474 188 381 c 0
 163 236 169 92 300 92 c 0
 383 92 473 139 518 277 c 0
 557 397 573 498 602 631 c 0
 605 647 619 681 662 681 c 0
 705 681 704 648 701 633 c 0
436 712 m 0
 365 712 315 754 329 820 c 0
 345 897 430 942 505 942 c 0
 573 942 625 900 611 833 c 0
 594 755 509 712 436 712 c 0
484 862 m 0
 448 862 419 838 415 820 c 0
 411 802 431 791 461 791 c 0
 484 791 519 806 524 831 c 0
 527 846 511 862 484 862 c 0
EndSplineSet
EndChar
StartChar: Uhungarumlaut
Encoding: 368 368 240
Width: 709
Flags: MW
HStem: 0 92<234.5 341.5 234.5 367.5> 692 193<293 484 461 515.5>
LayerCount: 2
Back
Fore
SplineSet
701 633 m 0
 678 507 661 400 616 270 c 0
 561 110 456 0 279 0 c 0
 110 0 47 151 86 367 c 0
 105 474 123 549 142 634 c 0
 146 650 163 681 204 681 c 0
 244 681 245 649 242 633 c 0
 221 544 205 474 188 381 c 0
 163 236 169 92 300 92 c 0
 383 92 473 139 518 277 c 0
 557 397 573 498 602 631 c 0
 605 647 619 681 662 681 c 0
 705 681 704 648 701 633 c 0
483 790 m 2
 339 704 l 2
 328 697 316 692 305 692 c 0
 281 692 263 713 269 740 c 0
 271 751 277 763 290 772 c 2
 424 866 l 2
 435 875 453 885 469 885 c 0
 499 885 518 861 511 830 c 0
 508 815 499 799 483 790 c 2
688 790 m 2
 544 704 l 2
 533 697 521 692 510 692 c 0
 486 692 468 713 474 740 c 0
 476 751 482 763 495 772 c 2
 629 866 l 2
 640 875 658 885 674 885 c 0
 704 885 723 861 716 830 c 0
 713 815 704 799 688 790 c 2
EndSplineSet
EndChar
StartChar: uhungarumlaut
Encoding: 369 369 256
Width: 538
Flags: MW
HStem: -3 90<167 191.5> 0 21G<336.5 363> 531 193<174 365 342 396.5>
LayerCount: 2
Back
Fore
SplineSet
494 454 m 2xa0
 408 48 l 2
 402 23 376 0 350 0 c 0x60
 323 0 307 17 307 40 c 1
 268 16 217 -3 166 -3 c 0
 67 -3 13 22 68 287 c 0
 82 360 100 414 113 449 c 0
 128 492 146 500 171 500 c 0
 196 500 216 485 209 453 c 0
 207 445 205 439 202 431 c 0
 193 401 175 351 162 288 c 0
 125 114 149 87 185 87 c 0
 239 87 304 125 325 144 c 0
 330 148 334 158 336 169 c 2
 399 454 l 2
 405 481 432 500 456 500 c 0
 481 500 500 481 494 454 c 2xa0
365 629 m 2
 221 543 l 2
 209 536 197 531 186 531 c 0
 162 531 145 552 151 579 c 0
 153 590 158 602 171 611 c 2
 305 705 l 2
 317 714 334 724 350 724 c 0
 380 724 399 700 393 669 c 0
 390 654 381 638 365 629 c 2
570 629 m 2
 426 543 l 2
 414 536 402 531 391 531 c 0
 367 531 350 552 356 579 c 0
 358 590 363 602 376 611 c 2
 510 705 l 2
 522 714 539 724 555 724 c 0
 585 724 604 700 598 669 c 0
 595 654 586 638 570 629 c 2
EndSplineSet
EndChar
StartChar: Ydieresis
Encoding: 376 376 151
Width: 619
Flags: MW
HStem: 0 21G<134 157> 693 124<313.5 321 501.5 509.5>
LayerCount: 2
Back
Fore
SplineSet
386 758 m 0
 378 722 341 693 301 693 c 0
 265 693 241 718 249 753 c 0
 256 787 294 817 333 817 c 0
 366 817 393 791 386 758 c 0
574 758 m 0
 566 722 530 693 489 693 c 0
 453 693 429 718 437 753 c 0
 444 787 482 817 521 817 c 0
 555 817 581 791 574 758 c 0
320 321 m 1
 590 657 l 2
 603 673 620 681 638 681 c 0
 662 681 683 660 677 632 c 0
 674 621 672 615 660 600 c 2
 196 25 l 2
 183 9 166 0 148 0 c 0
 120 0 104 24 109 49 c 0
 111 59 113 64 123 77 c 2
 241 223 l 1
 100 603 l 2
 96 614 96 623 98 632 c 0
 103 658 130 681 158 681 c 0
 175 681 189 672 195 656 c 2
 320 321 l 1
EndSplineSet
EndChar
StartChar: Zacute
Encoding: 377 377 211
Width: 665
Flags: MW
HStem: 0 102<156 475> 577 103<164.5 631 200 518> 882 20G<533.5 557>
LayerCount: 2
Back
Fore
SplineSet
156 102 m 1
 496 102 l 2
 524 102 542 80 535 51 c 0
 530 24 503 0 475 0 c 2
 44 0 l 2
 7 0 -6 23 1 56 c 0
 3 65 10 78 20 88 c 2
 518 577 l 1
 178 577 l 2
 151 577 133 600 139 629 c 0
 145 656 173 680 200 680 c 2
 631 680 l 2
 661 680 680 657 674 627 c 0
 670 611 667 605 658 596 c 2
 156 102 l 1
362 790 m 2
 497 883 l 2
 509 891 525 902 542 902 c 0
 572 902 590 878 584 847 c 0
 580 832 572 817 556 807 c 2
 414 722 l 2
 402 715 389 709 378 709 c 0
 354 709 337 730 342 757 c 0
 345 768 350 781 362 790 c 2
EndSplineSet
EndChar
StartChar: zacute
Encoding: 378 378 223
Width: 515
Flags: MW
HStem: 0 96<145 351> 404 97<111.5 453 146 337> 702 20G<418.5 442>
LayerCount: 2
Back
Fore
SplineSet
8 77 m 2
 337 404 l 1
 125 404 l 2
 98 404 82 425 88 452 c 0
 93 478 119 501 146 501 c 2
 453 501 l 2
 483 501 496 478 491 452 c 0
 488 441 485 433 474 423 c 2
 145 96 l 1
 371 96 l 2
 397 96 414 74 409 48 c 0
 403 23 377 0 351 0 c 2
 30 0 l 2
 -2 0 -14 23 -8 48 c 0
 -7 56 -2 67 8 77 c 2
247 610 m 2
 382 703 l 2
 394 711 410 722 427 722 c 0
 457 722 475 698 468 667 c 0
 465 652 457 637 441 627 c 2
 299 542 l 2
 287 535 274 529 263 529 c 0
 239 529 221 550 227 577 c 0
 229 588 234 601 247 610 c 2
EndSplineSet
EndChar
StartChar: Zdotaccent
Encoding: 379 379 212
Width: 665
Flags: MW
HStem: 0 102<156 475> 577 103<164.5 631 200 518> 703 124<438.5 446>
LayerCount: 2
Back
Fore
SplineSet
511 767 m 0
 503 732 466 703 426 703 c 0
 390 703 366 727 373 762 c 0
 381 796 419 827 458 827 c 0
 491 827 518 801 511 767 c 0
156 102 m 1
 496 102 l 2
 524 102 542 80 535 51 c 0
 530 24 503 0 475 0 c 2
 44 0 l 2
 7 0 -6 23 1 56 c 0
 3 65 10 78 20 88 c 2
 518 577 l 1
 178 577 l 2
 151 577 133 600 139 629 c 0
 145 656 173 680 200 680 c 2
 631 680 l 2
 661 680 680 657 674 627 c 0
 670 611 667 605 658 596 c 2
 156 102 l 1
EndSplineSet
EndChar
StartChar: Zcaron
Encoding: 381 381 144
Width: 665
Flags: MW
HStem: 0 102<156 475> 577 103<164.5 631 200 518> 884 20G<336.5 355 568 585.5>
LayerCount: 2
Back
Fore
SplineSet
584 821 m 2
 444 721 l 2
 431 712 418 709 409 709 c 0
 397 709 384 715 375 727 c 2
 299 823 l 2
 292 833 290 844 293 857 c 0
 298 882 324 904 349 904 c 0
 361 904 370 902 379 892 c 2
 438 826 l 1
 542 895 l 2
 554 903 563 904 573 904 c 0
 598 904 615 884 610 857 c 0
 607 844 598 831 584 821 c 2
156 102 m 1
 496 102 l 2
 524 102 542 80 535 51 c 0
 530 24 503 0 475 0 c 2
 44 0 l 2
 7 0 -6 23 1 56 c 0
 3 65 10 78 20 88 c 2
 518 577 l 1
 178 577 l 2
 151 577 133 600 139 629 c 0
 145 656 173 680 200 680 c 2
 631 680 l 2
 661 680 680 657 674 627 c 0
 670 611 667 605 658 596 c 2
 156 102 l 1
EndSplineSet
EndChar
StartChar: zcaron
Encoding: 382 382 150
Width: 515
Flags: MW
HStem: 0 96<145 351> 404 97<111.5 453 146 337> 703 20G<262.5 281 494 511.5>
LayerCount: 2
Back
Fore
SplineSet
8 77 m 2
 337 404 l 1
 125 404 l 2
 98 404 82 425 88 452 c 0
 93 478 119 501 146 501 c 2
 453 501 l 2
 483 501 496 478 491 452 c 0
 488 441 485 433 474 423 c 2
 145 96 l 1
 371 96 l 2
 397 96 414 74 409 48 c 0
 403 23 377 0 351 0 c 2
 30 0 l 2
 -2 0 -14 23 -8 48 c 0
 -7 56 -2 67 8 77 c 2
511 640 m 2
 370 540 l 2
 357 531 345 528 336 528 c 0
 324 528 311 534 302 546 c 2
 226 642 l 2
 218 652 216 663 219 676 c 0
 225 701 250 723 275 723 c 0
 287 723 297 721 306 711 c 2
 365 645 l 1
 468 714 l 2
 481 722 489 723 499 723 c 0
 524 723 542 703 536 676 c 0
 533 663 525 650 511 640 c 2
EndSplineSet
EndChar
StartChar: caron
Encoding: 711 711 219
Width: 526
Flags: MW
HStem: 513 21G<289 299.5> 688 20G<221.5 240 453 470.5>
LayerCount: 2
Back
Fore
SplineSet
469 625 m 2
 329 525 l 2
 316 516 304 513 295 513 c 0
 283 513 270 519 260 531 c 2
 185 627 l 2
 177 637 175 648 178 661 c 0
 183 686 209 708 234 708 c 0
 246 708 256 706 264 696 c 2
 323 630 l 1
 427 699 l 2
 440 707 448 708 458 708 c 0
 483 708 501 688 495 661 c 0
 492 648 483 635 469 625 c 2
EndSplineSet
EndChar
StartChar: breve
Encoding: 728 728 203
Width: 526
Flags: MW
HStem: 508 87<315 347 315 358.5> 508 169<246 473>
LayerCount: 2
Back
Fore
SplineSet
169 635 m 0x40
 173 650 179 672 216 672 c 0
 237 672 247 655 250 643 c 0
 260 607 301 595 329 595 c 0x80
 365 595 393 609 414 643 c 0
 426 662 437 677 463 677 c 0
 483 677 498 659 493 639 c 0
 483 590 409 508 308 508 c 0
 184 508 164 609 169 635 c 0x40
EndSplineSet
EndChar
StartChar: dotaccent
Encoding: 729 729 258
Width: 526
Flags: MW
HStem: 523 121<316 324.5>
LayerCount: 2
Back
Fore
SplineSet
387 586 m 0
 380 551 344 523 305 523 c 0
 269 523 246 547 253 581 c 0
 260 614 297 644 335 644 c 0
 368 644 394 619 387 586 c 0
EndSplineSet
EndChar
StartChar: ogonek
Encoding: 731 731 214
Width: 526
Flags: MW
HStem: -196 92<166.5 174.5> 50 20G<213 230>
LayerCount: 2
Back
Fore
SplineSet
155 -196 m 0
 87 -196 46 -147 61 -79 c 0
 74 -15 137 35 190 62 c 0
 197 66 208 70 218 70 c 0
 242 70 257 49 252 24 c 0
 248 6 233 -6 209 -21 c 0
 187 -35 157 -54 151 -80 c 0
 148 -95 159 -104 174 -104 c 0
 187 -104 203 -100 217 -90 c 0
 230 -82 238 -80 248 -80 c 0
 269 -80 288 -102 283 -126 c 0
 274 -168 194 -196 155 -196 c 0
EndSplineSet
EndChar
StartChar: hungarumlaut
Encoding: 733 733 224
Width: 526
Flags: MW
HStem: 511 193<124 315 292 346.5>
LayerCount: 2
Back
Fore
SplineSet
315 609 m 2
 171 523 l 2
 159 516 147 511 136 511 c 0
 112 511 95 532 100 559 c 0
 103 570 108 582 121 591 c 2
 255 685 l 2
 267 694 284 704 300 704 c 0
 330 704 349 680 342 649 c 0
 339 634 331 618 315 609 c 2
520 609 m 2
 376 523 l 2
 364 516 352 511 341 511 c 0
 317 511 300 532 305 559 c 0
 308 570 313 582 326 591 c 2
 460 685 l 2
 472 694 489 704 505 704 c 0
 535 704 554 680 547 649 c 0
 544 634 536 618 520 609 c 2
EndSplineSet
EndChar
